<?xml version="1.0" encoding="utf-8" standalone="no"?>
<!DOCTYPE svg PUBLIC "-//W3C//DTD SVG 1.1//EN"
  "http://www.w3.org/Graphics/SVG/1.1/DTD/svg11.dtd">
<!-- Created with matplotlib (https://matplotlib.org/) -->
<svg height="241.684766pt" version="1.1" viewBox="0 0 566.440625 241.684766" width="566.440625pt" xmlns="http://www.w3.org/2000/svg" xmlns:xlink="http://www.w3.org/1999/xlink">
 <defs>
  <style type="text/css">
*{stroke-linecap:butt;stroke-linejoin:round;white-space:pre;}
  </style>
 </defs>
 <g id="figure_1">
  <g id="patch_1">
   <path d="M 0 241.684766 
L 566.440625 241.684766 
L 566.440625 0 
L 0 0 
z
" style="fill:#ffffff;"/>
  </g>
  <g id="axes_1">
   <g id="patch_2">
    <path d="M 37.240625 163.855078 
L 559.240625 163.855078 
L 559.240625 73.855078 
L 37.240625 73.855078 
z
" style="fill:#ffffff;"/>
   </g>
   <g id="QuadMesh_1">
    <path clip-path="url(#p62c09cd968)" d="M 37.240625 73.855078 
L 55.240625 73.855078 
L 55.240625 91.855078 
L 37.240625 91.855078 
L 37.240625 73.855078 
" style="fill:#d1d1d1;stroke:#ffffff;stroke-width:6;"/>
    <path clip-path="url(#p62c09cd968)" d="M 55.240625 73.855078 
L 73.240625 73.855078 
L 73.240625 91.855078 
L 55.240625 91.855078 
L 55.240625 73.855078 
" style="fill:#d1d1d1;stroke:#ffffff;stroke-width:6;"/>
    <path clip-path="url(#p62c09cd968)" d="M 73.240625 73.855078 
L 91.240625 73.855078 
L 91.240625 91.855078 
L 73.240625 91.855078 
L 73.240625 73.855078 
" style="fill:#d1d1d1;stroke:#ffffff;stroke-width:6;"/>
    <path clip-path="url(#p62c09cd968)" d="M 91.240625 73.855078 
L 109.240625 73.855078 
L 109.240625 91.855078 
L 91.240625 91.855078 
L 91.240625 73.855078 
" style="fill:#d1d1d1;stroke:#ffffff;stroke-width:6;"/>
    <path clip-path="url(#p62c09cd968)" d="M 109.240625 73.855078 
L 127.240625 73.855078 
L 127.240625 91.855078 
L 109.240625 91.855078 
L 109.240625 73.855078 
" style="fill:#d1d1d1;stroke:#ffffff;stroke-width:6;"/>
    <path clip-path="url(#p62c09cd968)" d="M 127.240625 73.855078 
L 145.240625 73.855078 
L 145.240625 91.855078 
L 127.240625 91.855078 
L 127.240625 73.855078 
" style="fill:#d1d1d1;stroke:#ffffff;stroke-width:6;"/>
    <path clip-path="url(#p62c09cd968)" d="M 145.240625 73.855078 
L 163.240625 73.855078 
L 163.240625 91.855078 
L 145.240625 91.855078 
L 145.240625 73.855078 
" style="fill:#d1d1d1;stroke:#ffffff;stroke-width:6;"/>
    <path clip-path="url(#p62c09cd968)" d="M 163.240625 73.855078 
L 181.240625 73.855078 
L 181.240625 91.855078 
L 163.240625 91.855078 
L 163.240625 73.855078 
" style="fill:#d1d1d1;stroke:#ffffff;stroke-width:6;"/>
    <path clip-path="url(#p62c09cd968)" d="M 181.240625 73.855078 
L 199.240625 73.855078 
L 199.240625 91.855078 
L 181.240625 91.855078 
L 181.240625 73.855078 
" style="fill:#d1d1d1;stroke:#ffffff;stroke-width:6;"/>
    <path clip-path="url(#p62c09cd968)" d="M 199.240625 73.855078 
L 217.240625 73.855078 
L 217.240625 91.855078 
L 199.240625 91.855078 
L 199.240625 73.855078 
" style="fill:#d1d1d1;stroke:#ffffff;stroke-width:6;"/>
    <path clip-path="url(#p62c09cd968)" d="M 217.240625 73.855078 
L 235.240625 73.855078 
L 235.240625 91.855078 
L 217.240625 91.855078 
L 217.240625 73.855078 
" style="fill:#d1d1d1;stroke:#ffffff;stroke-width:6;"/>
    <path clip-path="url(#p62c09cd968)" d="M 235.240625 73.855078 
L 253.240625 73.855078 
L 253.240625 91.855078 
L 235.240625 91.855078 
L 235.240625 73.855078 
" style="fill:#d1d1d1;stroke:#ffffff;stroke-width:6;"/>
    <path clip-path="url(#p62c09cd968)" d="M 253.240625 73.855078 
L 271.240625 73.855078 
L 271.240625 91.855078 
L 253.240625 91.855078 
L 253.240625 73.855078 
" style="fill:#d1d1d1;stroke:#ffffff;stroke-width:6;"/>
    <path clip-path="url(#p62c09cd968)" d="M 271.240625 73.855078 
L 289.240625 73.855078 
L 289.240625 91.855078 
L 271.240625 91.855078 
L 271.240625 73.855078 
" style="fill:#d1d1d1;stroke:#ffffff;stroke-width:6;"/>
    <path clip-path="url(#p62c09cd968)" d="M 289.240625 73.855078 
L 307.240625 73.855078 
L 307.240625 91.855078 
L 289.240625 91.855078 
L 289.240625 73.855078 
" style="fill:#d1d1d1;stroke:#ffffff;stroke-width:6;"/>
    <path clip-path="url(#p62c09cd968)" d="M 307.240625 73.855078 
L 325.240625 73.855078 
L 325.240625 91.855078 
L 307.240625 91.855078 
L 307.240625 73.855078 
" style="fill:#d1d1d1;stroke:#ffffff;stroke-width:6;"/>
    <path clip-path="url(#p62c09cd968)" d="M 325.240625 73.855078 
L 343.240625 73.855078 
L 343.240625 91.855078 
L 325.240625 91.855078 
L 325.240625 73.855078 
" style="fill:#d1d1d1;stroke:#ffffff;stroke-width:6;"/>
    <path clip-path="url(#p62c09cd968)" d="M 343.240625 73.855078 
L 361.240625 73.855078 
L 361.240625 91.855078 
L 343.240625 91.855078 
L 343.240625 73.855078 
" style="fill:#d1d1d1;stroke:#ffffff;stroke-width:6;"/>
    <path clip-path="url(#p62c09cd968)" d="M 361.240625 73.855078 
L 379.240625 73.855078 
L 379.240625 91.855078 
L 361.240625 91.855078 
L 361.240625 73.855078 
" style="fill:#d1d1d1;stroke:#ffffff;stroke-width:6;"/>
    <path clip-path="url(#p62c09cd968)" d="M 379.240625 73.855078 
L 397.240625 73.855078 
L 397.240625 91.855078 
L 379.240625 91.855078 
L 379.240625 73.855078 
" style="fill:#d1d1d1;stroke:#ffffff;stroke-width:6;"/>
    <path clip-path="url(#p62c09cd968)" d="M 397.240625 73.855078 
L 415.240625 73.855078 
L 415.240625 91.855078 
L 397.240625 91.855078 
L 397.240625 73.855078 
" style="fill:#d1d1d1;stroke:#ffffff;stroke-width:6;"/>
    <path clip-path="url(#p62c09cd968)" d="M 415.240625 73.855078 
L 433.240625 73.855078 
L 433.240625 91.855078 
L 415.240625 91.855078 
L 415.240625 73.855078 
" style="fill:#d1d1d1;stroke:#ffffff;stroke-width:6;"/>
    <path clip-path="url(#p62c09cd968)" d="M 433.240625 73.855078 
L 451.240625 73.855078 
L 451.240625 91.855078 
L 433.240625 91.855078 
L 433.240625 73.855078 
" style="fill:#d1d1d1;stroke:#ffffff;stroke-width:6;"/>
    <path clip-path="url(#p62c09cd968)" d="M 451.240625 73.855078 
L 469.240625 73.855078 
L 469.240625 91.855078 
L 451.240625 91.855078 
L 451.240625 73.855078 
" style="fill:#d1d1d1;stroke:#ffffff;stroke-width:6;"/>
    <path clip-path="url(#p62c09cd968)" d="M 469.240625 73.855078 
L 487.240625 73.855078 
L 487.240625 91.855078 
L 469.240625 91.855078 
L 469.240625 73.855078 
" style="fill:#d1d1d1;stroke:#ffffff;stroke-width:6;"/>
    <path clip-path="url(#p62c09cd968)" d="M 487.240625 73.855078 
L 505.240625 73.855078 
L 505.240625 91.855078 
L 487.240625 91.855078 
L 487.240625 73.855078 
" style="fill:#d1d1d1;stroke:#ffffff;stroke-width:6;"/>
    <path clip-path="url(#p62c09cd968)" d="M 505.240625 73.855078 
L 523.240625 73.855078 
L 523.240625 91.855078 
L 505.240625 91.855078 
L 505.240625 73.855078 
" style="fill:#d1d1d1;stroke:#ffffff;stroke-width:6;"/>
    <path clip-path="url(#p62c09cd968)" d="M 523.240625 73.855078 
L 541.240625 73.855078 
L 541.240625 91.855078 
L 523.240625 91.855078 
L 523.240625 73.855078 
" style="fill:#d1d1d1;stroke:#ffffff;stroke-width:6;"/>
    <path clip-path="url(#p62c09cd968)" d="M 541.240625 73.855078 
L 559.240625 73.855078 
L 559.240625 91.855078 
L 541.240625 91.855078 
L 541.240625 73.855078 
" style="fill:#d1d1d1;stroke:#ffffff;stroke-width:6;"/>
    <path clip-path="url(#p62c09cd968)" d="M 37.240625 91.855078 
L 55.240625 91.855078 
L 55.240625 109.855078 
L 37.240625 109.855078 
L 37.240625 91.855078 
" style="fill:#d1d1d1;stroke:#ffffff;stroke-width:6;"/>
    <path clip-path="url(#p62c09cd968)" d="M 55.240625 91.855078 
L 73.240625 91.855078 
L 73.240625 109.855078 
L 55.240625 109.855078 
L 55.240625 91.855078 
" style="fill:#d1d1d1;stroke:#ffffff;stroke-width:6;"/>
    <path clip-path="url(#p62c09cd968)" d="M 73.240625 91.855078 
L 91.240625 91.855078 
L 91.240625 109.855078 
L 73.240625 109.855078 
L 73.240625 91.855078 
" style="fill:#353531;stroke:#ffffff;stroke-width:6;"/>
    <path clip-path="url(#p62c09cd968)" d="M 91.240625 91.855078 
L 109.240625 91.855078 
L 109.240625 109.855078 
L 91.240625 109.855078 
L 91.240625 91.855078 
" style="fill:#d1d1d1;stroke:#ffffff;stroke-width:6;"/>
    <path clip-path="url(#p62c09cd968)" d="M 109.240625 91.855078 
L 127.240625 91.855078 
L 127.240625 109.855078 
L 109.240625 109.855078 
L 109.240625 91.855078 
" style="fill:#d1d1d1;stroke:#ffffff;stroke-width:6;"/>
    <path clip-path="url(#p62c09cd968)" d="M 127.240625 91.855078 
L 145.240625 91.855078 
L 145.240625 109.855078 
L 127.240625 109.855078 
L 127.240625 91.855078 
" style="fill:#d1d1d1;stroke:#ffffff;stroke-width:6;"/>
    <path clip-path="url(#p62c09cd968)" d="M 145.240625 91.855078 
L 163.240625 91.855078 
L 163.240625 109.855078 
L 145.240625 109.855078 
L 145.240625 91.855078 
" style="fill:#d1d1d1;stroke:#ffffff;stroke-width:6;"/>
    <path clip-path="url(#p62c09cd968)" d="M 163.240625 91.855078 
L 181.240625 91.855078 
L 181.240625 109.855078 
L 163.240625 109.855078 
L 163.240625 91.855078 
" style="fill:#353531;stroke:#ffffff;stroke-width:6;"/>
    <path clip-path="url(#p62c09cd968)" d="M 181.240625 91.855078 
L 199.240625 91.855078 
L 199.240625 109.855078 
L 181.240625 109.855078 
L 181.240625 91.855078 
" style="fill:#d1d1d1;stroke:#ffffff;stroke-width:6;"/>
    <path clip-path="url(#p62c09cd968)" d="M 199.240625 91.855078 
L 217.240625 91.855078 
L 217.240625 109.855078 
L 199.240625 109.855078 
L 199.240625 91.855078 
" style="fill:#d1d1d1;stroke:#ffffff;stroke-width:6;"/>
    <path clip-path="url(#p62c09cd968)" d="M 217.240625 91.855078 
L 235.240625 91.855078 
L 235.240625 109.855078 
L 217.240625 109.855078 
L 217.240625 91.855078 
" style="fill:#d1d1d1;stroke:#ffffff;stroke-width:6;"/>
    <path clip-path="url(#p62c09cd968)" d="M 235.240625 91.855078 
L 253.240625 91.855078 
L 253.240625 109.855078 
L 235.240625 109.855078 
L 235.240625 91.855078 
" style="fill:#d1d1d1;stroke:#ffffff;stroke-width:6;"/>
    <path clip-path="url(#p62c09cd968)" d="M 253.240625 91.855078 
L 271.240625 91.855078 
L 271.240625 109.855078 
L 253.240625 109.855078 
L 253.240625 91.855078 
" style="fill:#d1d1d1;stroke:#ffffff;stroke-width:6;"/>
    <path clip-path="url(#p62c09cd968)" d="M 271.240625 91.855078 
L 289.240625 91.855078 
L 289.240625 109.855078 
L 271.240625 109.855078 
L 271.240625 91.855078 
" style="fill:#d1d1d1;stroke:#ffffff;stroke-width:6;"/>
    <path clip-path="url(#p62c09cd968)" d="M 289.240625 91.855078 
L 307.240625 91.855078 
L 307.240625 109.855078 
L 289.240625 109.855078 
L 289.240625 91.855078 
" style="fill:#353531;stroke:#ffffff;stroke-width:6;"/>
    <path clip-path="url(#p62c09cd968)" d="M 307.240625 91.855078 
L 325.240625 91.855078 
L 325.240625 109.855078 
L 307.240625 109.855078 
L 307.240625 91.855078 
" style="fill:#d1d1d1;stroke:#ffffff;stroke-width:6;"/>
    <path clip-path="url(#p62c09cd968)" d="M 325.240625 91.855078 
L 343.240625 91.855078 
L 343.240625 109.855078 
L 325.240625 109.855078 
L 325.240625 91.855078 
" style="fill:#d1d1d1;stroke:#ffffff;stroke-width:6;"/>
    <path clip-path="url(#p62c09cd968)" d="M 343.240625 91.855078 
L 361.240625 91.855078 
L 361.240625 109.855078 
L 343.240625 109.855078 
L 343.240625 91.855078 
" style="fill:#d1d1d1;stroke:#ffffff;stroke-width:6;"/>
    <path clip-path="url(#p62c09cd968)" d="M 361.240625 91.855078 
L 379.240625 91.855078 
L 379.240625 109.855078 
L 361.240625 109.855078 
L 361.240625 91.855078 
" style="fill:#d1d1d1;stroke:#ffffff;stroke-width:6;"/>
    <path clip-path="url(#p62c09cd968)" d="M 379.240625 91.855078 
L 397.240625 91.855078 
L 397.240625 109.855078 
L 379.240625 109.855078 
L 379.240625 91.855078 
" style="fill:#d1d1d1;stroke:#ffffff;stroke-width:6;"/>
    <path clip-path="url(#p62c09cd968)" d="M 397.240625 91.855078 
L 415.240625 91.855078 
L 415.240625 109.855078 
L 397.240625 109.855078 
L 397.240625 91.855078 
" style="fill:#d1d1d1;stroke:#ffffff;stroke-width:6;"/>
    <path clip-path="url(#p62c09cd968)" d="M 415.240625 91.855078 
L 433.240625 91.855078 
L 433.240625 109.855078 
L 415.240625 109.855078 
L 415.240625 91.855078 
" style="fill:#d1d1d1;stroke:#ffffff;stroke-width:6;"/>
    <path clip-path="url(#p62c09cd968)" d="M 433.240625 91.855078 
L 451.240625 91.855078 
L 451.240625 109.855078 
L 433.240625 109.855078 
L 433.240625 91.855078 
" style="fill:#d1d1d1;stroke:#ffffff;stroke-width:6;"/>
    <path clip-path="url(#p62c09cd968)" d="M 451.240625 91.855078 
L 469.240625 91.855078 
L 469.240625 109.855078 
L 451.240625 109.855078 
L 451.240625 91.855078 
" style="fill:#d1d1d1;stroke:#ffffff;stroke-width:6;"/>
    <path clip-path="url(#p62c09cd968)" d="M 469.240625 91.855078 
L 487.240625 91.855078 
L 487.240625 109.855078 
L 469.240625 109.855078 
L 469.240625 91.855078 
" style="fill:#d1d1d1;stroke:#ffffff;stroke-width:6;"/>
    <path clip-path="url(#p62c09cd968)" d="M 487.240625 91.855078 
L 505.240625 91.855078 
L 505.240625 109.855078 
L 487.240625 109.855078 
L 487.240625 91.855078 
" style="fill:#d1d1d1;stroke:#ffffff;stroke-width:6;"/>
    <path clip-path="url(#p62c09cd968)" d="M 505.240625 91.855078 
L 523.240625 91.855078 
L 523.240625 109.855078 
L 505.240625 109.855078 
L 505.240625 91.855078 
" style="fill:#d1d1d1;stroke:#ffffff;stroke-width:6;"/>
    <path clip-path="url(#p62c09cd968)" d="M 523.240625 91.855078 
L 541.240625 91.855078 
L 541.240625 109.855078 
L 523.240625 109.855078 
L 523.240625 91.855078 
" style="fill:#d1d1d1;stroke:#ffffff;stroke-width:6;"/>
    <path clip-path="url(#p62c09cd968)" d="M 541.240625 91.855078 
L 559.240625 91.855078 
L 559.240625 109.855078 
L 541.240625 109.855078 
L 541.240625 91.855078 
" style="fill:#d1d1d1;stroke:#ffffff;stroke-width:6;"/>
    <path clip-path="url(#p62c09cd968)" d="M 37.240625 109.855078 
L 55.240625 109.855078 
L 55.240625 127.855078 
L 37.240625 127.855078 
L 37.240625 109.855078 
" style="fill:#353531;stroke:#ffffff;stroke-width:6;"/>
    <path clip-path="url(#p62c09cd968)" d="M 55.240625 109.855078 
L 73.240625 109.855078 
L 73.240625 127.855078 
L 55.240625 127.855078 
L 55.240625 109.855078 
" style="fill:#d1d1d1;stroke:#ffffff;stroke-width:6;"/>
    <path clip-path="url(#p62c09cd968)" d="M 73.240625 109.855078 
L 91.240625 109.855078 
L 91.240625 127.855078 
L 73.240625 127.855078 
L 73.240625 109.855078 
" style="fill:#353531;stroke:#ffffff;stroke-width:6;"/>
    <path clip-path="url(#p62c09cd968)" d="M 91.240625 109.855078 
L 109.240625 109.855078 
L 109.240625 127.855078 
L 91.240625 127.855078 
L 91.240625 109.855078 
" style="fill:#d1d1d1;stroke:#ffffff;stroke-width:6;"/>
    <path clip-path="url(#p62c09cd968)" d="M 109.240625 109.855078 
L 127.240625 109.855078 
L 127.240625 127.855078 
L 109.240625 127.855078 
L 109.240625 109.855078 
" style="fill:#d1d1d1;stroke:#ffffff;stroke-width:6;"/>
    <path clip-path="url(#p62c09cd968)" d="M 127.240625 109.855078 
L 145.240625 109.855078 
L 145.240625 127.855078 
L 127.240625 127.855078 
L 127.240625 109.855078 
" style="fill:#d1d1d1;stroke:#ffffff;stroke-width:6;"/>
    <path clip-path="url(#p62c09cd968)" d="M 145.240625 109.855078 
L 163.240625 109.855078 
L 163.240625 127.855078 
L 145.240625 127.855078 
L 145.240625 109.855078 
" style="fill:#d1d1d1;stroke:#ffffff;stroke-width:6;"/>
    <path clip-path="url(#p62c09cd968)" d="M 163.240625 109.855078 
L 181.240625 109.855078 
L 181.240625 127.855078 
L 163.240625 127.855078 
L 163.240625 109.855078 
" style="fill:#d1d1d1;stroke:#ffffff;stroke-width:6;"/>
    <path clip-path="url(#p62c09cd968)" d="M 181.240625 109.855078 
L 199.240625 109.855078 
L 199.240625 127.855078 
L 181.240625 127.855078 
L 181.240625 109.855078 
" style="fill:#353531;stroke:#ffffff;stroke-width:6;"/>
    <path clip-path="url(#p62c09cd968)" d="M 199.240625 109.855078 
L 217.240625 109.855078 
L 217.240625 127.855078 
L 199.240625 127.855078 
L 199.240625 109.855078 
" style="fill:#353531;stroke:#ffffff;stroke-width:6;"/>
    <path clip-path="url(#p62c09cd968)" d="M 217.240625 109.855078 
L 235.240625 109.855078 
L 235.240625 127.855078 
L 217.240625 127.855078 
L 217.240625 109.855078 
" style="fill:#d1d1d1;stroke:#ffffff;stroke-width:6;"/>
    <path clip-path="url(#p62c09cd968)" d="M 235.240625 109.855078 
L 253.240625 109.855078 
L 253.240625 127.855078 
L 235.240625 127.855078 
L 235.240625 109.855078 
" style="fill:#d1d1d1;stroke:#ffffff;stroke-width:6;"/>
    <path clip-path="url(#p62c09cd968)" d="M 253.240625 109.855078 
L 271.240625 109.855078 
L 271.240625 127.855078 
L 253.240625 127.855078 
L 253.240625 109.855078 
" style="fill:#d1d1d1;stroke:#ffffff;stroke-width:6;"/>
    <path clip-path="url(#p62c09cd968)" d="M 271.240625 109.855078 
L 289.240625 109.855078 
L 289.240625 127.855078 
L 271.240625 127.855078 
L 271.240625 109.855078 
" style="fill:#d1d1d1;stroke:#ffffff;stroke-width:6;"/>
    <path clip-path="url(#p62c09cd968)" d="M 289.240625 109.855078 
L 307.240625 109.855078 
L 307.240625 127.855078 
L 289.240625 127.855078 
L 289.240625 109.855078 
" style="fill:#d1d1d1;stroke:#ffffff;stroke-width:6;"/>
    <path clip-path="url(#p62c09cd968)" d="M 307.240625 109.855078 
L 325.240625 109.855078 
L 325.240625 127.855078 
L 307.240625 127.855078 
L 307.240625 109.855078 
" style="fill:#353531;stroke:#ffffff;stroke-width:6;"/>
    <path clip-path="url(#p62c09cd968)" d="M 325.240625 109.855078 
L 343.240625 109.855078 
L 343.240625 127.855078 
L 325.240625 127.855078 
L 325.240625 109.855078 
" style="fill:#d1d1d1;stroke:#ffffff;stroke-width:6;"/>
    <path clip-path="url(#p62c09cd968)" d="M 343.240625 109.855078 
L 361.240625 109.855078 
L 361.240625 127.855078 
L 343.240625 127.855078 
L 343.240625 109.855078 
" style="fill:#d1d1d1;stroke:#ffffff;stroke-width:6;"/>
    <path clip-path="url(#p62c09cd968)" d="M 361.240625 109.855078 
L 379.240625 109.855078 
L 379.240625 127.855078 
L 361.240625 127.855078 
L 361.240625 109.855078 
" style="fill:#d1d1d1;stroke:#ffffff;stroke-width:6;"/>
    <path clip-path="url(#p62c09cd968)" d="M 379.240625 109.855078 
L 397.240625 109.855078 
L 397.240625 127.855078 
L 379.240625 127.855078 
L 379.240625 109.855078 
" style="fill:#353531;stroke:#ffffff;stroke-width:6;"/>
    <path clip-path="url(#p62c09cd968)" d="M 397.240625 109.855078 
L 415.240625 109.855078 
L 415.240625 127.855078 
L 397.240625 127.855078 
L 397.240625 109.855078 
" style="fill:#d1d1d1;stroke:#ffffff;stroke-width:6;"/>
    <path clip-path="url(#p62c09cd968)" d="M 415.240625 109.855078 
L 433.240625 109.855078 
L 433.240625 127.855078 
L 415.240625 127.855078 
L 415.240625 109.855078 
" style="fill:#353531;stroke:#ffffff;stroke-width:6;"/>
    <path clip-path="url(#p62c09cd968)" d="M 433.240625 109.855078 
L 451.240625 109.855078 
L 451.240625 127.855078 
L 433.240625 127.855078 
L 433.240625 109.855078 
" style="fill:#d1d1d1;stroke:#ffffff;stroke-width:6;"/>
    <path clip-path="url(#p62c09cd968)" d="M 451.240625 109.855078 
L 469.240625 109.855078 
L 469.240625 127.855078 
L 451.240625 127.855078 
L 451.240625 109.855078 
" style="fill:#d1d1d1;stroke:#ffffff;stroke-width:6;"/>
    <path clip-path="url(#p62c09cd968)" d="M 469.240625 109.855078 
L 487.240625 109.855078 
L 487.240625 127.855078 
L 469.240625 127.855078 
L 469.240625 109.855078 
" style="fill:#d1d1d1;stroke:#ffffff;stroke-width:6;"/>
    <path clip-path="url(#p62c09cd968)" d="M 487.240625 109.855078 
L 505.240625 109.855078 
L 505.240625 127.855078 
L 487.240625 127.855078 
L 487.240625 109.855078 
" style="fill:#d1d1d1;stroke:#ffffff;stroke-width:6;"/>
    <path clip-path="url(#p62c09cd968)" d="M 505.240625 109.855078 
L 523.240625 109.855078 
L 523.240625 127.855078 
L 505.240625 127.855078 
L 505.240625 109.855078 
" style="fill:#d1d1d1;stroke:#ffffff;stroke-width:6;"/>
    <path clip-path="url(#p62c09cd968)" d="M 523.240625 109.855078 
L 541.240625 109.855078 
L 541.240625 127.855078 
L 523.240625 127.855078 
L 523.240625 109.855078 
" style="fill:#353531;stroke:#ffffff;stroke-width:6;"/>
    <path clip-path="url(#p62c09cd968)" d="M 541.240625 109.855078 
L 559.240625 109.855078 
L 559.240625 127.855078 
L 541.240625 127.855078 
L 541.240625 109.855078 
" style="fill:#d1d1d1;stroke:#ffffff;stroke-width:6;"/>
    <path clip-path="url(#p62c09cd968)" d="M 37.240625 127.855078 
L 55.240625 127.855078 
L 55.240625 145.855078 
L 37.240625 145.855078 
L 37.240625 127.855078 
" style="fill:#d1d1d1;stroke:#ffffff;stroke-width:6;"/>
    <path clip-path="url(#p62c09cd968)" d="M 55.240625 127.855078 
L 73.240625 127.855078 
L 73.240625 145.855078 
L 55.240625 145.855078 
L 55.240625 127.855078 
" style="fill:#353531;stroke:#ffffff;stroke-width:6;"/>
    <path clip-path="url(#p62c09cd968)" d="M 73.240625 127.855078 
L 91.240625 127.855078 
L 91.240625 145.855078 
L 73.240625 145.855078 
L 73.240625 127.855078 
" style="fill:#353531;stroke:#ffffff;stroke-width:6;"/>
    <path clip-path="url(#p62c09cd968)" d="M 91.240625 127.855078 
L 109.240625 127.855078 
L 109.240625 145.855078 
L 91.240625 145.855078 
L 91.240625 127.855078 
" style="fill:#d1d1d1;stroke:#ffffff;stroke-width:6;"/>
    <path clip-path="url(#p62c09cd968)" d="M 109.240625 127.855078 
L 127.240625 127.855078 
L 127.240625 145.855078 
L 109.240625 145.855078 
L 109.240625 127.855078 
" style="fill:#d1d1d1;stroke:#ffffff;stroke-width:6;"/>
    <path clip-path="url(#p62c09cd968)" d="M 127.240625 127.855078 
L 145.240625 127.855078 
L 145.240625 145.855078 
L 127.240625 145.855078 
L 127.240625 127.855078 
" style="fill:#d1d1d1;stroke:#ffffff;stroke-width:6;"/>
    <path clip-path="url(#p62c09cd968)" d="M 145.240625 127.855078 
L 163.240625 127.855078 
L 163.240625 145.855078 
L 145.240625 145.855078 
L 145.240625 127.855078 
" style="fill:#d1d1d1;stroke:#ffffff;stroke-width:6;"/>
    <path clip-path="url(#p62c09cd968)" d="M 163.240625 127.855078 
L 181.240625 127.855078 
L 181.240625 145.855078 
L 163.240625 145.855078 
L 163.240625 127.855078 
" style="fill:#353531;stroke:#ffffff;stroke-width:6;"/>
    <path clip-path="url(#p62c09cd968)" d="M 181.240625 127.855078 
L 199.240625 127.855078 
L 199.240625 145.855078 
L 181.240625 145.855078 
L 181.240625 127.855078 
" style="fill:#353531;stroke:#ffffff;stroke-width:6;"/>
    <path clip-path="url(#p62c09cd968)" d="M 199.240625 127.855078 
L 217.240625 127.855078 
L 217.240625 145.855078 
L 199.240625 145.855078 
L 199.240625 127.855078 
" style="fill:#d1d1d1;stroke:#ffffff;stroke-width:6;"/>
    <path clip-path="url(#p62c09cd968)" d="M 217.240625 127.855078 
L 235.240625 127.855078 
L 235.240625 145.855078 
L 217.240625 145.855078 
L 217.240625 127.855078 
" style="fill:#d1d1d1;stroke:#ffffff;stroke-width:6;"/>
    <path clip-path="url(#p62c09cd968)" d="M 235.240625 127.855078 
L 253.240625 127.855078 
L 253.240625 145.855078 
L 235.240625 145.855078 
L 235.240625 127.855078 
" style="fill:#d1d1d1;stroke:#ffffff;stroke-width:6;"/>
    <path clip-path="url(#p62c09cd968)" d="M 253.240625 127.855078 
L 271.240625 127.855078 
L 271.240625 145.855078 
L 253.240625 145.855078 
L 253.240625 127.855078 
" style="fill:#d1d1d1;stroke:#ffffff;stroke-width:6;"/>
    <path clip-path="url(#p62c09cd968)" d="M 271.240625 127.855078 
L 289.240625 127.855078 
L 289.240625 145.855078 
L 271.240625 145.855078 
L 271.240625 127.855078 
" style="fill:#353531;stroke:#ffffff;stroke-width:6;"/>
    <path clip-path="url(#p62c09cd968)" d="M 289.240625 127.855078 
L 307.240625 127.855078 
L 307.240625 145.855078 
L 289.240625 145.855078 
L 289.240625 127.855078 
" style="fill:#353531;stroke:#ffffff;stroke-width:6;"/>
    <path clip-path="url(#p62c09cd968)" d="M 307.240625 127.855078 
L 325.240625 127.855078 
L 325.240625 145.855078 
L 307.240625 145.855078 
L 307.240625 127.855078 
" style="fill:#353531;stroke:#ffffff;stroke-width:6;"/>
    <path clip-path="url(#p62c09cd968)" d="M 325.240625 127.855078 
L 343.240625 127.855078 
L 343.240625 145.855078 
L 325.240625 145.855078 
L 325.240625 127.855078 
" style="fill:#d1d1d1;stroke:#ffffff;stroke-width:6;"/>
    <path clip-path="url(#p62c09cd968)" d="M 343.240625 127.855078 
L 361.240625 127.855078 
L 361.240625 145.855078 
L 343.240625 145.855078 
L 343.240625 127.855078 
" style="fill:#d1d1d1;stroke:#ffffff;stroke-width:6;"/>
    <path clip-path="url(#p62c09cd968)" d="M 361.240625 127.855078 
L 379.240625 127.855078 
L 379.240625 145.855078 
L 361.240625 145.855078 
L 361.240625 127.855078 
" style="fill:#d1d1d1;stroke:#ffffff;stroke-width:6;"/>
    <path clip-path="url(#p62c09cd968)" d="M 379.240625 127.855078 
L 397.240625 127.855078 
L 397.240625 145.855078 
L 379.240625 145.855078 
L 379.240625 127.855078 
" style="fill:#d1d1d1;stroke:#ffffff;stroke-width:6;"/>
    <path clip-path="url(#p62c09cd968)" d="M 397.240625 127.855078 
L 415.240625 127.855078 
L 415.240625 145.855078 
L 397.240625 145.855078 
L 397.240625 127.855078 
" style="fill:#353531;stroke:#ffffff;stroke-width:6;"/>
    <path clip-path="url(#p62c09cd968)" d="M 415.240625 127.855078 
L 433.240625 127.855078 
L 433.240625 145.855078 
L 415.240625 145.855078 
L 415.240625 127.855078 
" style="fill:#353531;stroke:#ffffff;stroke-width:6;"/>
    <path clip-path="url(#p62c09cd968)" d="M 433.240625 127.855078 
L 451.240625 127.855078 
L 451.240625 145.855078 
L 433.240625 145.855078 
L 433.240625 127.855078 
" style="fill:#d1d1d1;stroke:#ffffff;stroke-width:6;"/>
    <path clip-path="url(#p62c09cd968)" d="M 451.240625 127.855078 
L 469.240625 127.855078 
L 469.240625 145.855078 
L 451.240625 145.855078 
L 451.240625 127.855078 
" style="fill:#d1d1d1;stroke:#ffffff;stroke-width:6;"/>
    <path clip-path="url(#p62c09cd968)" d="M 469.240625 127.855078 
L 487.240625 127.855078 
L 487.240625 145.855078 
L 469.240625 145.855078 
L 469.240625 127.855078 
" style="fill:#d1d1d1;stroke:#ffffff;stroke-width:6;"/>
    <path clip-path="url(#p62c09cd968)" d="M 487.240625 127.855078 
L 505.240625 127.855078 
L 505.240625 145.855078 
L 487.240625 145.855078 
L 487.240625 127.855078 
" style="fill:#353531;stroke:#ffffff;stroke-width:6;"/>
    <path clip-path="url(#p62c09cd968)" d="M 505.240625 127.855078 
L 523.240625 127.855078 
L 523.240625 145.855078 
L 505.240625 145.855078 
L 505.240625 127.855078 
" style="fill:#d1d1d1;stroke:#ffffff;stroke-width:6;"/>
    <path clip-path="url(#p62c09cd968)" d="M 523.240625 127.855078 
L 541.240625 127.855078 
L 541.240625 145.855078 
L 523.240625 145.855078 
L 523.240625 127.855078 
" style="fill:#353531;stroke:#ffffff;stroke-width:6;"/>
    <path clip-path="url(#p62c09cd968)" d="M 541.240625 127.855078 
L 559.240625 127.855078 
L 559.240625 145.855078 
L 541.240625 145.855078 
L 541.240625 127.855078 
" style="fill:#d1d1d1;stroke:#ffffff;stroke-width:6;"/>
    <path clip-path="url(#p62c09cd968)" d="M 37.240625 145.855078 
L 55.240625 145.855078 
L 55.240625 163.855078 
L 37.240625 163.855078 
L 37.240625 145.855078 
" style="fill:#d1d1d1;stroke:#ffffff;stroke-width:6;"/>
    <path clip-path="url(#p62c09cd968)" d="M 55.240625 145.855078 
L 73.240625 145.855078 
L 73.240625 163.855078 
L 55.240625 163.855078 
L 55.240625 145.855078 
" style="fill:#d1d1d1;stroke:#ffffff;stroke-width:6;"/>
    <path clip-path="url(#p62c09cd968)" d="M 73.240625 145.855078 
L 91.240625 145.855078 
L 91.240625 163.855078 
L 73.240625 163.855078 
L 73.240625 145.855078 
" style="fill:#d1d1d1;stroke:#ffffff;stroke-width:6;"/>
    <path clip-path="url(#p62c09cd968)" d="M 91.240625 145.855078 
L 109.240625 145.855078 
L 109.240625 163.855078 
L 91.240625 163.855078 
L 91.240625 145.855078 
" style="fill:#d1d1d1;stroke:#ffffff;stroke-width:6;"/>
    <path clip-path="url(#p62c09cd968)" d="M 109.240625 145.855078 
L 127.240625 145.855078 
L 127.240625 163.855078 
L 109.240625 163.855078 
L 109.240625 145.855078 
" style="fill:#d1d1d1;stroke:#ffffff;stroke-width:6;"/>
    <path clip-path="url(#p62c09cd968)" d="M 127.240625 145.855078 
L 145.240625 145.855078 
L 145.240625 163.855078 
L 127.240625 163.855078 
L 127.240625 145.855078 
" style="fill:#d1d1d1;stroke:#ffffff;stroke-width:6;"/>
    <path clip-path="url(#p62c09cd968)" d="M 145.240625 145.855078 
L 163.240625 145.855078 
L 163.240625 163.855078 
L 145.240625 163.855078 
L 145.240625 145.855078 
" style="fill:#d1d1d1;stroke:#ffffff;stroke-width:6;"/>
    <path clip-path="url(#p62c09cd968)" d="M 163.240625 145.855078 
L 181.240625 145.855078 
L 181.240625 163.855078 
L 163.240625 163.855078 
L 163.240625 145.855078 
" style="fill:#d1d1d1;stroke:#ffffff;stroke-width:6;"/>
    <path clip-path="url(#p62c09cd968)" d="M 181.240625 145.855078 
L 199.240625 145.855078 
L 199.240625 163.855078 
L 181.240625 163.855078 
L 181.240625 145.855078 
" style="fill:#d1d1d1;stroke:#ffffff;stroke-width:6;"/>
    <path clip-path="url(#p62c09cd968)" d="M 199.240625 145.855078 
L 217.240625 145.855078 
L 217.240625 163.855078 
L 199.240625 163.855078 
L 199.240625 145.855078 
" style="fill:#d1d1d1;stroke:#ffffff;stroke-width:6;"/>
    <path clip-path="url(#p62c09cd968)" d="M 217.240625 145.855078 
L 235.240625 145.855078 
L 235.240625 163.855078 
L 217.240625 163.855078 
L 217.240625 145.855078 
" style="fill:#d1d1d1;stroke:#ffffff;stroke-width:6;"/>
    <path clip-path="url(#p62c09cd968)" d="M 235.240625 145.855078 
L 253.240625 145.855078 
L 253.240625 163.855078 
L 235.240625 163.855078 
L 235.240625 145.855078 
" style="fill:#d1d1d1;stroke:#ffffff;stroke-width:6;"/>
    <path clip-path="url(#p62c09cd968)" d="M 253.240625 145.855078 
L 271.240625 145.855078 
L 271.240625 163.855078 
L 253.240625 163.855078 
L 253.240625 145.855078 
" style="fill:#d1d1d1;stroke:#ffffff;stroke-width:6;"/>
    <path clip-path="url(#p62c09cd968)" d="M 271.240625 145.855078 
L 289.240625 145.855078 
L 289.240625 163.855078 
L 271.240625 163.855078 
L 271.240625 145.855078 
" style="fill:#d1d1d1;stroke:#ffffff;stroke-width:6;"/>
    <path clip-path="url(#p62c09cd968)" d="M 289.240625 145.855078 
L 307.240625 145.855078 
L 307.240625 163.855078 
L 289.240625 163.855078 
L 289.240625 145.855078 
" style="fill:#d1d1d1;stroke:#ffffff;stroke-width:6;"/>
    <path clip-path="url(#p62c09cd968)" d="M 307.240625 145.855078 
L 325.240625 145.855078 
L 325.240625 163.855078 
L 307.240625 163.855078 
L 307.240625 145.855078 
" style="fill:#d1d1d1;stroke:#ffffff;stroke-width:6;"/>
    <path clip-path="url(#p62c09cd968)" d="M 325.240625 145.855078 
L 343.240625 145.855078 
L 343.240625 163.855078 
L 325.240625 163.855078 
L 325.240625 145.855078 
" style="fill:#d1d1d1;stroke:#ffffff;stroke-width:6;"/>
    <path clip-path="url(#p62c09cd968)" d="M 343.240625 145.855078 
L 361.240625 145.855078 
L 361.240625 163.855078 
L 343.240625 163.855078 
L 343.240625 145.855078 
" style="fill:#d1d1d1;stroke:#ffffff;stroke-width:6;"/>
    <path clip-path="url(#p62c09cd968)" d="M 361.240625 145.855078 
L 379.240625 145.855078 
L 379.240625 163.855078 
L 361.240625 163.855078 
L 361.240625 145.855078 
" style="fill:#d1d1d1;stroke:#ffffff;stroke-width:6;"/>
    <path clip-path="url(#p62c09cd968)" d="M 379.240625 145.855078 
L 397.240625 145.855078 
L 397.240625 163.855078 
L 379.240625 163.855078 
L 379.240625 145.855078 
" style="fill:#d1d1d1;stroke:#ffffff;stroke-width:6;"/>
    <path clip-path="url(#p62c09cd968)" d="M 397.240625 145.855078 
L 415.240625 145.855078 
L 415.240625 163.855078 
L 397.240625 163.855078 
L 397.240625 145.855078 
" style="fill:#353531;stroke:#ffffff;stroke-width:6;"/>
    <path clip-path="url(#p62c09cd968)" d="M 415.240625 145.855078 
L 433.240625 145.855078 
L 433.240625 163.855078 
L 415.240625 163.855078 
L 415.240625 145.855078 
" style="fill:#d1d1d1;stroke:#ffffff;stroke-width:6;"/>
    <path clip-path="url(#p62c09cd968)" d="M 433.240625 145.855078 
L 451.240625 145.855078 
L 451.240625 163.855078 
L 433.240625 163.855078 
L 433.240625 145.855078 
" style="fill:#d1d1d1;stroke:#ffffff;stroke-width:6;"/>
    <path clip-path="url(#p62c09cd968)" d="M 451.240625 145.855078 
L 469.240625 145.855078 
L 469.240625 163.855078 
L 451.240625 163.855078 
L 451.240625 145.855078 
" style="fill:#d1d1d1;stroke:#ffffff;stroke-width:6;"/>
    <path clip-path="url(#p62c09cd968)" d="M 469.240625 145.855078 
L 487.240625 145.855078 
L 487.240625 163.855078 
L 469.240625 163.855078 
L 469.240625 145.855078 
" style="fill:#d1d1d1;stroke:#ffffff;stroke-width:6;"/>
    <path clip-path="url(#p62c09cd968)" d="M 487.240625 145.855078 
L 505.240625 145.855078 
L 505.240625 163.855078 
L 487.240625 163.855078 
L 487.240625 145.855078 
" style="fill:#d1d1d1;stroke:#ffffff;stroke-width:6;"/>
    <path clip-path="url(#p62c09cd968)" d="M 505.240625 145.855078 
L 523.240625 145.855078 
L 523.240625 163.855078 
L 505.240625 163.855078 
L 505.240625 145.855078 
" style="fill:#353531;stroke:#ffffff;stroke-width:6;"/>
    <path clip-path="url(#p62c09cd968)" d="M 523.240625 145.855078 
L 541.240625 145.855078 
L 541.240625 163.855078 
L 523.240625 163.855078 
L 523.240625 145.855078 
" style="fill:#353531;stroke:#ffffff;stroke-width:6;"/>
    <path clip-path="url(#p62c09cd968)" d="M 541.240625 145.855078 
L 559.240625 145.855078 
L 559.240625 163.855078 
L 541.240625 163.855078 
L 541.240625 145.855078 
" style="fill:#d1d1d1;stroke:#ffffff;stroke-width:6;"/>
   </g>
   <g id="patch_3">
    <path clip-path="url(#p62c09cd968)" d="M 128.740625 75.355078 
L 143.740625 75.355078 
L 143.740625 162.355078 
L 128.740625 162.355078 
z
" style="fill:none;stroke:#00ced1;stroke-linejoin:miter;stroke-width:3;"/>
   </g>
   <g id="patch_4">
    <path clip-path="url(#p62c09cd968)" d="M 128.740625 88.855078 
L 145.240625 88.855078 
L 145.240625 94.855078 
L 128.740625 94.855078 
z
" style="fill:#00ced1;"/>
   </g>
   <g id="patch_5">
    <path clip-path="url(#p62c09cd968)" d="M 128.740625 106.855078 
L 145.240625 106.855078 
L 145.240625 112.855078 
L 128.740625 112.855078 
z
" style="fill:#00ced1;"/>
   </g>
   <g id="patch_6">
    <path clip-path="url(#p62c09cd968)" d="M 128.740625 124.855078 
L 145.240625 124.855078 
L 145.240625 130.855078 
L 128.740625 130.855078 
z
" style="fill:#00ced1;"/>
   </g>
   <g id="patch_7">
    <path clip-path="url(#p62c09cd968)" d="M 128.740625 142.855078 
L 145.240625 142.855078 
L 145.240625 148.855078 
L 128.740625 148.855078 
z
" style="fill:#00ced1;"/>
   </g>
   <g id="patch_8">
    <path clip-path="url(#p62c09cd968)" d="M 236.740625 75.355078 
L 251.740625 75.355078 
L 251.740625 162.355078 
L 236.740625 162.355078 
z
" style="fill:none;stroke:#00ced1;stroke-linejoin:miter;stroke-width:3;"/>
   </g>
   <g id="patch_9">
    <path clip-path="url(#p62c09cd968)" d="M 236.740625 88.855078 
L 253.240625 88.855078 
L 253.240625 94.855078 
L 236.740625 94.855078 
z
" style="fill:#00ced1;"/>
   </g>
   <g id="patch_10">
    <path clip-path="url(#p62c09cd968)" d="M 236.740625 106.855078 
L 253.240625 106.855078 
L 253.240625 112.855078 
L 236.740625 112.855078 
z
" style="fill:#00ced1;"/>
   </g>
   <g id="patch_11">
    <path clip-path="url(#p62c09cd968)" d="M 236.740625 124.855078 
L 253.240625 124.855078 
L 253.240625 130.855078 
L 236.740625 130.855078 
z
" style="fill:#00ced1;"/>
   </g>
   <g id="patch_12">
    <path clip-path="url(#p62c09cd968)" d="M 236.740625 142.855078 
L 253.240625 142.855078 
L 253.240625 148.855078 
L 236.740625 148.855078 
z
" style="fill:#00ced1;"/>
   </g>
   <g id="patch_13">
    <path clip-path="url(#p62c09cd968)" d="M 344.740625 75.355078 
L 359.740625 75.355078 
L 359.740625 162.355078 
L 344.740625 162.355078 
z
" style="fill:none;stroke:#00ced1;stroke-linejoin:miter;stroke-width:3;"/>
   </g>
   <g id="patch_14">
    <path clip-path="url(#p62c09cd968)" d="M 344.740625 88.855078 
L 361.240625 88.855078 
L 361.240625 94.855078 
L 344.740625 94.855078 
z
" style="fill:#00ced1;"/>
   </g>
   <g id="patch_15">
    <path clip-path="url(#p62c09cd968)" d="M 344.740625 106.855078 
L 361.240625 106.855078 
L 361.240625 112.855078 
L 344.740625 112.855078 
z
" style="fill:#00ced1;"/>
   </g>
   <g id="patch_16">
    <path clip-path="url(#p62c09cd968)" d="M 344.740625 124.855078 
L 361.240625 124.855078 
L 361.240625 130.855078 
L 344.740625 130.855078 
z
" style="fill:#00ced1;"/>
   </g>
   <g id="patch_17">
    <path clip-path="url(#p62c09cd968)" d="M 344.740625 142.855078 
L 361.240625 142.855078 
L 361.240625 148.855078 
L 344.740625 148.855078 
z
" style="fill:#00ced1;"/>
   </g>
   <g id="patch_18">
    <path clip-path="url(#p62c09cd968)" d="M 452.740625 75.355078 
L 467.740625 75.355078 
L 467.740625 162.355078 
L 452.740625 162.355078 
z
" style="fill:none;stroke:#00ced1;stroke-linejoin:miter;stroke-width:3;"/>
   </g>
   <g id="patch_19">
    <path clip-path="url(#p62c09cd968)" d="M 452.740625 88.855078 
L 469.240625 88.855078 
L 469.240625 94.855078 
L 452.740625 94.855078 
z
" style="fill:#00ced1;"/>
   </g>
   <g id="patch_20">
    <path clip-path="url(#p62c09cd968)" d="M 452.740625 106.855078 
L 469.240625 106.855078 
L 469.240625 112.855078 
L 452.740625 112.855078 
z
" style="fill:#00ced1;"/>
   </g>
   <g id="patch_21">
    <path clip-path="url(#p62c09cd968)" d="M 452.740625 124.855078 
L 469.240625 124.855078 
L 469.240625 130.855078 
L 452.740625 130.855078 
z
" style="fill:#00ced1;"/>
   </g>
   <g id="patch_22">
    <path clip-path="url(#p62c09cd968)" d="M 452.740625 142.855078 
L 469.240625 142.855078 
L 469.240625 148.855078 
L 452.740625 148.855078 
z
" style="fill:#00ced1;"/>
   </g>
   <g id="matplotlib.axis_1">
    <g id="xtick_1">
     <g id="line2d_1"/>
     <g id="text_1">
      <!-- $\hspace{0.01}$ -->
      <g transform="translate(49 169.955078)rotate(-90)scale(0.1 -0.1)"/>
     </g>
    </g>
    <g id="xtick_2">
     <g id="line2d_2"/>
     <g id="text_2">
      <!-- $\hspace{0.02}$ -->
      <g transform="translate(67 170.055078)rotate(-90)scale(0.1 -0.1)"/>
     </g>
    </g>
    <g id="xtick_3">
     <g id="line2d_3"/>
     <g id="text_3">
      <!-- $\hspace{0.03}$ -->
      <g transform="translate(85 170.155078)rotate(-90)scale(0.1 -0.1)"/>
     </g>
    </g>
    <g id="xtick_4">
     <g id="line2d_4"/>
     <g id="text_4">
      <!-- $\hspace{0.04}$ -->
      <g transform="translate(103 170.255078)rotate(-90)scale(0.1 -0.1)"/>
     </g>
    </g>
    <g id="xtick_5">
     <g id="line2d_5"/>
     <g id="text_5">
      <!-- $\hspace{0.05}$ -->
      <g transform="translate(121 170.355078)rotate(-90)scale(0.1 -0.1)"/>
     </g>
    </g>
    <g id="xtick_6">
     <g id="line2d_6"/>
     <g id="text_6">
      <!-- time -->
      <defs>
       <path d="M 18.3125 70.21875 
L 18.3125 54.6875 
L 36.8125 54.6875 
L 36.8125 47.703125 
L 18.3125 47.703125 
L 18.3125 18.015625 
Q 18.3125 11.328125 20.140625 9.421875 
Q 21.96875 7.515625 27.59375 7.515625 
L 36.8125 7.515625 
L 36.8125 0 
L 27.59375 0 
Q 17.1875 0 13.234375 3.875 
Q 9.28125 7.765625 9.28125 18.015625 
L 9.28125 47.703125 
L 2.6875 47.703125 
L 2.6875 54.6875 
L 9.28125 54.6875 
L 9.28125 70.21875 
z
" id="DejaVuSans-116"/>
       <path d="M 9.421875 54.6875 
L 18.40625 54.6875 
L 18.40625 0 
L 9.421875 0 
z
M 9.421875 75.984375 
L 18.40625 75.984375 
L 18.40625 64.59375 
L 9.421875 64.59375 
z
" id="DejaVuSans-105"/>
       <path d="M 52 44.1875 
Q 55.375 50.25 60.0625 53.125 
Q 64.75 56 71.09375 56 
Q 79.640625 56 84.28125 50.015625 
Q 88.921875 44.046875 88.921875 33.015625 
L 88.921875 0 
L 79.890625 0 
L 79.890625 32.71875 
Q 79.890625 40.578125 77.09375 44.375 
Q 74.3125 48.1875 68.609375 48.1875 
Q 61.625 48.1875 57.5625 43.546875 
Q 53.515625 38.921875 53.515625 30.90625 
L 53.515625 0 
L 44.484375 0 
L 44.484375 32.71875 
Q 44.484375 40.625 41.703125 44.40625 
Q 38.921875 48.1875 33.109375 48.1875 
Q 26.21875 48.1875 22.15625 43.53125 
Q 18.109375 38.875 18.109375 30.90625 
L 18.109375 0 
L 9.078125 0 
L 9.078125 54.6875 
L 18.109375 54.6875 
L 18.109375 46.1875 
Q 21.1875 51.21875 25.484375 53.609375 
Q 29.78125 56 35.6875 56 
Q 41.65625 56 45.828125 52.96875 
Q 50 49.953125 52 44.1875 
z
" id="DejaVuSans-109"/>
       <path d="M 56.203125 29.59375 
L 56.203125 25.203125 
L 14.890625 25.203125 
Q 15.484375 15.921875 20.484375 11.0625 
Q 25.484375 6.203125 34.421875 6.203125 
Q 39.59375 6.203125 44.453125 7.46875 
Q 49.3125 8.734375 54.109375 11.28125 
L 54.109375 2.78125 
Q 49.265625 0.734375 44.1875 -0.34375 
Q 39.109375 -1.421875 33.890625 -1.421875 
Q 20.796875 -1.421875 13.15625 6.1875 
Q 5.515625 13.8125 5.515625 26.8125 
Q 5.515625 40.234375 12.765625 48.109375 
Q 20.015625 56 32.328125 56 
Q 43.359375 56 49.78125 48.890625 
Q 56.203125 41.796875 56.203125 29.59375 
z
M 47.21875 32.234375 
Q 47.125 39.59375 43.09375 43.984375 
Q 39.0625 48.390625 32.421875 48.390625 
Q 24.90625 48.390625 20.390625 44.140625 
Q 15.875 39.890625 15.1875 32.171875 
z
" id="DejaVuSans-101"/>
      </defs>
      <g transform="translate(139 192.447266)rotate(-90)scale(0.1 -0.1)">
       <use xlink:href="#DejaVuSans-116"/>
       <use x="39.208984" xlink:href="#DejaVuSans-105"/>
       <use x="66.992188" xlink:href="#DejaVuSans-109"/>
       <use x="164.404297" xlink:href="#DejaVuSans-101"/>
      </g>
     </g>
    </g>
    <g id="xtick_7">
     <g id="line2d_7"/>
     <g id="text_7">
      <!-- $\hspace{0.06}$ -->
      <g transform="translate(157 170.455078)rotate(-90)scale(0.1 -0.1)"/>
     </g>
    </g>
    <g id="xtick_8">
     <g id="line2d_8"/>
     <g id="text_8">
      <!-- $\hspace{0.07}$ -->
      <g transform="translate(175 170.555078)rotate(-90)scale(0.1 -0.1)"/>
     </g>
    </g>
    <g id="xtick_9">
     <g id="line2d_9"/>
     <g id="text_9">
      <!-- $\hspace{0.08}$ -->
      <g transform="translate(193 170.655078)rotate(-90)scale(0.1 -0.1)"/>
     </g>
    </g>
    <g id="xtick_10">
     <g id="line2d_10"/>
     <g id="text_10">
      <!-- $\hspace{0.09}$ -->
      <g transform="translate(211 170.755078)rotate(-90)scale(0.1 -0.1)"/>
     </g>
    </g>
    <g id="xtick_11">
     <g id="line2d_11"/>
     <g id="text_11">
      <!-- $\hspace{0.10}$ -->
      <g transform="translate(229 170.855078)rotate(-90)scale(0.1 -0.1)"/>
     </g>
    </g>
    <g id="xtick_12">
     <g id="line2d_12"/>
     <g id="text_12">
      <!-- is -->
      <defs>
       <path d="M 44.28125 53.078125 
L 44.28125 44.578125 
Q 40.484375 46.53125 36.375 47.5 
Q 32.28125 48.484375 27.875 48.484375 
Q 21.1875 48.484375 17.84375 46.4375 
Q 14.5 44.390625 14.5 40.28125 
Q 14.5 37.15625 16.890625 35.375 
Q 19.28125 33.59375 26.515625 31.984375 
L 29.59375 31.296875 
Q 39.15625 29.25 43.1875 25.515625 
Q 47.21875 21.78125 47.21875 15.09375 
Q 47.21875 7.46875 41.1875 3.015625 
Q 35.15625 -1.421875 24.609375 -1.421875 
Q 20.21875 -1.421875 15.453125 -0.5625 
Q 10.6875 0.296875 5.421875 2 
L 5.421875 11.28125 
Q 10.40625 8.6875 15.234375 7.390625 
Q 20.0625 6.109375 24.8125 6.109375 
Q 31.15625 6.109375 34.5625 8.28125 
Q 37.984375 10.453125 37.984375 14.40625 
Q 37.984375 18.0625 35.515625 20.015625 
Q 33.0625 21.96875 24.703125 23.78125 
L 21.578125 24.515625 
Q 13.234375 26.265625 9.515625 29.90625 
Q 5.8125 33.546875 5.8125 39.890625 
Q 5.8125 47.609375 11.28125 51.796875 
Q 16.75 56 26.8125 56 
Q 31.78125 56 36.171875 55.265625 
Q 40.578125 54.546875 44.28125 53.078125 
z
" id="DejaVuSans-115"/>
      </defs>
      <g transform="translate(247 177.842578)rotate(-90)scale(0.1 -0.1)">
       <use xlink:href="#DejaVuSans-105"/>
       <use x="27.783203" xlink:href="#DejaVuSans-115"/>
      </g>
     </g>
    </g>
    <g id="xtick_13">
     <g id="line2d_13"/>
     <g id="text_13">
      <!-- $\hspace{0.11}$ -->
      <g transform="translate(265 170.955078)rotate(-90)scale(0.1 -0.1)"/>
     </g>
    </g>
    <g id="xtick_14">
     <g id="line2d_14"/>
     <g id="text_14">
      <!-- $\hspace{0.12}$ -->
      <g transform="translate(283 171.055078)rotate(-90)scale(0.1 -0.1)"/>
     </g>
    </g>
    <g id="xtick_15">
     <g id="line2d_15"/>
     <g id="text_15">
      <!-- $\hspace{0.13}$ -->
      <g transform="translate(301 171.155078)rotate(-90)scale(0.1 -0.1)"/>
     </g>
    </g>
    <g id="xtick_16">
     <g id="line2d_16"/>
     <g id="text_16">
      <!-- $\hspace{0.14}$ -->
      <g transform="translate(319 171.255078)rotate(-90)scale(0.1 -0.1)"/>
     </g>
    </g>
    <g id="xtick_17">
     <g id="line2d_17"/>
     <g id="text_17">
      <!-- $\hspace{0.15}$ -->
      <g transform="translate(337 171.355078)rotate(-90)scale(0.1 -0.1)"/>
     </g>
    </g>
    <g id="xtick_18">
     <g id="line2d_18"/>
     <g id="text_18">
      <!-- a -->
      <defs>
       <path d="M 34.28125 27.484375 
Q 23.390625 27.484375 19.1875 25 
Q 14.984375 22.515625 14.984375 16.5 
Q 14.984375 11.71875 18.140625 8.90625 
Q 21.296875 6.109375 26.703125 6.109375 
Q 34.1875 6.109375 38.703125 11.40625 
Q 43.21875 16.703125 43.21875 25.484375 
L 43.21875 27.484375 
z
M 52.203125 31.203125 
L 52.203125 0 
L 43.21875 0 
L 43.21875 8.296875 
Q 40.140625 3.328125 35.546875 0.953125 
Q 30.953125 -1.421875 24.3125 -1.421875 
Q 15.921875 -1.421875 10.953125 3.296875 
Q 6 8.015625 6 15.921875 
Q 6 25.140625 12.171875 29.828125 
Q 18.359375 34.515625 30.609375 34.515625 
L 43.21875 34.515625 
L 43.21875 35.40625 
Q 43.21875 41.609375 39.140625 45 
Q 35.0625 48.390625 27.6875 48.390625 
Q 23 48.390625 18.546875 47.265625 
Q 14.109375 46.140625 10.015625 43.890625 
L 10.015625 52.203125 
Q 14.9375 54.109375 19.578125 55.046875 
Q 24.21875 56 28.609375 56 
Q 40.484375 56 46.34375 49.84375 
Q 52.203125 43.703125 52.203125 31.203125 
z
" id="DejaVuSans-97"/>
      </defs>
      <g transform="translate(355 175.983203)rotate(-90)scale(0.1 -0.1)">
       <use xlink:href="#DejaVuSans-97"/>
      </g>
     </g>
    </g>
    <g id="xtick_19">
     <g id="line2d_19"/>
     <g id="text_19">
      <!-- $\hspace{0.16}$ -->
      <g transform="translate(373 171.455078)rotate(-90)scale(0.1 -0.1)"/>
     </g>
    </g>
    <g id="xtick_20">
     <g id="line2d_20"/>
     <g id="text_20">
      <!-- $\hspace{0.17}$ -->
      <g transform="translate(391 171.555078)rotate(-90)scale(0.1 -0.1)"/>
     </g>
    </g>
    <g id="xtick_21">
     <g id="line2d_21"/>
     <g id="text_21">
      <!-- $\hspace{0.18}$ -->
      <g transform="translate(409 171.655078)rotate(-90)scale(0.1 -0.1)"/>
     </g>
    </g>
    <g id="xtick_22">
     <g id="line2d_22"/>
     <g id="text_22">
      <!-- $\hspace{0.19}$ -->
      <g transform="translate(427 171.755078)rotate(-90)scale(0.1 -0.1)"/>
     </g>
    </g>
    <g id="xtick_23">
     <g id="line2d_23"/>
     <g id="text_23">
      <!-- $\hspace{0.20}$ -->
      <g transform="translate(445 171.855078)rotate(-90)scale(0.1 -0.1)"/>
     </g>
    </g>
    <g id="xtick_24">
     <g id="line2d_24"/>
     <g id="text_24">
      <!-- construct -->
      <defs>
       <path d="M 48.78125 52.59375 
L 48.78125 44.1875 
Q 44.96875 46.296875 41.140625 47.34375 
Q 37.3125 48.390625 33.40625 48.390625 
Q 24.65625 48.390625 19.8125 42.84375 
Q 14.984375 37.3125 14.984375 27.296875 
Q 14.984375 17.28125 19.8125 11.734375 
Q 24.65625 6.203125 33.40625 6.203125 
Q 37.3125 6.203125 41.140625 7.25 
Q 44.96875 8.296875 48.78125 10.40625 
L 48.78125 2.09375 
Q 45.015625 0.34375 40.984375 -0.53125 
Q 36.96875 -1.421875 32.421875 -1.421875 
Q 20.0625 -1.421875 12.78125 6.34375 
Q 5.515625 14.109375 5.515625 27.296875 
Q 5.515625 40.671875 12.859375 48.328125 
Q 20.21875 56 33.015625 56 
Q 37.15625 56 41.109375 55.140625 
Q 45.0625 54.296875 48.78125 52.59375 
z
" id="DejaVuSans-99"/>
       <path d="M 30.609375 48.390625 
Q 23.390625 48.390625 19.1875 42.75 
Q 14.984375 37.109375 14.984375 27.296875 
Q 14.984375 17.484375 19.15625 11.84375 
Q 23.34375 6.203125 30.609375 6.203125 
Q 37.796875 6.203125 41.984375 11.859375 
Q 46.1875 17.53125 46.1875 27.296875 
Q 46.1875 37.015625 41.984375 42.703125 
Q 37.796875 48.390625 30.609375 48.390625 
z
M 30.609375 56 
Q 42.328125 56 49.015625 48.375 
Q 55.71875 40.765625 55.71875 27.296875 
Q 55.71875 13.875 49.015625 6.21875 
Q 42.328125 -1.421875 30.609375 -1.421875 
Q 18.84375 -1.421875 12.171875 6.21875 
Q 5.515625 13.875 5.515625 27.296875 
Q 5.515625 40.765625 12.171875 48.375 
Q 18.84375 56 30.609375 56 
z
" id="DejaVuSans-111"/>
       <path d="M 54.890625 33.015625 
L 54.890625 0 
L 45.90625 0 
L 45.90625 32.71875 
Q 45.90625 40.484375 42.875 44.328125 
Q 39.84375 48.1875 33.796875 48.1875 
Q 26.515625 48.1875 22.3125 43.546875 
Q 18.109375 38.921875 18.109375 30.90625 
L 18.109375 0 
L 9.078125 0 
L 9.078125 54.6875 
L 18.109375 54.6875 
L 18.109375 46.1875 
Q 21.34375 51.125 25.703125 53.5625 
Q 30.078125 56 35.796875 56 
Q 45.21875 56 50.046875 50.171875 
Q 54.890625 44.34375 54.890625 33.015625 
z
" id="DejaVuSans-110"/>
       <path d="M 41.109375 46.296875 
Q 39.59375 47.171875 37.8125 47.578125 
Q 36.03125 48 33.890625 48 
Q 26.265625 48 22.1875 43.046875 
Q 18.109375 38.09375 18.109375 28.8125 
L 18.109375 0 
L 9.078125 0 
L 9.078125 54.6875 
L 18.109375 54.6875 
L 18.109375 46.1875 
Q 20.953125 51.171875 25.484375 53.578125 
Q 30.03125 56 36.53125 56 
Q 37.453125 56 38.578125 55.875 
Q 39.703125 55.765625 41.0625 55.515625 
z
" id="DejaVuSans-114"/>
       <path d="M 8.5 21.578125 
L 8.5 54.6875 
L 17.484375 54.6875 
L 17.484375 21.921875 
Q 17.484375 14.15625 20.5 10.265625 
Q 23.53125 6.390625 29.59375 6.390625 
Q 36.859375 6.390625 41.078125 11.03125 
Q 45.3125 15.671875 45.3125 23.6875 
L 45.3125 54.6875 
L 54.296875 54.6875 
L 54.296875 0 
L 45.3125 0 
L 45.3125 8.40625 
Q 42.046875 3.421875 37.71875 1 
Q 33.40625 -1.421875 27.6875 -1.421875 
Q 18.265625 -1.421875 13.375 4.4375 
Q 8.5 10.296875 8.5 21.578125 
z
M 31.109375 56 
z
" id="DejaVuSans-117"/>
      </defs>
      <g transform="translate(463 216.806641)rotate(-90)scale(0.1 -0.1)">
       <use xlink:href="#DejaVuSans-99"/>
       <use x="54.980469" xlink:href="#DejaVuSans-111"/>
       <use x="116.162109" xlink:href="#DejaVuSans-110"/>
       <use x="179.541016" xlink:href="#DejaVuSans-115"/>
       <use x="231.640625" xlink:href="#DejaVuSans-116"/>
       <use x="270.849609" xlink:href="#DejaVuSans-114"/>
       <use x="311.962891" xlink:href="#DejaVuSans-117"/>
       <use x="375.341797" xlink:href="#DejaVuSans-99"/>
       <use x="430.322266" xlink:href="#DejaVuSans-116"/>
      </g>
     </g>
    </g>
    <g id="xtick_25">
     <g id="line2d_25"/>
     <g id="text_25">
      <!-- $\hspace{0.21}$ -->
      <g transform="translate(481 171.955078)rotate(-90)scale(0.1 -0.1)"/>
     </g>
    </g>
    <g id="xtick_26">
     <g id="line2d_26"/>
     <g id="text_26">
      <!-- $\hspace{0.22}$ -->
      <g transform="translate(499 172.055078)rotate(-90)scale(0.1 -0.1)"/>
     </g>
    </g>
    <g id="xtick_27">
     <g id="line2d_27"/>
     <g id="text_27">
      <!-- $\hspace{0.23}$ -->
      <g transform="translate(517 172.155078)rotate(-90)scale(0.1 -0.1)"/>
     </g>
    </g>
    <g id="xtick_28">
     <g id="line2d_28"/>
     <g id="text_28">
      <!-- $\hspace{0.24}$ -->
      <g transform="translate(535 172.255078)rotate(-90)scale(0.1 -0.1)"/>
     </g>
    </g>
    <g id="xtick_29">
     <g id="line2d_29"/>
     <g id="text_29">
      <!-- $\hspace{0.25}$ -->
      <g transform="translate(553 172.355078)rotate(-90)scale(0.1 -0.1)"/>
     </g>
    </g>
    <g id="text_30">
     <!-- node -->
     <defs>
      <path d="M 45.40625 46.390625 
L 45.40625 75.984375 
L 54.390625 75.984375 
L 54.390625 0 
L 45.40625 0 
L 45.40625 8.203125 
Q 42.578125 3.328125 38.25 0.953125 
Q 33.9375 -1.421875 27.875 -1.421875 
Q 17.96875 -1.421875 11.734375 6.484375 
Q 5.515625 14.40625 5.515625 27.296875 
Q 5.515625 40.1875 11.734375 48.09375 
Q 17.96875 56 27.875 56 
Q 33.9375 56 38.25 53.625 
Q 42.578125 51.265625 45.40625 46.390625 
z
M 14.796875 27.296875 
Q 14.796875 17.390625 18.875 11.75 
Q 22.953125 6.109375 30.078125 6.109375 
Q 37.203125 6.109375 41.296875 11.75 
Q 45.40625 17.390625 45.40625 27.296875 
Q 45.40625 37.203125 41.296875 42.84375 
Q 37.203125 48.484375 30.078125 48.484375 
Q 22.953125 48.484375 18.875 42.84375 
Q 14.796875 37.203125 14.796875 27.296875 
z
" id="DejaVuSans-100"/>
     </defs>
     <g transform="translate(285.761719 232.405078)scale(0.1 -0.1)">
      <use xlink:href="#DejaVuSans-110"/>
      <use x="63.378906" xlink:href="#DejaVuSans-111"/>
      <use x="124.560547" xlink:href="#DejaVuSans-100"/>
      <use x="188.037109" xlink:href="#DejaVuSans-101"/>
     </g>
    </g>
   </g>
   <g id="matplotlib.axis_2">
    <g id="ytick_1">
     <g id="line2d_30"/>
     <g id="text_31">
      <!-- 0 -->
      <defs>
       <path d="M 31.78125 66.40625 
Q 24.171875 66.40625 20.328125 58.90625 
Q 16.5 51.421875 16.5 36.375 
Q 16.5 21.390625 20.328125 13.890625 
Q 24.171875 6.390625 31.78125 6.390625 
Q 39.453125 6.390625 43.28125 13.890625 
Q 47.125 21.390625 47.125 36.375 
Q 47.125 51.421875 43.28125 58.90625 
Q 39.453125 66.40625 31.78125 66.40625 
z
M 31.78125 74.21875 
Q 44.046875 74.21875 50.515625 64.515625 
Q 56.984375 54.828125 56.984375 36.375 
Q 56.984375 17.96875 50.515625 8.265625 
Q 44.046875 -1.421875 31.78125 -1.421875 
Q 19.53125 -1.421875 13.0625 8.265625 
Q 6.59375 17.96875 6.59375 36.375 
Q 6.59375 54.828125 13.0625 64.515625 
Q 19.53125 74.21875 31.78125 74.21875 
z
" id="DejaVuSans-48"/>
      </defs>
      <g transform="translate(24.878125 86.654297)scale(0.1 -0.1)">
       <use xlink:href="#DejaVuSans-48"/>
      </g>
     </g>
    </g>
    <g id="ytick_2">
     <g id="line2d_31"/>
     <g id="text_32">
      <!-- 1 -->
      <defs>
       <path d="M 12.40625 8.296875 
L 28.515625 8.296875 
L 28.515625 63.921875 
L 10.984375 60.40625 
L 10.984375 69.390625 
L 28.421875 72.90625 
L 38.28125 72.90625 
L 38.28125 8.296875 
L 54.390625 8.296875 
L 54.390625 0 
L 12.40625 0 
z
" id="DejaVuSans-49"/>
      </defs>
      <g transform="translate(24.878125 104.654297)scale(0.1 -0.1)">
       <use xlink:href="#DejaVuSans-49"/>
      </g>
     </g>
    </g>
    <g id="ytick_3">
     <g id="line2d_32"/>
     <g id="text_33">
      <!-- 2 -->
      <defs>
       <path d="M 19.1875 8.296875 
L 53.609375 8.296875 
L 53.609375 0 
L 7.328125 0 
L 7.328125 8.296875 
Q 12.9375 14.109375 22.625 23.890625 
Q 32.328125 33.6875 34.8125 36.53125 
Q 39.546875 41.84375 41.421875 45.53125 
Q 43.3125 49.21875 43.3125 52.78125 
Q 43.3125 58.59375 39.234375 62.25 
Q 35.15625 65.921875 28.609375 65.921875 
Q 23.96875 65.921875 18.8125 64.3125 
Q 13.671875 62.703125 7.8125 59.421875 
L 7.8125 69.390625 
Q 13.765625 71.78125 18.9375 73 
Q 24.125 74.21875 28.421875 74.21875 
Q 39.75 74.21875 46.484375 68.546875 
Q 53.21875 62.890625 53.21875 53.421875 
Q 53.21875 48.921875 51.53125 44.890625 
Q 49.859375 40.875 45.40625 35.40625 
Q 44.1875 33.984375 37.640625 27.21875 
Q 31.109375 20.453125 19.1875 8.296875 
z
" id="DejaVuSans-50"/>
      </defs>
      <g transform="translate(24.878125 122.654297)scale(0.1 -0.1)">
       <use xlink:href="#DejaVuSans-50"/>
      </g>
     </g>
    </g>
    <g id="ytick_4">
     <g id="line2d_33"/>
     <g id="text_34">
      <!-- 3 -->
      <defs>
       <path d="M 40.578125 39.3125 
Q 47.65625 37.796875 51.625 33 
Q 55.609375 28.21875 55.609375 21.1875 
Q 55.609375 10.40625 48.1875 4.484375 
Q 40.765625 -1.421875 27.09375 -1.421875 
Q 22.515625 -1.421875 17.65625 -0.515625 
Q 12.796875 0.390625 7.625 2.203125 
L 7.625 11.71875 
Q 11.71875 9.328125 16.59375 8.109375 
Q 21.484375 6.890625 26.8125 6.890625 
Q 36.078125 6.890625 40.9375 10.546875 
Q 45.796875 14.203125 45.796875 21.1875 
Q 45.796875 27.640625 41.28125 31.265625 
Q 36.765625 34.90625 28.71875 34.90625 
L 20.21875 34.90625 
L 20.21875 43.015625 
L 29.109375 43.015625 
Q 36.375 43.015625 40.234375 45.921875 
Q 44.09375 48.828125 44.09375 54.296875 
Q 44.09375 59.90625 40.109375 62.90625 
Q 36.140625 65.921875 28.71875 65.921875 
Q 24.65625 65.921875 20.015625 65.03125 
Q 15.375 64.15625 9.8125 62.3125 
L 9.8125 71.09375 
Q 15.4375 72.65625 20.34375 73.4375 
Q 25.25 74.21875 29.59375 74.21875 
Q 40.828125 74.21875 47.359375 69.109375 
Q 53.90625 64.015625 53.90625 55.328125 
Q 53.90625 49.265625 50.4375 45.09375 
Q 46.96875 40.921875 40.578125 39.3125 
z
" id="DejaVuSans-51"/>
      </defs>
      <g transform="translate(24.878125 140.654297)scale(0.1 -0.1)">
       <use xlink:href="#DejaVuSans-51"/>
      </g>
     </g>
    </g>
    <g id="ytick_5">
     <g id="line2d_34"/>
     <g id="text_35">
      <!-- 4 -->
      <defs>
       <path d="M 37.796875 64.3125 
L 12.890625 25.390625 
L 37.796875 25.390625 
z
M 35.203125 72.90625 
L 47.609375 72.90625 
L 47.609375 25.390625 
L 58.015625 25.390625 
L 58.015625 17.1875 
L 47.609375 17.1875 
L 47.609375 0 
L 37.796875 0 
L 37.796875 17.1875 
L 4.890625 17.1875 
L 4.890625 26.703125 
z
" id="DejaVuSans-52"/>
      </defs>
      <g transform="translate(24.878125 158.654297)scale(0.1 -0.1)">
       <use xlink:href="#DejaVuSans-52"/>
      </g>
     </g>
    </g>
    <g id="text_36">
     <!-- time -->
     <g transform="translate(14.798438 130.151172)rotate(-90)scale(0.1 -0.1)">
      <use xlink:href="#DejaVuSans-116"/>
      <use x="39.208984" xlink:href="#DejaVuSans-105"/>
      <use x="66.992188" xlink:href="#DejaVuSans-109"/>
      <use x="164.404297" xlink:href="#DejaVuSans-101"/>
     </g>
    </g>
   </g>
   <g id="text_37">
    <!-- $\mathrm{\bf{simulation\ 1}}$ -->
    <defs>
     <path d="M 51.125 52.984375 
L 51.125 39.703125 
Q 45.515625 42.046875 40.28125 43.21875 
Q 35.0625 44.390625 30.421875 44.390625 
Q 25.4375 44.390625 23.015625 43.140625 
Q 20.609375 41.890625 20.609375 39.3125 
Q 20.609375 37.203125 22.4375 36.078125 
Q 24.265625 34.96875 29 34.421875 
L 32.078125 33.984375 
Q 45.515625 32.28125 50.140625 28.375 
Q 54.78125 24.46875 54.78125 16.109375 
Q 54.78125 7.375 48.328125 2.96875 
Q 41.890625 -1.421875 29.109375 -1.421875 
Q 23.6875 -1.421875 17.890625 -0.5625 
Q 12.109375 0.296875 6 2 
L 6 15.28125 
Q 11.234375 12.75 16.71875 11.46875 
Q 22.21875 10.203125 27.875 10.203125 
Q 33.015625 10.203125 35.59375 11.609375 
Q 38.1875 13.03125 38.1875 15.828125 
Q 38.1875 18.171875 36.40625 19.3125 
Q 34.625 20.453125 29.296875 21.09375 
L 26.21875 21.484375 
Q 14.546875 22.953125 9.859375 26.90625 
Q 5.171875 30.859375 5.171875 38.921875 
Q 5.171875 47.609375 11.125 51.796875 
Q 17.09375 56 29.390625 56 
Q 34.234375 56 39.546875 55.265625 
Q 44.875 54.546875 51.125 52.984375 
z
" id="DejaVuSans-Bold-115"/>
     <path d="M 8.40625 54.6875 
L 25.875 54.6875 
L 25.875 0 
L 8.40625 0 
z
M 8.40625 75.984375 
L 25.875 75.984375 
L 25.875 61.71875 
L 8.40625 61.71875 
z
" id="DejaVuSans-Bold-105"/>
     <path d="M 59.078125 45.609375 
Q 62.40625 50.6875 66.96875 53.34375 
Q 71.53125 56 77 56 
Q 86.421875 56 91.359375 50.1875 
Q 96.296875 44.390625 96.296875 33.296875 
L 96.296875 0 
L 78.71875 0 
L 78.71875 28.515625 
Q 78.765625 29.15625 78.78125 29.828125 
Q 78.8125 30.515625 78.8125 31.78125 
Q 78.8125 37.59375 77.09375 40.203125 
Q 75.390625 42.828125 71.578125 42.828125 
Q 66.609375 42.828125 63.890625 38.71875 
Q 61.1875 34.625 61.078125 26.859375 
L 61.078125 0 
L 43.5 0 
L 43.5 28.515625 
Q 43.5 37.59375 41.9375 40.203125 
Q 40.375 42.828125 36.375 42.828125 
Q 31.34375 42.828125 28.609375 38.703125 
Q 25.875 34.578125 25.875 26.90625 
L 25.875 0 
L 8.296875 0 
L 8.296875 54.6875 
L 25.875 54.6875 
L 25.875 46.6875 
Q 29.109375 51.3125 33.28125 53.65625 
Q 37.453125 56 42.484375 56 
Q 48.140625 56 52.484375 53.265625 
Q 56.84375 50.53125 59.078125 45.609375 
z
" id="DejaVuSans-Bold-109"/>
     <path d="M 7.8125 21.296875 
L 7.8125 54.6875 
L 25.390625 54.6875 
L 25.390625 49.21875 
Q 25.390625 44.78125 25.34375 38.0625 
Q 25.296875 31.34375 25.296875 29.109375 
Q 25.296875 22.515625 25.640625 19.609375 
Q 25.984375 16.703125 26.8125 15.375 
Q 27.875 13.671875 29.609375 12.734375 
Q 31.34375 11.8125 33.59375 11.8125 
Q 39.0625 11.8125 42.1875 16.015625 
Q 45.3125 20.21875 45.3125 27.6875 
L 45.3125 54.6875 
L 62.796875 54.6875 
L 62.796875 0 
L 45.3125 0 
L 45.3125 7.90625 
Q 41.359375 3.125 36.9375 0.84375 
Q 32.515625 -1.421875 27.203125 -1.421875 
Q 17.71875 -1.421875 12.765625 4.390625 
Q 7.8125 10.203125 7.8125 21.296875 
z
" id="DejaVuSans-Bold-117"/>
     <path d="M 8.40625 75.984375 
L 25.875 75.984375 
L 25.875 0 
L 8.40625 0 
z
" id="DejaVuSans-Bold-108"/>
     <path d="M 32.90625 24.609375 
Q 27.4375 24.609375 24.671875 22.75 
Q 21.921875 20.90625 21.921875 17.28125 
Q 21.921875 13.96875 24.140625 12.078125 
Q 26.375 10.203125 30.328125 10.203125 
Q 35.25 10.203125 38.625 13.734375 
Q 42 17.28125 42 22.609375 
L 42 24.609375 
z
M 59.625 31.203125 
L 59.625 0 
L 42 0 
L 42 8.109375 
Q 38.484375 3.125 34.078125 0.84375 
Q 29.6875 -1.421875 23.390625 -1.421875 
Q 14.890625 -1.421875 9.59375 3.53125 
Q 4.296875 8.5 4.296875 16.40625 
Q 4.296875 26.03125 10.90625 30.515625 
Q 17.53125 35.015625 31.6875 35.015625 
L 42 35.015625 
L 42 36.375 
Q 42 40.53125 38.71875 42.453125 
Q 35.453125 44.390625 28.515625 44.390625 
Q 22.90625 44.390625 18.0625 43.265625 
Q 13.234375 42.140625 9.078125 39.890625 
L 9.078125 53.21875 
Q 14.703125 54.59375 20.359375 55.296875 
Q 26.03125 56 31.6875 56 
Q 46.484375 56 53.046875 50.171875 
Q 59.625 44.34375 59.625 31.203125 
z
" id="DejaVuSans-Bold-97"/>
     <path d="M 27.484375 70.21875 
L 27.484375 54.6875 
L 45.515625 54.6875 
L 45.515625 42.1875 
L 27.484375 42.1875 
L 27.484375 19 
Q 27.484375 15.1875 29 13.84375 
Q 30.515625 12.5 35.015625 12.5 
L 44 12.5 
L 44 0 
L 29 0 
Q 18.65625 0 14.328125 4.3125 
Q 10.015625 8.640625 10.015625 19 
L 10.015625 42.1875 
L 1.3125 42.1875 
L 1.3125 54.6875 
L 10.015625 54.6875 
L 10.015625 70.21875 
z
" id="DejaVuSans-Bold-116"/>
     <path d="M 34.421875 43.5 
Q 28.609375 43.5 25.5625 39.328125 
Q 22.515625 35.15625 22.515625 27.296875 
Q 22.515625 19.4375 25.5625 15.25 
Q 28.609375 11.078125 34.421875 11.078125 
Q 40.140625 11.078125 43.15625 15.25 
Q 46.1875 19.4375 46.1875 27.296875 
Q 46.1875 35.15625 43.15625 39.328125 
Q 40.140625 43.5 34.421875 43.5 
z
M 34.421875 56 
Q 48.53125 56 56.46875 48.375 
Q 64.40625 40.765625 64.40625 27.296875 
Q 64.40625 13.8125 56.46875 6.1875 
Q 48.53125 -1.421875 34.421875 -1.421875 
Q 20.265625 -1.421875 12.28125 6.1875 
Q 4.296875 13.8125 4.296875 27.296875 
Q 4.296875 40.765625 12.28125 48.375 
Q 20.265625 56 34.421875 56 
z
" id="DejaVuSans-Bold-111"/>
     <path d="M 63.375 33.296875 
L 63.375 0 
L 45.796875 0 
L 45.796875 5.421875 
L 45.796875 25.484375 
Q 45.796875 32.5625 45.484375 35.25 
Q 45.171875 37.9375 44.390625 39.203125 
Q 43.359375 40.921875 41.59375 41.875 
Q 39.84375 42.828125 37.59375 42.828125 
Q 32.125 42.828125 29 38.59375 
Q 25.875 34.375 25.875 26.90625 
L 25.875 0 
L 8.40625 0 
L 8.40625 54.6875 
L 25.875 54.6875 
L 25.875 46.6875 
Q 29.828125 51.46875 34.265625 53.734375 
Q 38.71875 56 44.09375 56 
Q 53.5625 56 58.46875 50.1875 
Q 63.375 44.390625 63.375 33.296875 
z
" id="DejaVuSans-Bold-110"/>
     <path d="M 11.71875 12.984375 
L 28.328125 12.984375 
L 28.328125 60.109375 
L 11.28125 56.59375 
L 11.28125 69.390625 
L 28.21875 72.90625 
L 46.09375 72.90625 
L 46.09375 12.984375 
L 62.703125 12.984375 
L 62.703125 0 
L 11.71875 0 
z
" id="DejaVuSans-Bold-49"/>
    </defs>
    <g transform="translate(37.240625 14.798438)scale(0.1 -0.1)">
     <use transform="translate(0 0.015625)" xlink:href="#DejaVuSans-Bold-115"/>
     <use transform="translate(59.521484 0.015625)" xlink:href="#DejaVuSans-Bold-105"/>
     <use transform="translate(93.798828 0.015625)" xlink:href="#DejaVuSans-Bold-109"/>
     <use transform="translate(197.998047 0.015625)" xlink:href="#DejaVuSans-Bold-117"/>
     <use transform="translate(269.189453 0.015625)" xlink:href="#DejaVuSans-Bold-108"/>
     <use transform="translate(303.466797 0.015625)" xlink:href="#DejaVuSans-Bold-97"/>
     <use transform="translate(370.947266 0.015625)" xlink:href="#DejaVuSans-Bold-116"/>
     <use transform="translate(418.75 0.015625)" xlink:href="#DejaVuSans-Bold-105"/>
     <use transform="translate(453.027344 0.015625)" xlink:href="#DejaVuSans-Bold-111"/>
     <use transform="translate(521.728516 0.015625)" xlink:href="#DejaVuSans-Bold-110"/>
     <use transform="translate(627.652647 0.015625)" xlink:href="#DejaVuSans-Bold-49"/>
    </g>
    <!-- of length $4$ -->
    <defs>
     <path d="M 37.109375 75.984375 
L 37.109375 68.5 
L 28.515625 68.5 
Q 23.6875 68.5 21.796875 66.546875 
Q 19.921875 64.59375 19.921875 59.515625 
L 19.921875 54.6875 
L 34.71875 54.6875 
L 34.71875 47.703125 
L 19.921875 47.703125 
L 19.921875 0 
L 10.890625 0 
L 10.890625 47.703125 
L 2.296875 47.703125 
L 2.296875 54.6875 
L 10.890625 54.6875 
L 10.890625 58.5 
Q 10.890625 67.625 15.140625 71.796875 
Q 19.390625 75.984375 28.609375 75.984375 
z
" id="DejaVuSans-102"/>
     <path id="DejaVuSans-32"/>
     <path d="M 9.421875 75.984375 
L 18.40625 75.984375 
L 18.40625 0 
L 9.421875 0 
z
" id="DejaVuSans-108"/>
     <path d="M 45.40625 27.984375 
Q 45.40625 37.75 41.375 43.109375 
Q 37.359375 48.484375 30.078125 48.484375 
Q 22.859375 48.484375 18.828125 43.109375 
Q 14.796875 37.75 14.796875 27.984375 
Q 14.796875 18.265625 18.828125 12.890625 
Q 22.859375 7.515625 30.078125 7.515625 
Q 37.359375 7.515625 41.375 12.890625 
Q 45.40625 18.265625 45.40625 27.984375 
z
M 54.390625 6.78125 
Q 54.390625 -7.171875 48.1875 -13.984375 
Q 42 -20.796875 29.203125 -20.796875 
Q 24.46875 -20.796875 20.265625 -20.09375 
Q 16.0625 -19.390625 12.109375 -17.921875 
L 12.109375 -9.1875 
Q 16.0625 -11.328125 19.921875 -12.34375 
Q 23.78125 -13.375 27.78125 -13.375 
Q 36.625 -13.375 41.015625 -8.765625 
Q 45.40625 -4.15625 45.40625 5.171875 
L 45.40625 9.625 
Q 42.625 4.78125 38.28125 2.390625 
Q 33.9375 0 27.875 0 
Q 17.828125 0 11.671875 7.65625 
Q 5.515625 15.328125 5.515625 27.984375 
Q 5.515625 40.671875 11.671875 48.328125 
Q 17.828125 56 27.875 56 
Q 33.9375 56 38.28125 53.609375 
Q 42.625 51.21875 45.40625 46.390625 
L 45.40625 54.6875 
L 54.390625 54.6875 
z
" id="DejaVuSans-103"/>
     <path d="M 54.890625 33.015625 
L 54.890625 0 
L 45.90625 0 
L 45.90625 32.71875 
Q 45.90625 40.484375 42.875 44.328125 
Q 39.84375 48.1875 33.796875 48.1875 
Q 26.515625 48.1875 22.3125 43.546875 
Q 18.109375 38.921875 18.109375 30.90625 
L 18.109375 0 
L 9.078125 0 
L 9.078125 75.984375 
L 18.109375 75.984375 
L 18.109375 46.1875 
Q 21.34375 51.125 25.703125 53.5625 
Q 30.078125 56 35.796875 56 
Q 45.21875 56 50.046875 50.171875 
Q 54.890625 44.34375 54.890625 33.015625 
z
" id="DejaVuSans-104"/>
    </defs>
    <g transform="translate(37.240625 30.178125)scale(0.1 -0.1)">
     <use transform="translate(0 0.015625)" xlink:href="#DejaVuSans-111"/>
     <use transform="translate(61.181641 0.015625)" xlink:href="#DejaVuSans-102"/>
     <use transform="translate(96.386719 0.015625)" xlink:href="#DejaVuSans-32"/>
     <use transform="translate(128.173828 0.015625)" xlink:href="#DejaVuSans-108"/>
     <use transform="translate(155.957031 0.015625)" xlink:href="#DejaVuSans-101"/>
     <use transform="translate(217.480469 0.015625)" xlink:href="#DejaVuSans-110"/>
     <use transform="translate(280.859375 0.015625)" xlink:href="#DejaVuSans-103"/>
     <use transform="translate(344.335938 0.015625)" xlink:href="#DejaVuSans-116"/>
     <use transform="translate(383.544922 0.015625)" xlink:href="#DejaVuSans-104"/>
     <use transform="translate(446.923828 0.015625)" xlink:href="#DejaVuSans-32"/>
     <use transform="translate(478.710938 0.015625)" xlink:href="#DejaVuSans-52"/>
    </g>
    <!-- with $4$ fixed nodes -->
    <defs>
     <path d="M 4.203125 54.6875 
L 13.1875 54.6875 
L 24.421875 12.015625 
L 35.59375 54.6875 
L 46.1875 54.6875 
L 57.421875 12.015625 
L 68.609375 54.6875 
L 77.59375 54.6875 
L 63.28125 0 
L 52.6875 0 
L 40.921875 44.828125 
L 29.109375 0 
L 18.5 0 
z
" id="DejaVuSans-119"/>
     <path d="M 54.890625 54.6875 
L 35.109375 28.078125 
L 55.90625 0 
L 45.3125 0 
L 29.390625 21.484375 
L 13.484375 0 
L 2.875 0 
L 24.125 28.609375 
L 4.6875 54.6875 
L 15.28125 54.6875 
L 29.78125 35.203125 
L 44.28125 54.6875 
z
" id="DejaVuSans-120"/>
    </defs>
    <g transform="translate(37.240625 45.575391)scale(0.1 -0.1)">
     <use transform="translate(0 0.015625)" xlink:href="#DejaVuSans-119"/>
     <use transform="translate(81.787109 0.015625)" xlink:href="#DejaVuSans-105"/>
     <use transform="translate(109.570312 0.015625)" xlink:href="#DejaVuSans-116"/>
     <use transform="translate(148.779297 0.015625)" xlink:href="#DejaVuSans-104"/>
     <use transform="translate(212.158203 0.015625)" xlink:href="#DejaVuSans-32"/>
     <use transform="translate(243.945312 0.015625)" xlink:href="#DejaVuSans-52"/>
     <use transform="translate(307.568359 0.015625)" xlink:href="#DejaVuSans-32"/>
     <use transform="translate(339.355469 0.015625)" xlink:href="#DejaVuSans-102"/>
     <use transform="translate(374.560547 0.015625)" xlink:href="#DejaVuSans-105"/>
     <use transform="translate(402.34375 0.015625)" xlink:href="#DejaVuSans-120"/>
     <use transform="translate(461.523438 0.015625)" xlink:href="#DejaVuSans-101"/>
     <use transform="translate(523.046875 0.015625)" xlink:href="#DejaVuSans-100"/>
     <use transform="translate(586.523438 0.015625)" xlink:href="#DejaVuSans-32"/>
     <use transform="translate(618.310547 0.015625)" xlink:href="#DejaVuSans-110"/>
     <use transform="translate(681.689453 0.015625)" xlink:href="#DejaVuSans-111"/>
     <use transform="translate(742.871094 0.015625)" xlink:href="#DejaVuSans-100"/>
     <use transform="translate(806.347656 0.015625)" xlink:href="#DejaVuSans-101"/>
     <use transform="translate(867.871094 0.015625)" xlink:href="#DejaVuSans-115"/>
    </g>
    <!-- and $0$ perturbations -->
    <defs>
     <path d="M 18.109375 8.203125 
L 18.109375 -20.796875 
L 9.078125 -20.796875 
L 9.078125 54.6875 
L 18.109375 54.6875 
L 18.109375 46.390625 
Q 20.953125 51.265625 25.265625 53.625 
Q 29.59375 56 35.59375 56 
Q 45.5625 56 51.78125 48.09375 
Q 58.015625 40.1875 58.015625 27.296875 
Q 58.015625 14.40625 51.78125 6.484375 
Q 45.5625 -1.421875 35.59375 -1.421875 
Q 29.59375 -1.421875 25.265625 0.953125 
Q 20.953125 3.328125 18.109375 8.203125 
z
M 48.6875 27.296875 
Q 48.6875 37.203125 44.609375 42.84375 
Q 40.53125 48.484375 33.40625 48.484375 
Q 26.265625 48.484375 22.1875 42.84375 
Q 18.109375 37.203125 18.109375 27.296875 
Q 18.109375 17.390625 22.1875 11.75 
Q 26.265625 6.109375 33.40625 6.109375 
Q 40.53125 6.109375 44.609375 11.75 
Q 48.6875 17.390625 48.6875 27.296875 
z
" id="DejaVuSans-112"/>
     <path d="M 48.6875 27.296875 
Q 48.6875 37.203125 44.609375 42.84375 
Q 40.53125 48.484375 33.40625 48.484375 
Q 26.265625 48.484375 22.1875 42.84375 
Q 18.109375 37.203125 18.109375 27.296875 
Q 18.109375 17.390625 22.1875 11.75 
Q 26.265625 6.109375 33.40625 6.109375 
Q 40.53125 6.109375 44.609375 11.75 
Q 48.6875 17.390625 48.6875 27.296875 
z
M 18.109375 46.390625 
Q 20.953125 51.265625 25.265625 53.625 
Q 29.59375 56 35.59375 56 
Q 45.5625 56 51.78125 48.09375 
Q 58.015625 40.1875 58.015625 27.296875 
Q 58.015625 14.40625 51.78125 6.484375 
Q 45.5625 -1.421875 35.59375 -1.421875 
Q 29.59375 -1.421875 25.265625 0.953125 
Q 20.953125 3.328125 18.109375 8.203125 
L 18.109375 0 
L 9.078125 0 
L 9.078125 75.984375 
L 18.109375 75.984375 
z
" id="DejaVuSans-98"/>
    </defs>
    <g transform="translate(37.240625 60.955078)scale(0.1 -0.1)">
     <use transform="translate(0 0.015625)" xlink:href="#DejaVuSans-97"/>
     <use transform="translate(61.279297 0.015625)" xlink:href="#DejaVuSans-110"/>
     <use transform="translate(124.658203 0.015625)" xlink:href="#DejaVuSans-100"/>
     <use transform="translate(188.134766 0.015625)" xlink:href="#DejaVuSans-32"/>
     <use transform="translate(219.921875 0.015625)" xlink:href="#DejaVuSans-48"/>
     <use transform="translate(283.544922 0.015625)" xlink:href="#DejaVuSans-32"/>
     <use transform="translate(315.332031 0.015625)" xlink:href="#DejaVuSans-112"/>
     <use transform="translate(378.808594 0.015625)" xlink:href="#DejaVuSans-101"/>
     <use transform="translate(440.332031 0.015625)" xlink:href="#DejaVuSans-114"/>
     <use transform="translate(481.445312 0.015625)" xlink:href="#DejaVuSans-116"/>
     <use transform="translate(520.654297 0.015625)" xlink:href="#DejaVuSans-117"/>
     <use transform="translate(584.033203 0.015625)" xlink:href="#DejaVuSans-114"/>
     <use transform="translate(625.146484 0.015625)" xlink:href="#DejaVuSans-98"/>
     <use transform="translate(688.623047 0.015625)" xlink:href="#DejaVuSans-97"/>
     <use transform="translate(749.902344 0.015625)" xlink:href="#DejaVuSans-116"/>
     <use transform="translate(789.111328 0.015625)" xlink:href="#DejaVuSans-105"/>
     <use transform="translate(816.894531 0.015625)" xlink:href="#DejaVuSans-111"/>
     <use transform="translate(878.076172 0.015625)" xlink:href="#DejaVuSans-110"/>
     <use transform="translate(941.455078 0.015625)" xlink:href="#DejaVuSans-115"/>
    </g>
   </g>
   <g id="legend_1">
    <g id="patch_23">
     <path d="M 356.982813 62.335078 
L 559.240625 62.335078 
L 559.240625 18.578828 
L 356.982813 18.578828 
z
" style="fill:#ffffff;stroke:#000000;stroke-linejoin:miter;stroke-width:0.5;"/>
    </g>
    <g id="line2d_35"/>
    <g id="line2d_36">
     <defs>
      <path d="M -6 6 
L 6 6 
L 6 -6 
L -6 -6 
z
" id="mb591f166ec"/>
     </defs>
     <g>
      <use style="fill:#d1d1d1;" x="373.182813" xlink:href="#mb591f166ec" y="29.877266"/>
     </g>
    </g>
    <g id="text_38">
     <!-- node state 0 -->
     <g transform="translate(390.182813 33.377266)scale(0.1 -0.1)">
      <use xlink:href="#DejaVuSans-110"/>
      <use x="63.378906" xlink:href="#DejaVuSans-111"/>
      <use x="124.560547" xlink:href="#DejaVuSans-100"/>
      <use x="188.037109" xlink:href="#DejaVuSans-101"/>
      <use x="249.560547" xlink:href="#DejaVuSans-32"/>
      <use x="281.347656" xlink:href="#DejaVuSans-115"/>
      <use x="333.447266" xlink:href="#DejaVuSans-116"/>
      <use x="372.65625" xlink:href="#DejaVuSans-97"/>
      <use x="433.935547" xlink:href="#DejaVuSans-116"/>
      <use x="473.144531" xlink:href="#DejaVuSans-101"/>
      <use x="534.667969" xlink:href="#DejaVuSans-32"/>
      <use x="566.455078" xlink:href="#DejaVuSans-48"/>
     </g>
    </g>
    <g id="line2d_37"/>
    <g id="line2d_38">
     <defs>
      <path d="M -6 6 
L 6 6 
L 6 -6 
L -6 -6 
z
" id="mbc0cd0ed83"/>
     </defs>
     <g>
      <use style="fill:#353531;" x="373.182813" xlink:href="#mbc0cd0ed83" y="49.555391"/>
     </g>
    </g>
    <g id="text_39">
     <!-- node state 1 -->
     <g transform="translate(390.182813 53.055391)scale(0.1 -0.1)">
      <use xlink:href="#DejaVuSans-110"/>
      <use x="63.378906" xlink:href="#DejaVuSans-111"/>
      <use x="124.560547" xlink:href="#DejaVuSans-100"/>
      <use x="188.037109" xlink:href="#DejaVuSans-101"/>
      <use x="249.560547" xlink:href="#DejaVuSans-32"/>
      <use x="281.347656" xlink:href="#DejaVuSans-115"/>
      <use x="333.447266" xlink:href="#DejaVuSans-116"/>
      <use x="372.65625" xlink:href="#DejaVuSans-97"/>
      <use x="433.935547" xlink:href="#DejaVuSans-116"/>
      <use x="473.144531" xlink:href="#DejaVuSans-101"/>
      <use x="534.667969" xlink:href="#DejaVuSans-32"/>
      <use x="566.455078" xlink:href="#DejaVuSans-49"/>
     </g>
    </g>
    <g id="patch_24">
     <path d="M 473.190625 33.377266 
L 491.190625 33.377266 
L 491.190625 26.377266 
L 473.190625 26.377266 
z
" style="fill:#00ced1;stroke:#00ced1;stroke-linejoin:miter;"/>
    </g>
    <g id="text_40">
     <!-- fixed node -->
     <g transform="translate(499.190625 33.377266)scale(0.1 -0.1)">
      <use xlink:href="#DejaVuSans-102"/>
      <use x="35.205078" xlink:href="#DejaVuSans-105"/>
      <use x="62.988281" xlink:href="#DejaVuSans-120"/>
      <use x="122.121094" xlink:href="#DejaVuSans-101"/>
      <use x="183.644531" xlink:href="#DejaVuSans-100"/>
      <use x="247.121094" xlink:href="#DejaVuSans-32"/>
      <use x="278.908203" xlink:href="#DejaVuSans-110"/>
      <use x="342.287109" xlink:href="#DejaVuSans-111"/>
      <use x="403.46875" xlink:href="#DejaVuSans-100"/>
      <use x="466.945312" xlink:href="#DejaVuSans-101"/>
     </g>
    </g>
   </g>
  </g>
 </g>
 <defs>
  <clipPath id="p62c09cd968">
   <rect height="90" width="522" x="37.240625" y="73.855078"/>
  </clipPath>
 </defs>
</svg>
