<?xml version="1.0" encoding="utf-8" standalone="no"?>
<!DOCTYPE svg PUBLIC "-//W3C//DTD SVG 1.1//EN"
  "http://www.w3.org/Graphics/SVG/1.1/DTD/svg11.dtd">
<!-- Created with matplotlib (http://matplotlib.org/) -->
<svg height="171.672656pt" version="1.1" viewBox="0 0 596.740625 171.672656" width="596.740625pt" xmlns="http://www.w3.org/2000/svg" xmlns:xlink="http://www.w3.org/1999/xlink">
 <defs>
  <style type="text/css">
*{stroke-linecap:butt;stroke-linejoin:round;}
  </style>
 </defs>
 <g id="figure_1">
  <g id="patch_1">
   <path d="M 0 171.672656 
L 596.740625 171.672656 
L 596.740625 0 
L 0 0 
z
" style="fill:#ffffff;"/>
  </g>
  <g id="axes_1">
   <g id="patch_2">
    <path d="M 49.540625 109.832031 
L 589.540625 109.832031 
L 589.540625 73.832031 
L 49.540625 73.832031 
z
" style="fill:#ffffff;"/>
   </g>
   <g id="matplotlib.axis_1">
    <g id="xtick_1">
     <g id="line2d_1"/>
     <g id="text_1">
      <!-- CK0 -->
      <defs>
       <path d="M 64.40625 67.28125 
L 64.40625 56.890625 
Q 59.421875 61.53125 53.78125 63.8125 
Q 48.140625 66.109375 41.796875 66.109375 
Q 29.296875 66.109375 22.65625 58.46875 
Q 16.015625 50.828125 16.015625 36.375 
Q 16.015625 21.96875 22.65625 14.328125 
Q 29.296875 6.6875 41.796875 6.6875 
Q 48.140625 6.6875 53.78125 8.984375 
Q 59.421875 11.28125 64.40625 15.921875 
L 64.40625 5.609375 
Q 59.234375 2.09375 53.4375 0.328125 
Q 47.65625 -1.421875 41.21875 -1.421875 
Q 24.65625 -1.421875 15.125 8.703125 
Q 5.609375 18.84375 5.609375 36.375 
Q 5.609375 53.953125 15.125 64.078125 
Q 24.65625 74.21875 41.21875 74.21875 
Q 47.75 74.21875 53.53125 72.484375 
Q 59.328125 70.75 64.40625 67.28125 
z
" id="DejaVuSans-43"/>
       <path d="M 9.8125 72.90625 
L 19.671875 72.90625 
L 19.671875 42.09375 
L 52.390625 72.90625 
L 65.09375 72.90625 
L 28.90625 38.921875 
L 67.671875 0 
L 54.6875 0 
L 19.671875 35.109375 
L 19.671875 0 
L 9.8125 0 
z
" id="DejaVuSans-4b"/>
       <path d="M 31.78125 66.40625 
Q 24.171875 66.40625 20.328125 58.90625 
Q 16.5 51.421875 16.5 36.375 
Q 16.5 21.390625 20.328125 13.890625 
Q 24.171875 6.390625 31.78125 6.390625 
Q 39.453125 6.390625 43.28125 13.890625 
Q 47.125 21.390625 47.125 36.375 
Q 47.125 51.421875 43.28125 58.90625 
Q 39.453125 66.40625 31.78125 66.40625 
z
M 31.78125 74.21875 
Q 44.046875 74.21875 50.515625 64.515625 
Q 56.984375 54.828125 56.984375 36.375 
Q 56.984375 17.96875 50.515625 8.265625 
Q 44.046875 -1.421875 31.78125 -1.421875 
Q 19.53125 -1.421875 13.0625 8.265625 
Q 6.59375 17.96875 6.59375 36.375 
Q 6.59375 54.828125 13.0625 64.515625 
Q 19.53125 74.21875 31.78125 74.21875 
z
" id="DejaVuSans-30"/>
      </defs>
      <g style="fill:#262626;" transform="translate(61.3 135.735156)rotate(-90)scale(0.1 -0.1)">
       <use xlink:href="#DejaVuSans-43"/>
       <use x="69.824219" xlink:href="#DejaVuSans-4b"/>
       <use x="135.400391" xlink:href="#DejaVuSans-30"/>
      </g>
     </g>
    </g>
    <g id="xtick_2">
     <g id="line2d_2"/>
     <g id="text_2">
      <!-- CK -->
      <g style="fill:#262626;" transform="translate(79.3 129.372656)rotate(-90)scale(0.1 -0.1)">
       <use xlink:href="#DejaVuSans-43"/>
       <use x="69.824219" xlink:href="#DejaVuSans-4b"/>
      </g>
     </g>
    </g>
    <g id="xtick_3">
     <g id="line2d_3"/>
     <g id="text_3">
      <!-- AHK -->
      <defs>
       <path d="M 34.1875 63.1875 
L 20.796875 26.90625 
L 47.609375 26.90625 
z
M 28.609375 72.90625 
L 39.796875 72.90625 
L 67.578125 0 
L 57.328125 0 
L 50.6875 18.703125 
L 17.828125 18.703125 
L 11.1875 0 
L 0.78125 0 
z
" id="DejaVuSans-41"/>
       <path d="M 9.8125 72.90625 
L 19.671875 72.90625 
L 19.671875 43.015625 
L 55.515625 43.015625 
L 55.515625 72.90625 
L 65.375 72.90625 
L 65.375 0 
L 55.515625 0 
L 55.515625 34.71875 
L 19.671875 34.71875 
L 19.671875 0 
L 9.8125 0 
z
" id="DejaVuSans-48"/>
      </defs>
      <g style="fill:#262626;" transform="translate(97.3 136.750781)rotate(-90)scale(0.1 -0.1)">
       <use xlink:href="#DejaVuSans-41"/>
       <use x="68.408203" xlink:href="#DejaVuSans-48"/>
       <use x="143.603516" xlink:href="#DejaVuSans-4b"/>
      </g>
     </g>
    </g>
    <g id="xtick_4">
     <g id="line2d_4"/>
     <g id="text_4">
      <!-- AHP -->
      <defs>
       <path d="M 19.671875 64.796875 
L 19.671875 37.40625 
L 32.078125 37.40625 
Q 38.96875 37.40625 42.71875 40.96875 
Q 46.484375 44.53125 46.484375 51.125 
Q 46.484375 57.671875 42.71875 61.234375 
Q 38.96875 64.796875 32.078125 64.796875 
z
M 9.8125 72.90625 
L 32.078125 72.90625 
Q 44.34375 72.90625 50.609375 67.359375 
Q 56.890625 61.8125 56.890625 51.125 
Q 56.890625 40.328125 50.609375 34.8125 
Q 44.34375 29.296875 32.078125 29.296875 
L 19.671875 29.296875 
L 19.671875 0 
L 9.8125 0 
z
" id="DejaVuSans-50"/>
      </defs>
      <g style="fill:#262626;" transform="translate(115.3 136.222656)rotate(-90)scale(0.1 -0.1)">
       <use xlink:href="#DejaVuSans-41"/>
       <use x="68.408203" xlink:href="#DejaVuSans-48"/>
       <use x="143.603516" xlink:href="#DejaVuSans-50"/>
      </g>
     </g>
    </g>
    <g id="xtick_5">
     <g id="line2d_5"/>
     <g id="text_5">
      <!-- BARR -->
      <defs>
       <path d="M 19.671875 34.8125 
L 19.671875 8.109375 
L 35.5 8.109375 
Q 43.453125 8.109375 47.28125 11.40625 
Q 51.125 14.703125 51.125 21.484375 
Q 51.125 28.328125 47.28125 31.5625 
Q 43.453125 34.8125 35.5 34.8125 
z
M 19.671875 64.796875 
L 19.671875 42.828125 
L 34.28125 42.828125 
Q 41.5 42.828125 45.03125 45.53125 
Q 48.578125 48.25 48.578125 53.8125 
Q 48.578125 59.328125 45.03125 62.0625 
Q 41.5 64.796875 34.28125 64.796875 
z
M 9.8125 72.90625 
L 35.015625 72.90625 
Q 46.296875 72.90625 52.390625 68.21875 
Q 58.5 63.53125 58.5 54.890625 
Q 58.5 48.1875 55.375 44.234375 
Q 52.25 40.28125 46.1875 39.3125 
Q 53.46875 37.75 57.5 32.78125 
Q 61.53125 27.828125 61.53125 20.40625 
Q 61.53125 10.640625 54.890625 5.3125 
Q 48.25 0 35.984375 0 
L 9.8125 0 
z
" id="DejaVuSans-42"/>
       <path d="M 44.390625 34.1875 
Q 47.5625 33.109375 50.5625 29.59375 
Q 53.5625 26.078125 56.59375 19.921875 
L 66.609375 0 
L 56 0 
L 46.6875 18.703125 
Q 43.0625 26.03125 39.671875 28.421875 
Q 36.28125 30.8125 30.421875 30.8125 
L 19.671875 30.8125 
L 19.671875 0 
L 9.8125 0 
L 9.8125 72.90625 
L 32.078125 72.90625 
Q 44.578125 72.90625 50.734375 67.671875 
Q 56.890625 62.453125 56.890625 51.90625 
Q 56.890625 45.015625 53.6875 40.46875 
Q 50.484375 35.9375 44.390625 34.1875 
z
M 19.671875 64.796875 
L 19.671875 38.921875 
L 32.078125 38.921875 
Q 39.203125 38.921875 42.84375 42.21875 
Q 46.484375 45.515625 46.484375 51.90625 
Q 46.484375 58.296875 42.84375 61.546875 
Q 39.203125 64.796875 32.078125 64.796875 
z
" id="DejaVuSans-52"/>
      </defs>
      <g style="fill:#262626;" transform="translate(133.3 143.430469)rotate(-90)scale(0.1 -0.1)">
       <use xlink:href="#DejaVuSans-42"/>
       <use x="68.603516" xlink:href="#DejaVuSans-41"/>
       <use x="137.011719" xlink:href="#DejaVuSans-52"/>
       <use x="206.494141" xlink:href="#DejaVuSans-52"/>
      </g>
     </g>
    </g>
    <g id="xtick_6">
     <g id="line2d_6"/>
     <g id="text_6">
      <!-- IPT -->
      <defs>
       <path d="M 9.8125 72.90625 
L 19.671875 72.90625 
L 19.671875 0 
L 9.8125 0 
z
" id="DejaVuSans-49"/>
       <path d="M -0.296875 72.90625 
L 61.375 72.90625 
L 61.375 64.59375 
L 35.5 64.59375 
L 35.5 0 
L 25.59375 0 
L 25.59375 64.59375 
L -0.296875 64.59375 
z
" id="DejaVuSans-54"/>
      </defs>
      <g style="fill:#262626;" transform="translate(151.3 130.919531)rotate(-90)scale(0.1 -0.1)">
       <use xlink:href="#DejaVuSans-49"/>
       <use x="29.492188" xlink:href="#DejaVuSans-50"/>
       <use x="89.794922" xlink:href="#DejaVuSans-54"/>
      </g>
     </g>
    </g>
    <g id="xtick_7">
     <g id="line2d_7"/>
     <g id="text_7">
      <!-- PIN -->
      <defs>
       <path d="M 9.8125 72.90625 
L 23.09375 72.90625 
L 55.421875 11.921875 
L 55.421875 72.90625 
L 64.984375 72.90625 
L 64.984375 0 
L 51.703125 0 
L 19.390625 60.984375 
L 19.390625 0 
L 9.8125 0 
z
" id="DejaVuSans-4e"/>
      </defs>
      <g style="fill:#262626;" transform="translate(169.3 132.292969)rotate(-90)scale(0.1 -0.1)">
       <use xlink:href="#DejaVuSans-50"/>
       <use x="60.302734" xlink:href="#DejaVuSans-49"/>
       <use x="89.794922" xlink:href="#DejaVuSans-4e"/>
      </g>
     </g>
    </g>
    <g id="xtick_8">
     <g id="line2d_8"/>
     <g id="text_8">
      <!-- CKX -->
      <defs>
       <path d="M 6.296875 72.90625 
L 16.890625 72.90625 
L 35.015625 45.796875 
L 53.21875 72.90625 
L 63.8125 72.90625 
L 40.375 37.890625 
L 65.375 0 
L 54.78125 0 
L 34.28125 31 
L 13.625 0 
L 2.984375 0 
L 29 38.921875 
z
" id="DejaVuSans-58"/>
      </defs>
      <g style="fill:#262626;" transform="translate(187.3 136.222656)rotate(-90)scale(0.1 -0.1)">
       <use xlink:href="#DejaVuSans-43"/>
       <use x="69.824219" xlink:href="#DejaVuSans-4b"/>
       <use x="135.400391" xlink:href="#DejaVuSans-58"/>
      </g>
     </g>
    </g>
    <g id="xtick_9">
     <g id="line2d_9"/>
     <g id="text_9">
      <!-- AARR -->
      <g style="fill:#262626;" transform="translate(205.3 143.413281)rotate(-90)scale(0.1 -0.1)">
       <use xlink:href="#DejaVuSans-41"/>
       <use x="68.439453" xlink:href="#DejaVuSans-41"/>
       <use x="136.847656" xlink:href="#DejaVuSans-52"/>
       <use x="206.330078" xlink:href="#DejaVuSans-52"/>
      </g>
     </g>
    </g>
    <g id="xtick_10">
     <g id="line2d_10"/>
     <g id="text_10">
      <!-- ERF -->
      <defs>
       <path d="M 9.8125 72.90625 
L 55.90625 72.90625 
L 55.90625 64.59375 
L 19.671875 64.59375 
L 19.671875 43.015625 
L 54.390625 43.015625 
L 54.390625 34.71875 
L 19.671875 34.71875 
L 19.671875 8.296875 
L 56.78125 8.296875 
L 56.78125 0 
L 9.8125 0 
z
" id="DejaVuSans-45"/>
       <path d="M 9.8125 72.90625 
L 51.703125 72.90625 
L 51.703125 64.59375 
L 19.671875 64.59375 
L 19.671875 43.109375 
L 48.578125 43.109375 
L 48.578125 34.8125 
L 19.671875 34.8125 
L 19.671875 0 
L 9.8125 0 
z
" id="DejaVuSans-46"/>
      </defs>
      <g style="fill:#262626;" transform="translate(223.3 134.850781)rotate(-90)scale(0.1 -0.1)">
       <use xlink:href="#DejaVuSans-45"/>
       <use x="63.183594" xlink:href="#DejaVuSans-52"/>
       <use x="132.666016" xlink:href="#DejaVuSans-46"/>
      </g>
     </g>
    </g>
    <g id="xtick_11">
     <g id="line2d_11"/>
     <g id="text_11">
      <!-- AHP6 -->
      <defs>
       <path d="M 33.015625 40.375 
Q 26.375 40.375 22.484375 35.828125 
Q 18.609375 31.296875 18.609375 23.390625 
Q 18.609375 15.53125 22.484375 10.953125 
Q 26.375 6.390625 33.015625 6.390625 
Q 39.65625 6.390625 43.53125 10.953125 
Q 47.40625 15.53125 47.40625 23.390625 
Q 47.40625 31.296875 43.53125 35.828125 
Q 39.65625 40.375 33.015625 40.375 
z
M 52.59375 71.296875 
L 52.59375 62.3125 
Q 48.875 64.0625 45.09375 64.984375 
Q 41.3125 65.921875 37.59375 65.921875 
Q 27.828125 65.921875 22.671875 59.328125 
Q 17.53125 52.734375 16.796875 39.40625 
Q 19.671875 43.65625 24.015625 45.921875 
Q 28.375 48.1875 33.59375 48.1875 
Q 44.578125 48.1875 50.953125 41.515625 
Q 57.328125 34.859375 57.328125 23.390625 
Q 57.328125 12.15625 50.6875 5.359375 
Q 44.046875 -1.421875 33.015625 -1.421875 
Q 20.359375 -1.421875 13.671875 8.265625 
Q 6.984375 17.96875 6.984375 36.375 
Q 6.984375 53.65625 15.1875 63.9375 
Q 23.390625 74.21875 37.203125 74.21875 
Q 40.921875 74.21875 44.703125 73.484375 
Q 48.484375 72.75 52.59375 71.296875 
z
" id="DejaVuSans-36"/>
      </defs>
      <g style="fill:#262626;" transform="translate(241.3 142.585156)rotate(-90)scale(0.1 -0.1)">
       <use xlink:href="#DejaVuSans-41"/>
       <use x="68.408203" xlink:href="#DejaVuSans-48"/>
       <use x="143.603516" xlink:href="#DejaVuSans-50"/>
       <use x="203.90625" xlink:href="#DejaVuSans-36"/>
      </g>
     </g>
    </g>
    <g id="xtick_12">
     <g id="line2d_12"/>
     <g id="text_12">
      <!-- TDIF -->
      <defs>
       <path d="M 19.671875 64.796875 
L 19.671875 8.109375 
L 31.59375 8.109375 
Q 46.6875 8.109375 53.6875 14.9375 
Q 60.6875 21.78125 60.6875 36.53125 
Q 60.6875 51.171875 53.6875 57.984375 
Q 46.6875 64.796875 31.59375 64.796875 
z
M 9.8125 72.90625 
L 30.078125 72.90625 
Q 51.265625 72.90625 61.171875 64.09375 
Q 71.09375 55.28125 71.09375 36.53125 
Q 71.09375 17.671875 61.125 8.828125 
Q 51.171875 0 30.078125 0 
L 9.8125 0 
z
" id="DejaVuSans-44"/>
      </defs>
      <g style="fill:#262626;" transform="translate(259.3 138.341406)rotate(-90)scale(0.1 -0.1)">
       <use xlink:href="#DejaVuSans-54"/>
       <use x="61.083984" xlink:href="#DejaVuSans-44"/>
       <use x="138.085938" xlink:href="#DejaVuSans-49"/>
       <use x="167.578125" xlink:href="#DejaVuSans-46"/>
      </g>
     </g>
    </g>
    <g id="xtick_13">
     <g id="line2d_13"/>
     <g id="text_13">
      <!-- PXY -->
      <defs>
       <path d="M -0.203125 72.90625 
L 10.40625 72.90625 
L 30.609375 42.921875 
L 50.6875 72.90625 
L 61.28125 72.90625 
L 35.5 34.71875 
L 35.5 0 
L 25.59375 0 
L 25.59375 34.71875 
z
" id="DejaVuSans-59"/>
      </defs>
      <g style="fill:#262626;" transform="translate(277.3 134.819531)rotate(-90)scale(0.1 -0.1)">
       <use xlink:href="#DejaVuSans-50"/>
       <use x="60.302734" xlink:href="#DejaVuSans-58"/>
       <use x="128.808594" xlink:href="#DejaVuSans-59"/>
      </g>
     </g>
    </g>
    <g id="xtick_14">
     <g id="line2d_14"/>
     <g id="text_14">
      <!-- IAA0 -->
      <g style="fill:#262626;" transform="translate(295.3 138.828906)rotate(-90)scale(0.1 -0.1)">
       <use xlink:href="#DejaVuSans-49"/>
       <use x="29.492188" xlink:href="#DejaVuSans-41"/>
       <use x="97.931641" xlink:href="#DejaVuSans-41"/>
       <use x="166.339844" xlink:href="#DejaVuSans-30"/>
      </g>
     </g>
    </g>
    <g id="xtick_15">
     <g id="line2d_15"/>
     <g id="text_15">
      <!-- IAA -->
      <g style="fill:#262626;" transform="translate(313.3 132.466406)rotate(-90)scale(0.1 -0.1)">
       <use xlink:href="#DejaVuSans-49"/>
       <use x="29.492188" xlink:href="#DejaVuSans-41"/>
       <use x="97.931641" xlink:href="#DejaVuSans-41"/>
      </g>
     </g>
    </g>
    <g id="xtick_16">
     <g id="line2d_16"/>
     <g id="text_16">
      <!-- BR -->
      <g style="fill:#262626;" transform="translate(331.3 129.641406)rotate(-90)scale(0.1 -0.1)">
       <use xlink:href="#DejaVuSans-42"/>
       <use x="68.603516" xlink:href="#DejaVuSans-52"/>
      </g>
     </g>
    </g>
    <g id="xtick_17">
     <g id="line2d_17"/>
     <g id="text_17">
      <!-- BZR1 -->
      <defs>
       <path d="M 5.609375 72.90625 
L 62.890625 72.90625 
L 62.890625 65.375 
L 16.796875 8.296875 
L 64.015625 8.296875 
L 64.015625 0 
L 4.5 0 
L 4.5 7.515625 
L 50.59375 64.59375 
L 5.609375 64.59375 
z
" id="DejaVuSans-5a"/>
       <path d="M 12.40625 8.296875 
L 28.515625 8.296875 
L 28.515625 63.921875 
L 10.984375 60.40625 
L 10.984375 69.390625 
L 28.421875 72.90625 
L 38.28125 72.90625 
L 38.28125 8.296875 
L 54.390625 8.296875 
L 54.390625 0 
L 12.40625 0 
z
" id="DejaVuSans-31"/>
      </defs>
      <g style="fill:#262626;" transform="translate(349.3 142.853906)rotate(-90)scale(0.1 -0.1)">
       <use xlink:href="#DejaVuSans-42"/>
       <use x="68.603516" xlink:href="#DejaVuSans-5a"/>
       <use x="137.109375" xlink:href="#DejaVuSans-52"/>
       <use x="206.591797" xlink:href="#DejaVuSans-31"/>
      </g>
     </g>
    </g>
    <g id="xtick_18">
     <g id="line2d_18"/>
     <g id="text_18">
      <!-- STM -->
      <defs>
       <path d="M 53.515625 70.515625 
L 53.515625 60.890625 
Q 47.90625 63.578125 42.921875 64.890625 
Q 37.9375 66.21875 33.296875 66.21875 
Q 25.25 66.21875 20.875 63.09375 
Q 16.5 59.96875 16.5 54.203125 
Q 16.5 49.359375 19.40625 46.890625 
Q 22.3125 44.4375 30.421875 42.921875 
L 36.375 41.703125 
Q 47.40625 39.59375 52.65625 34.296875 
Q 57.90625 29 57.90625 20.125 
Q 57.90625 9.515625 50.796875 4.046875 
Q 43.703125 -1.421875 29.984375 -1.421875 
Q 24.8125 -1.421875 18.96875 -0.25 
Q 13.140625 0.921875 6.890625 3.21875 
L 6.890625 13.375 
Q 12.890625 10.015625 18.65625 8.296875 
Q 24.421875 6.59375 29.984375 6.59375 
Q 38.421875 6.59375 43.015625 9.90625 
Q 47.609375 13.234375 47.609375 19.390625 
Q 47.609375 24.75 44.3125 27.78125 
Q 41.015625 30.8125 33.5 32.328125 
L 27.484375 33.5 
Q 16.453125 35.6875 11.515625 40.375 
Q 6.59375 45.0625 6.59375 53.421875 
Q 6.59375 63.09375 13.40625 68.65625 
Q 20.21875 74.21875 32.171875 74.21875 
Q 37.3125 74.21875 42.625 73.28125 
Q 47.953125 72.359375 53.515625 70.515625 
z
" id="DejaVuSans-53"/>
       <path d="M 9.8125 72.90625 
L 24.515625 72.90625 
L 43.109375 23.296875 
L 61.8125 72.90625 
L 76.515625 72.90625 
L 76.515625 0 
L 66.890625 0 
L 66.890625 64.015625 
L 48.09375 14.015625 
L 38.1875 14.015625 
L 19.390625 64.015625 
L 19.390625 0 
L 9.8125 0 
z
" id="DejaVuSans-4d"/>
      </defs>
      <g style="fill:#262626;" transform="translate(367.3 136.916406)rotate(-90)scale(0.1 -0.1)">
       <use xlink:href="#DejaVuSans-53"/>
       <use x="63.476562" xlink:href="#DejaVuSans-54"/>
       <use x="124.560547" xlink:href="#DejaVuSans-4d"/>
      </g>
     </g>
    </g>
    <g id="xtick_19">
     <g id="line2d_19"/>
     <g id="text_19">
      <!-- GA -->
      <defs>
       <path d="M 59.515625 10.40625 
L 59.515625 29.984375 
L 43.40625 29.984375 
L 43.40625 38.09375 
L 69.28125 38.09375 
L 69.28125 6.78125 
Q 63.578125 2.734375 56.6875 0.65625 
Q 49.8125 -1.421875 42 -1.421875 
Q 24.90625 -1.421875 15.25 8.5625 
Q 5.609375 18.5625 5.609375 36.375 
Q 5.609375 54.25 15.25 64.234375 
Q 24.90625 74.21875 42 74.21875 
Q 49.125 74.21875 55.546875 72.453125 
Q 61.96875 70.703125 67.390625 67.28125 
L 67.390625 56.78125 
Q 61.921875 61.421875 55.765625 63.765625 
Q 49.609375 66.109375 42.828125 66.109375 
Q 29.4375 66.109375 22.71875 58.640625 
Q 16.015625 51.171875 16.015625 36.375 
Q 16.015625 21.625 22.71875 14.15625 
Q 29.4375 6.6875 42.828125 6.6875 
Q 48.046875 6.6875 52.140625 7.59375 
Q 56.25 8.5 59.515625 10.40625 
z
" id="DejaVuSans-47"/>
      </defs>
      <g style="fill:#262626;" transform="translate(385.3 130.421094)rotate(-90)scale(0.1 -0.1)">
       <use xlink:href="#DejaVuSans-47"/>
       <use x="77.490234" xlink:href="#DejaVuSans-41"/>
      </g>
     </g>
    </g>
    <g id="xtick_20">
     <g id="line2d_20"/>
     <g id="text_20">
      <!-- GID1 -->
      <g style="fill:#262626;" transform="translate(403.3 140.592969)rotate(-90)scale(0.1 -0.1)">
       <use xlink:href="#DejaVuSans-47"/>
       <use x="77.490234" xlink:href="#DejaVuSans-49"/>
       <use x="106.982422" xlink:href="#DejaVuSans-44"/>
       <use x="183.984375" xlink:href="#DejaVuSans-31"/>
      </g>
     </g>
    </g>
    <g id="xtick_21">
     <g id="line2d_21"/>
     <g id="text_21">
      <!-- ETHL -->
      <defs>
       <path d="M 9.8125 72.90625 
L 19.671875 72.90625 
L 19.671875 8.296875 
L 55.171875 8.296875 
L 55.171875 0 
L 9.8125 0 
z
" id="DejaVuSans-4c"/>
      </defs>
      <g style="fill:#262626;" transform="translate(421.3 141.350781)rotate(-90)scale(0.1 -0.1)">
       <use xlink:href="#DejaVuSans-45"/>
       <use x="63.183594" xlink:href="#DejaVuSans-54"/>
       <use x="124.267578" xlink:href="#DejaVuSans-48"/>
       <use x="199.462891" xlink:href="#DejaVuSans-4c"/>
      </g>
     </g>
    </g>
    <g id="xtick_22">
     <g id="line2d_22"/>
     <g id="text_22">
      <!-- ARF -->
      <g style="fill:#262626;" transform="translate(439.3 135.372656)rotate(-90)scale(0.1 -0.1)">
       <use xlink:href="#DejaVuSans-41"/>
       <use x="68.408203" xlink:href="#DejaVuSans-52"/>
       <use x="137.890625" xlink:href="#DejaVuSans-46"/>
      </g>
     </g>
    </g>
    <g id="xtick_23">
     <g id="line2d_23"/>
     <g id="text_23">
      <!-- HB8 -->
      <defs>
       <path d="M 31.78125 34.625 
Q 24.75 34.625 20.71875 30.859375 
Q 16.703125 27.09375 16.703125 20.515625 
Q 16.703125 13.921875 20.71875 10.15625 
Q 24.75 6.390625 31.78125 6.390625 
Q 38.8125 6.390625 42.859375 10.171875 
Q 46.921875 13.96875 46.921875 20.515625 
Q 46.921875 27.09375 42.890625 30.859375 
Q 38.875 34.625 31.78125 34.625 
z
M 21.921875 38.8125 
Q 15.578125 40.375 12.03125 44.71875 
Q 8.5 49.078125 8.5 55.328125 
Q 8.5 64.0625 14.71875 69.140625 
Q 20.953125 74.21875 31.78125 74.21875 
Q 42.671875 74.21875 48.875 69.140625 
Q 55.078125 64.0625 55.078125 55.328125 
Q 55.078125 49.078125 51.53125 44.71875 
Q 48 40.375 41.703125 38.8125 
Q 48.828125 37.15625 52.796875 32.3125 
Q 56.78125 27.484375 56.78125 20.515625 
Q 56.78125 9.90625 50.3125 4.234375 
Q 43.84375 -1.421875 31.78125 -1.421875 
Q 19.734375 -1.421875 13.25 4.234375 
Q 6.78125 9.90625 6.78125 20.515625 
Q 6.78125 27.484375 10.78125 32.3125 
Q 14.796875 37.15625 21.921875 38.8125 
z
M 18.3125 54.390625 
Q 18.3125 48.734375 21.84375 45.5625 
Q 25.390625 42.390625 31.78125 42.390625 
Q 38.140625 42.390625 41.71875 45.5625 
Q 45.3125 48.734375 45.3125 54.390625 
Q 45.3125 60.0625 41.71875 63.234375 
Q 38.140625 66.40625 31.78125 66.40625 
Q 25.390625 66.40625 21.84375 63.234375 
Q 18.3125 60.0625 18.3125 54.390625 
z
" id="DejaVuSans-38"/>
      </defs>
      <g style="fill:#262626;" transform="translate(457.3 136.575781)rotate(-90)scale(0.1 -0.1)">
       <use xlink:href="#DejaVuSans-48"/>
       <use x="75.195312" xlink:href="#DejaVuSans-42"/>
       <use x="143.798828" xlink:href="#DejaVuSans-38"/>
      </g>
     </g>
    </g>
    <g id="xtick_24">
     <g id="line2d_24"/>
     <g id="text_24">
      <!-- TMO5 -->
      <defs>
       <path d="M 39.40625 66.21875 
Q 28.65625 66.21875 22.328125 58.203125 
Q 16.015625 50.203125 16.015625 36.375 
Q 16.015625 22.609375 22.328125 14.59375 
Q 28.65625 6.59375 39.40625 6.59375 
Q 50.140625 6.59375 56.421875 14.59375 
Q 62.703125 22.609375 62.703125 36.375 
Q 62.703125 50.203125 56.421875 58.203125 
Q 50.140625 66.21875 39.40625 66.21875 
z
M 39.40625 74.21875 
Q 54.734375 74.21875 63.90625 63.9375 
Q 73.09375 53.65625 73.09375 36.375 
Q 73.09375 19.140625 63.90625 8.859375 
Q 54.734375 -1.421875 39.40625 -1.421875 
Q 24.03125 -1.421875 14.8125 8.828125 
Q 5.609375 19.09375 5.609375 36.375 
Q 5.609375 53.65625 14.8125 63.9375 
Q 24.03125 74.21875 39.40625 74.21875 
z
" id="DejaVuSans-4f"/>
       <path d="M 10.796875 72.90625 
L 49.515625 72.90625 
L 49.515625 64.59375 
L 19.828125 64.59375 
L 19.828125 46.734375 
Q 21.96875 47.46875 24.109375 47.828125 
Q 26.265625 48.1875 28.421875 48.1875 
Q 40.625 48.1875 47.75 41.5 
Q 54.890625 34.8125 54.890625 23.390625 
Q 54.890625 11.625 47.5625 5.09375 
Q 40.234375 -1.421875 26.90625 -1.421875 
Q 22.3125 -1.421875 17.546875 -0.640625 
Q 12.796875 0.140625 7.71875 1.703125 
L 7.71875 11.625 
Q 12.109375 9.234375 16.796875 8.0625 
Q 21.484375 6.890625 26.703125 6.890625 
Q 35.15625 6.890625 40.078125 11.328125 
Q 45.015625 15.765625 45.015625 23.390625 
Q 45.015625 31 40.078125 35.4375 
Q 35.15625 39.890625 26.703125 39.890625 
Q 22.75 39.890625 18.8125 39.015625 
Q 14.890625 38.140625 10.796875 36.28125 
z
" id="DejaVuSans-35"/>
      </defs>
      <g style="fill:#262626;" transform="translate(475.3 144.802344)rotate(-90)scale(0.1 -0.1)">
       <use xlink:href="#DejaVuSans-54"/>
       <use x="61.083984" xlink:href="#DejaVuSans-4d"/>
       <use x="147.363281" xlink:href="#DejaVuSans-4f"/>
       <use x="226.074219" xlink:href="#DejaVuSans-35"/>
      </g>
     </g>
    </g>
    <g id="xtick_25">
     <g id="line2d_25"/>
     <g id="text_25">
      <!-- WOX4 -->
      <defs>
       <path d="M 3.328125 72.90625 
L 13.28125 72.90625 
L 28.609375 11.28125 
L 43.890625 72.90625 
L 54.984375 72.90625 
L 70.3125 11.28125 
L 85.59375 72.90625 
L 95.609375 72.90625 
L 77.296875 0 
L 64.890625 0 
L 49.515625 63.28125 
L 33.984375 0 
L 21.578125 0 
z
" id="DejaVuSans-57"/>
       <path d="M 37.796875 64.3125 
L 12.890625 25.390625 
L 37.796875 25.390625 
z
M 35.203125 72.90625 
L 47.609375 72.90625 
L 47.609375 25.390625 
L 58.015625 25.390625 
L 58.015625 17.1875 
L 47.609375 17.1875 
L 47.609375 0 
L 37.796875 0 
L 37.796875 17.1875 
L 4.890625 17.1875 
L 4.890625 26.703125 
z
" id="DejaVuSans-34"/>
      </defs>
      <g style="fill:#262626;" transform="translate(493.3 146.794531)rotate(-90)scale(0.1 -0.1)">
       <use xlink:href="#DejaVuSans-57"/>
       <use x="98.876953" xlink:href="#DejaVuSans-4f"/>
       <use x="177.494141" xlink:href="#DejaVuSans-58"/>
       <use x="246" xlink:href="#DejaVuSans-34"/>
      </g>
     </g>
    </g>
    <g id="xtick_26">
     <g id="line2d_26"/>
     <g id="text_26">
      <!-- LOG3 -->
      <defs>
       <path d="M 40.578125 39.3125 
Q 47.65625 37.796875 51.625 33 
Q 55.609375 28.21875 55.609375 21.1875 
Q 55.609375 10.40625 48.1875 4.484375 
Q 40.765625 -1.421875 27.09375 -1.421875 
Q 22.515625 -1.421875 17.65625 -0.515625 
Q 12.796875 0.390625 7.625 2.203125 
L 7.625 11.71875 
Q 11.71875 9.328125 16.59375 8.109375 
Q 21.484375 6.890625 26.8125 6.890625 
Q 36.078125 6.890625 40.9375 10.546875 
Q 45.796875 14.203125 45.796875 21.1875 
Q 45.796875 27.640625 41.28125 31.265625 
Q 36.765625 34.90625 28.71875 34.90625 
L 20.21875 34.90625 
L 20.21875 43.015625 
L 29.109375 43.015625 
Q 36.375 43.015625 40.234375 45.921875 
Q 44.09375 48.828125 44.09375 54.296875 
Q 44.09375 59.90625 40.109375 62.90625 
Q 36.140625 65.921875 28.71875 65.921875 
Q 24.65625 65.921875 20.015625 65.03125 
Q 15.375 64.15625 9.8125 62.3125 
L 9.8125 71.09375 
Q 15.4375 72.65625 20.34375 73.4375 
Q 25.25 74.21875 29.59375 74.21875 
Q 40.828125 74.21875 47.359375 69.109375 
Q 53.90625 64.015625 53.90625 55.328125 
Q 53.90625 49.265625 50.4375 45.09375 
Q 46.96875 40.921875 40.578125 39.3125 
z
" id="DejaVuSans-33"/>
      </defs>
      <g style="fill:#262626;" transform="translate(511.3 143.382031)rotate(-90)scale(0.1 -0.1)">
       <use xlink:href="#DejaVuSans-4c"/>
       <use x="55.666016" xlink:href="#DejaVuSans-4f"/>
       <use x="134.376953" xlink:href="#DejaVuSans-47"/>
       <use x="211.867188" xlink:href="#DejaVuSans-33"/>
      </g>
     </g>
    </g>
    <g id="xtick_27">
     <g id="line2d_27"/>
     <g id="text_27">
      <!-- DELL -->
      <g style="fill:#262626;" transform="translate(529.3 140.994531)rotate(-90)scale(0.1 -0.1)">
       <use xlink:href="#DejaVuSans-44"/>
       <use x="77.001953" xlink:href="#DejaVuSans-45"/>
       <use x="140.185547" xlink:href="#DejaVuSans-4c"/>
       <use x="195.898438" xlink:href="#DejaVuSans-4c"/>
      </g>
     </g>
    </g>
    <g id="xtick_28">
     <g id="line2d_28"/>
     <g id="text_28">
      <!-- WRKY -->
      <g style="fill:#262626;" transform="translate(547.3 145.328906)rotate(-90)scale(0.1 -0.1)">
       <use xlink:href="#DejaVuSans-57"/>
       <use x="98.876953" xlink:href="#DejaVuSans-52"/>
       <use x="168.359375" xlink:href="#DejaVuSans-4b"/>
       <use x="233.888672" xlink:href="#DejaVuSans-59"/>
      </g>
     </g>
    </g>
    <g id="xtick_29">
     <g id="line2d_29"/>
     <g id="text_29">
      <!-- LHW -->
      <g style="fill:#262626;" transform="translate(565.3 138.811719)rotate(-90)scale(0.1 -0.1)">
       <use xlink:href="#DejaVuSans-4c"/>
       <use x="55.712891" xlink:href="#DejaVuSans-48"/>
       <use x="130.908203" xlink:href="#DejaVuSans-57"/>
      </g>
     </g>
    </g>
    <g id="xtick_30">
     <g id="line2d_30"/>
     <g id="text_30">
      <!-- ENDO -->
      <g style="fill:#262626;" transform="translate(583.3 145.203906)rotate(-90)scale(0.1 -0.1)">
       <use xlink:href="#DejaVuSans-45"/>
       <use x="63.183594" xlink:href="#DejaVuSans-4e"/>
       <use x="137.988281" xlink:href="#DejaVuSans-44"/>
       <use x="214.990234" xlink:href="#DejaVuSans-4f"/>
      </g>
     </g>
    </g>
    <g id="text_31">
     <!-- node -->
     <defs>
      <path d="M 54.890625 33.015625 
L 54.890625 0 
L 45.90625 0 
L 45.90625 32.71875 
Q 45.90625 40.484375 42.875 44.328125 
Q 39.84375 48.1875 33.796875 48.1875 
Q 26.515625 48.1875 22.3125 43.546875 
Q 18.109375 38.921875 18.109375 30.90625 
L 18.109375 0 
L 9.078125 0 
L 9.078125 54.6875 
L 18.109375 54.6875 
L 18.109375 46.1875 
Q 21.34375 51.125 25.703125 53.5625 
Q 30.078125 56 35.796875 56 
Q 45.21875 56 50.046875 50.171875 
Q 54.890625 44.34375 54.890625 33.015625 
z
" id="DejaVuSans-6e"/>
      <path d="M 30.609375 48.390625 
Q 23.390625 48.390625 19.1875 42.75 
Q 14.984375 37.109375 14.984375 27.296875 
Q 14.984375 17.484375 19.15625 11.84375 
Q 23.34375 6.203125 30.609375 6.203125 
Q 37.796875 6.203125 41.984375 11.859375 
Q 46.1875 17.53125 46.1875 27.296875 
Q 46.1875 37.015625 41.984375 42.703125 
Q 37.796875 48.390625 30.609375 48.390625 
z
M 30.609375 56 
Q 42.328125 56 49.015625 48.375 
Q 55.71875 40.765625 55.71875 27.296875 
Q 55.71875 13.875 49.015625 6.21875 
Q 42.328125 -1.421875 30.609375 -1.421875 
Q 18.84375 -1.421875 12.171875 6.21875 
Q 5.515625 13.875 5.515625 27.296875 
Q 5.515625 40.765625 12.171875 48.375 
Q 18.84375 56 30.609375 56 
z
" id="DejaVuSans-6f"/>
      <path d="M 45.40625 46.390625 
L 45.40625 75.984375 
L 54.390625 75.984375 
L 54.390625 0 
L 45.40625 0 
L 45.40625 8.203125 
Q 42.578125 3.328125 38.25 0.953125 
Q 33.9375 -1.421875 27.875 -1.421875 
Q 17.96875 -1.421875 11.734375 6.484375 
Q 5.515625 14.40625 5.515625 27.296875 
Q 5.515625 40.1875 11.734375 48.09375 
Q 17.96875 56 27.875 56 
Q 33.9375 56 38.25 53.625 
Q 42.578125 51.265625 45.40625 46.390625 
z
M 14.796875 27.296875 
Q 14.796875 17.390625 18.875 11.75 
Q 22.953125 6.109375 30.078125 6.109375 
Q 37.203125 6.109375 41.296875 11.75 
Q 45.40625 17.390625 45.40625 27.296875 
Q 45.40625 37.203125 41.296875 42.84375 
Q 37.203125 48.484375 30.078125 48.484375 
Q 22.953125 48.484375 18.875 42.84375 
Q 14.796875 37.203125 14.796875 27.296875 
z
" id="DejaVuSans-64"/>
      <path d="M 56.203125 29.59375 
L 56.203125 25.203125 
L 14.890625 25.203125 
Q 15.484375 15.921875 20.484375 11.0625 
Q 25.484375 6.203125 34.421875 6.203125 
Q 39.59375 6.203125 44.453125 7.46875 
Q 49.3125 8.734375 54.109375 11.28125 
L 54.109375 2.78125 
Q 49.265625 0.734375 44.1875 -0.34375 
Q 39.109375 -1.421875 33.890625 -1.421875 
Q 20.796875 -1.421875 13.15625 6.1875 
Q 5.515625 13.8125 5.515625 26.8125 
Q 5.515625 40.234375 12.765625 48.109375 
Q 20.015625 56 32.328125 56 
Q 43.359375 56 49.78125 48.890625 
Q 56.203125 41.796875 56.203125 29.59375 
z
M 47.21875 32.234375 
Q 47.125 39.59375 43.09375 43.984375 
Q 39.0625 48.390625 32.421875 48.390625 
Q 24.90625 48.390625 20.390625 44.140625 
Q 15.875 39.890625 15.1875 32.171875 
z
" id="DejaVuSans-65"/>
     </defs>
     <g style="fill:#262626;" transform="translate(307.061719 162.392969)scale(0.1 -0.1)">
      <use xlink:href="#DejaVuSans-6e"/>
      <use x="63.378906" xlink:href="#DejaVuSans-6f"/>
      <use x="124.560547" xlink:href="#DejaVuSans-64"/>
      <use x="188.037109" xlink:href="#DejaVuSans-65"/>
     </g>
    </g>
   </g>
   <g id="matplotlib.axis_2">
    <g id="ytick_1">
     <g id="line2d_31"/>
     <g id="text_32">
      <!-- t -->
      <defs>
       <path d="M 18.3125 70.21875 
L 18.3125 54.6875 
L 36.8125 54.6875 
L 36.8125 47.703125 
L 18.3125 47.703125 
L 18.3125 18.015625 
Q 18.3125 11.328125 20.140625 9.421875 
Q 21.96875 7.515625 27.59375 7.515625 
L 36.8125 7.515625 
L 36.8125 0 
L 27.59375 0 
Q 17.1875 0 13.234375 3.875 
Q 9.28125 7.765625 9.28125 18.015625 
L 9.28125 47.703125 
L 2.6875 47.703125 
L 2.6875 54.6875 
L 9.28125 54.6875 
L 9.28125 70.21875 
z
" id="DejaVuSans-74"/>
      </defs>
      <g style="fill:#262626;" transform="translate(39.620312 86.63125)scale(0.1 -0.1)">
       <use xlink:href="#DejaVuSans-74"/>
      </g>
     </g>
    </g>
    <g id="ytick_2">
     <g id="line2d_32"/>
     <g id="text_33">
      <!-- t+1 -->
      <defs>
       <path d="M 46 62.703125 
L 46 35.5 
L 73.1875 35.5 
L 73.1875 27.203125 
L 46 27.203125 
L 46 0 
L 37.796875 0 
L 37.796875 27.203125 
L 10.59375 27.203125 
L 10.59375 35.5 
L 37.796875 35.5 
L 37.796875 62.703125 
z
" id="DejaVuSans-2b"/>
      </defs>
      <g style="fill:#262626;" transform="translate(24.878125 104.63125)scale(0.1 -0.1)">
       <use xlink:href="#DejaVuSans-74"/>
       <use x="39.208984" xlink:href="#DejaVuSans-2b"/>
       <use x="122.998047" xlink:href="#DejaVuSans-31"/>
      </g>
     </g>
    </g>
    <g id="text_34">
     <!-- time -->
     <defs>
      <path d="M 9.421875 54.6875 
L 18.40625 54.6875 
L 18.40625 0 
L 9.421875 0 
z
M 9.421875 75.984375 
L 18.40625 75.984375 
L 18.40625 64.59375 
L 9.421875 64.59375 
z
" id="DejaVuSans-69"/>
      <path d="M 52 44.1875 
Q 55.375 50.25 60.0625 53.125 
Q 64.75 56 71.09375 56 
Q 79.640625 56 84.28125 50.015625 
Q 88.921875 44.046875 88.921875 33.015625 
L 88.921875 0 
L 79.890625 0 
L 79.890625 32.71875 
Q 79.890625 40.578125 77.09375 44.375 
Q 74.3125 48.1875 68.609375 48.1875 
Q 61.625 48.1875 57.5625 43.546875 
Q 53.515625 38.921875 53.515625 30.90625 
L 53.515625 0 
L 44.484375 0 
L 44.484375 32.71875 
Q 44.484375 40.625 41.703125 44.40625 
Q 38.921875 48.1875 33.109375 48.1875 
Q 26.21875 48.1875 22.15625 43.53125 
Q 18.109375 38.875 18.109375 30.90625 
L 18.109375 0 
L 9.078125 0 
L 9.078125 54.6875 
L 18.109375 54.6875 
L 18.109375 46.1875 
Q 21.1875 51.21875 25.484375 53.609375 
Q 29.78125 56 35.6875 56 
Q 41.65625 56 45.828125 52.96875 
Q 50 49.953125 52 44.1875 
z
" id="DejaVuSans-6d"/>
     </defs>
     <g style="fill:#262626;" transform="translate(14.798437 103.128125)rotate(-90)scale(0.1 -0.1)">
      <use xlink:href="#DejaVuSans-74"/>
      <use x="39.208984" xlink:href="#DejaVuSans-69"/>
      <use x="66.992188" xlink:href="#DejaVuSans-6d"/>
      <use x="164.404297" xlink:href="#DejaVuSans-65"/>
     </g>
    </g>
   </g>
   <g id="QuadMesh_1">
    <path clip-path="url(#p6f9ba69e5c)" d="M 49.540625 73.832031 
L 67.540625 73.832031 
L 67.540625 91.832031 
L 49.540625 91.832031 
L 49.540625 73.832031 
" style="fill:#d1d1d1;stroke:#ffffff;stroke-width:6;"/>
    <path clip-path="url(#p6f9ba69e5c)" d="M 67.540625 73.832031 
L 85.540625 73.832031 
L 85.540625 91.832031 
L 67.540625 91.832031 
L 67.540625 73.832031 
" style="fill:#d1d1d1;stroke:#ffffff;stroke-width:6;"/>
    <path clip-path="url(#p6f9ba69e5c)" d="M 85.540625 73.832031 
L 103.540625 73.832031 
L 103.540625 91.832031 
L 85.540625 91.832031 
L 85.540625 73.832031 
" style="fill:#353531;stroke:#ffffff;stroke-width:6;"/>
    <path clip-path="url(#p6f9ba69e5c)" d="M 103.540625 73.832031 
L 121.540625 73.832031 
L 121.540625 91.832031 
L 103.540625 91.832031 
L 103.540625 73.832031 
" style="fill:#d1d1d1;stroke:#ffffff;stroke-width:6;"/>
    <path clip-path="url(#p6f9ba69e5c)" d="M 121.540625 73.832031 
L 139.540625 73.832031 
L 139.540625 91.832031 
L 121.540625 91.832031 
L 121.540625 73.832031 
" style="fill:#353531;stroke:#ffffff;stroke-width:6;"/>
    <path clip-path="url(#p6f9ba69e5c)" d="M 139.540625 73.832031 
L 157.540625 73.832031 
L 157.540625 91.832031 
L 139.540625 91.832031 
L 139.540625 73.832031 
" style="fill:#353531;stroke:#ffffff;stroke-width:6;"/>
    <path clip-path="url(#p6f9ba69e5c)" d="M 157.540625 73.832031 
L 175.540625 73.832031 
L 175.540625 91.832031 
L 157.540625 91.832031 
L 157.540625 73.832031 
" style="fill:#d1d1d1;stroke:#ffffff;stroke-width:6;"/>
    <path clip-path="url(#p6f9ba69e5c)" d="M 175.540625 73.832031 
L 193.540625 73.832031 
L 193.540625 91.832031 
L 175.540625 91.832031 
L 175.540625 73.832031 
" style="fill:#d1d1d1;stroke:#ffffff;stroke-width:6;"/>
    <path clip-path="url(#p6f9ba69e5c)" d="M 193.540625 73.832031 
L 211.540625 73.832031 
L 211.540625 91.832031 
L 193.540625 91.832031 
L 193.540625 73.832031 
" style="fill:#d1d1d1;stroke:#ffffff;stroke-width:6;"/>
    <path clip-path="url(#p6f9ba69e5c)" d="M 211.540625 73.832031 
L 229.540625 73.832031 
L 229.540625 91.832031 
L 211.540625 91.832031 
L 211.540625 73.832031 
" style="fill:#353531;stroke:#ffffff;stroke-width:6;"/>
    <path clip-path="url(#p6f9ba69e5c)" d="M 229.540625 73.832031 
L 247.540625 73.832031 
L 247.540625 91.832031 
L 229.540625 91.832031 
L 229.540625 73.832031 
" style="fill:#d1d1d1;stroke:#ffffff;stroke-width:6;"/>
    <path clip-path="url(#p6f9ba69e5c)" d="M 247.540625 73.832031 
L 265.540625 73.832031 
L 265.540625 91.832031 
L 247.540625 91.832031 
L 247.540625 73.832031 
" style="fill:#d1d1d1;stroke:#ffffff;stroke-width:6;"/>
    <path clip-path="url(#p6f9ba69e5c)" d="M 265.540625 73.832031 
L 283.540625 73.832031 
L 283.540625 91.832031 
L 265.540625 91.832031 
L 265.540625 73.832031 
" style="fill:#d1d1d1;stroke:#ffffff;stroke-width:6;"/>
    <path clip-path="url(#p6f9ba69e5c)" d="M 283.540625 73.832031 
L 301.540625 73.832031 
L 301.540625 91.832031 
L 283.540625 91.832031 
L 283.540625 73.832031 
" style="fill:#353531;stroke:#ffffff;stroke-width:6;"/>
    <path clip-path="url(#p6f9ba69e5c)" d="M 301.540625 73.832031 
L 319.540625 73.832031 
L 319.540625 91.832031 
L 301.540625 91.832031 
L 301.540625 73.832031 
" style="fill:#d1d1d1;stroke:#ffffff;stroke-width:6;"/>
    <path clip-path="url(#p6f9ba69e5c)" d="M 319.540625 73.832031 
L 337.540625 73.832031 
L 337.540625 91.832031 
L 319.540625 91.832031 
L 319.540625 73.832031 
" style="fill:#353531;stroke:#ffffff;stroke-width:6;"/>
    <path clip-path="url(#p6f9ba69e5c)" d="M 337.540625 73.832031 
L 355.540625 73.832031 
L 355.540625 91.832031 
L 337.540625 91.832031 
L 337.540625 73.832031 
" style="fill:#353531;stroke:#ffffff;stroke-width:6;"/>
    <path clip-path="url(#p6f9ba69e5c)" d="M 355.540625 73.832031 
L 373.540625 73.832031 
L 373.540625 91.832031 
L 355.540625 91.832031 
L 355.540625 73.832031 
" style="fill:#d1d1d1;stroke:#ffffff;stroke-width:6;"/>
    <path clip-path="url(#p6f9ba69e5c)" d="M 373.540625 73.832031 
L 391.540625 73.832031 
L 391.540625 91.832031 
L 373.540625 91.832031 
L 373.540625 73.832031 
" style="fill:#353531;stroke:#ffffff;stroke-width:6;"/>
    <path clip-path="url(#p6f9ba69e5c)" d="M 391.540625 73.832031 
L 409.540625 73.832031 
L 409.540625 91.832031 
L 391.540625 91.832031 
L 391.540625 73.832031 
" style="fill:#353531;stroke:#ffffff;stroke-width:6;"/>
    <path clip-path="url(#p6f9ba69e5c)" d="M 409.540625 73.832031 
L 427.540625 73.832031 
L 427.540625 91.832031 
L 409.540625 91.832031 
L 409.540625 73.832031 
" style="fill:#353531;stroke:#ffffff;stroke-width:6;"/>
    <path clip-path="url(#p6f9ba69e5c)" d="M 427.540625 73.832031 
L 445.540625 73.832031 
L 445.540625 91.832031 
L 427.540625 91.832031 
L 427.540625 73.832031 
" style="fill:#353531;stroke:#ffffff;stroke-width:6;"/>
    <path clip-path="url(#p6f9ba69e5c)" d="M 445.540625 73.832031 
L 463.540625 73.832031 
L 463.540625 91.832031 
L 445.540625 91.832031 
L 445.540625 73.832031 
" style="fill:#d1d1d1;stroke:#ffffff;stroke-width:6;"/>
    <path clip-path="url(#p6f9ba69e5c)" d="M 463.540625 73.832031 
L 481.540625 73.832031 
L 481.540625 91.832031 
L 463.540625 91.832031 
L 463.540625 73.832031 
" style="fill:#d1d1d1;stroke:#ffffff;stroke-width:6;"/>
    <path clip-path="url(#p6f9ba69e5c)" d="M 481.540625 73.832031 
L 499.540625 73.832031 
L 499.540625 91.832031 
L 481.540625 91.832031 
L 481.540625 73.832031 
" style="fill:#353531;stroke:#ffffff;stroke-width:6;"/>
    <path clip-path="url(#p6f9ba69e5c)" d="M 499.540625 73.832031 
L 517.540625 73.832031 
L 517.540625 91.832031 
L 499.540625 91.832031 
L 499.540625 73.832031 
" style="fill:#353531;stroke:#ffffff;stroke-width:6;"/>
    <path clip-path="url(#p6f9ba69e5c)" d="M 517.540625 73.832031 
L 535.540625 73.832031 
L 535.540625 91.832031 
L 517.540625 91.832031 
L 517.540625 73.832031 
" style="fill:#d1d1d1;stroke:#ffffff;stroke-width:6;"/>
    <path clip-path="url(#p6f9ba69e5c)" d="M 535.540625 73.832031 
L 553.540625 73.832031 
L 553.540625 91.832031 
L 535.540625 91.832031 
L 535.540625 73.832031 
" style="fill:#353531;stroke:#ffffff;stroke-width:6;"/>
    <path clip-path="url(#p6f9ba69e5c)" d="M 553.540625 73.832031 
L 571.540625 73.832031 
L 571.540625 91.832031 
L 553.540625 91.832031 
L 553.540625 73.832031 
" style="fill:#353531;stroke:#ffffff;stroke-width:6;"/>
    <path clip-path="url(#p6f9ba69e5c)" d="M 571.540625 73.832031 
L 589.540625 73.832031 
L 589.540625 91.832031 
L 571.540625 91.832031 
L 571.540625 73.832031 
" style="fill:#d1d1d1;stroke:#ffffff;stroke-width:6;"/>
    <path clip-path="url(#p6f9ba69e5c)" d="M 49.540625 91.832031 
L 67.540625 91.832031 
L 67.540625 109.832031 
L 49.540625 109.832031 
L 49.540625 91.832031 
" style="fill:#d1d1d1;stroke:#ffffff;stroke-width:6;"/>
    <path clip-path="url(#p6f9ba69e5c)" d="M 67.540625 91.832031 
L 85.540625 91.832031 
L 85.540625 109.832031 
L 67.540625 109.832031 
L 67.540625 91.832031 
" style="fill:#353531;stroke:#ffffff;stroke-width:6;"/>
    <path clip-path="url(#p6f9ba69e5c)" d="M 85.540625 91.832031 
L 103.540625 91.832031 
L 103.540625 109.832031 
L 85.540625 109.832031 
L 85.540625 91.832031 
" style="fill:#d1d1d1;stroke:#ffffff;stroke-width:6;"/>
    <path clip-path="url(#p6f9ba69e5c)" d="M 103.540625 91.832031 
L 121.540625 91.832031 
L 121.540625 109.832031 
L 103.540625 109.832031 
L 103.540625 91.832031 
" style="fill:#353531;stroke:#ffffff;stroke-width:6;"/>
    <path clip-path="url(#p6f9ba69e5c)" d="M 121.540625 91.832031 
L 139.540625 91.832031 
L 139.540625 109.832031 
L 121.540625 109.832031 
L 121.540625 91.832031 
" style="fill:#d1d1d1;stroke:#ffffff;stroke-width:6;"/>
    <path clip-path="url(#p6f9ba69e5c)" d="M 139.540625 91.832031 
L 157.540625 91.832031 
L 157.540625 109.832031 
L 139.540625 109.832031 
L 139.540625 91.832031 
" style="fill:#353531;stroke:#ffffff;stroke-width:6;"/>
    <path clip-path="url(#p6f9ba69e5c)" d="M 157.540625 91.832031 
L 175.540625 91.832031 
L 175.540625 109.832031 
L 157.540625 109.832031 
L 157.540625 91.832031 
" style="fill:#353531;stroke:#ffffff;stroke-width:6;"/>
    <path clip-path="url(#p6f9ba69e5c)" d="M 175.540625 91.832031 
L 193.540625 91.832031 
L 193.540625 109.832031 
L 175.540625 109.832031 
L 175.540625 91.832031 
" style="fill:#d1d1d1;stroke:#ffffff;stroke-width:6;"/>
    <path clip-path="url(#p6f9ba69e5c)" d="M 193.540625 91.832031 
L 211.540625 91.832031 
L 211.540625 109.832031 
L 193.540625 109.832031 
L 193.540625 91.832031 
" style="fill:#d1d1d1;stroke:#ffffff;stroke-width:6;"/>
    <path clip-path="url(#p6f9ba69e5c)" d="M 211.540625 91.832031 
L 229.540625 91.832031 
L 229.540625 109.832031 
L 211.540625 109.832031 
L 211.540625 91.832031 
" style="fill:#353531;stroke:#ffffff;stroke-width:6;"/>
    <path clip-path="url(#p6f9ba69e5c)" d="M 229.540625 91.832031 
L 247.540625 91.832031 
L 247.540625 109.832031 
L 229.540625 109.832031 
L 229.540625 91.832031 
" style="fill:#d1d1d1;stroke:#ffffff;stroke-width:6;"/>
    <path clip-path="url(#p6f9ba69e5c)" d="M 247.540625 91.832031 
L 265.540625 91.832031 
L 265.540625 109.832031 
L 247.540625 109.832031 
L 247.540625 91.832031 
" style="fill:#d1d1d1;stroke:#ffffff;stroke-width:6;"/>
    <path clip-path="url(#p6f9ba69e5c)" d="M 265.540625 91.832031 
L 283.540625 91.832031 
L 283.540625 109.832031 
L 265.540625 109.832031 
L 265.540625 91.832031 
" style="fill:#d1d1d1;stroke:#ffffff;stroke-width:6;"/>
    <path clip-path="url(#p6f9ba69e5c)" d="M 283.540625 91.832031 
L 301.540625 91.832031 
L 301.540625 109.832031 
L 283.540625 109.832031 
L 283.540625 91.832031 
" style="fill:#353531;stroke:#ffffff;stroke-width:6;"/>
    <path clip-path="url(#p6f9ba69e5c)" d="M 301.540625 91.832031 
L 319.540625 91.832031 
L 319.540625 109.832031 
L 301.540625 109.832031 
L 301.540625 91.832031 
" style="fill:#353531;stroke:#ffffff;stroke-width:6;"/>
    <path clip-path="url(#p6f9ba69e5c)" d="M 319.540625 91.832031 
L 337.540625 91.832031 
L 337.540625 109.832031 
L 319.540625 109.832031 
L 319.540625 91.832031 
" style="fill:#353531;stroke:#ffffff;stroke-width:6;"/>
    <path clip-path="url(#p6f9ba69e5c)" d="M 337.540625 91.832031 
L 355.540625 91.832031 
L 355.540625 109.832031 
L 337.540625 109.832031 
L 337.540625 91.832031 
" style="fill:#353531;stroke:#ffffff;stroke-width:6;"/>
    <path clip-path="url(#p6f9ba69e5c)" d="M 355.540625 91.832031 
L 373.540625 91.832031 
L 373.540625 109.832031 
L 355.540625 109.832031 
L 355.540625 91.832031 
" style="fill:#d1d1d1;stroke:#ffffff;stroke-width:6;"/>
    <path clip-path="url(#p6f9ba69e5c)" d="M 373.540625 91.832031 
L 391.540625 91.832031 
L 391.540625 109.832031 
L 373.540625 109.832031 
L 373.540625 91.832031 
" style="fill:#353531;stroke:#ffffff;stroke-width:6;"/>
    <path clip-path="url(#p6f9ba69e5c)" d="M 391.540625 91.832031 
L 409.540625 91.832031 
L 409.540625 109.832031 
L 391.540625 109.832031 
L 391.540625 91.832031 
" style="fill:#353531;stroke:#ffffff;stroke-width:6;"/>
    <path clip-path="url(#p6f9ba69e5c)" d="M 409.540625 91.832031 
L 427.540625 91.832031 
L 427.540625 109.832031 
L 409.540625 109.832031 
L 409.540625 91.832031 
" style="fill:#353531;stroke:#ffffff;stroke-width:6;"/>
    <path clip-path="url(#p6f9ba69e5c)" d="M 427.540625 91.832031 
L 445.540625 91.832031 
L 445.540625 109.832031 
L 427.540625 109.832031 
L 427.540625 91.832031 
" style="fill:#d1d1d1;stroke:#ffffff;stroke-width:6;"/>
    <path clip-path="url(#p6f9ba69e5c)" d="M 445.540625 91.832031 
L 463.540625 91.832031 
L 463.540625 109.832031 
L 445.540625 109.832031 
L 445.540625 91.832031 
" style="fill:#353531;stroke:#ffffff;stroke-width:6;"/>
    <path clip-path="url(#p6f9ba69e5c)" d="M 463.540625 91.832031 
L 481.540625 91.832031 
L 481.540625 109.832031 
L 463.540625 109.832031 
L 463.540625 91.832031 
" style="fill:#353531;stroke:#ffffff;stroke-width:6;"/>
    <path clip-path="url(#p6f9ba69e5c)" d="M 481.540625 91.832031 
L 499.540625 91.832031 
L 499.540625 109.832031 
L 481.540625 109.832031 
L 481.540625 91.832031 
" style="fill:#353531;stroke:#ffffff;stroke-width:6;"/>
    <path clip-path="url(#p6f9ba69e5c)" d="M 499.540625 91.832031 
L 517.540625 91.832031 
L 517.540625 109.832031 
L 499.540625 109.832031 
L 499.540625 91.832031 
" style="fill:#d1d1d1;stroke:#ffffff;stroke-width:6;"/>
    <path clip-path="url(#p6f9ba69e5c)" d="M 517.540625 91.832031 
L 535.540625 91.832031 
L 535.540625 109.832031 
L 517.540625 109.832031 
L 517.540625 91.832031 
" style="fill:#d1d1d1;stroke:#ffffff;stroke-width:6;"/>
    <path clip-path="url(#p6f9ba69e5c)" d="M 535.540625 91.832031 
L 553.540625 91.832031 
L 553.540625 109.832031 
L 535.540625 109.832031 
L 535.540625 91.832031 
" style="fill:#353531;stroke:#ffffff;stroke-width:6;"/>
    <path clip-path="url(#p6f9ba69e5c)" d="M 553.540625 91.832031 
L 571.540625 91.832031 
L 571.540625 109.832031 
L 553.540625 109.832031 
L 553.540625 91.832031 
" style="fill:#353531;stroke:#ffffff;stroke-width:6;"/>
    <path clip-path="url(#p6f9ba69e5c)" d="M 571.540625 91.832031 
L 589.540625 91.832031 
L 589.540625 109.832031 
L 571.540625 109.832031 
L 571.540625 91.832031 
" style="fill:#353531;stroke:#ffffff;stroke-width:6;"/>
   </g>
   <g id="patch_3">
    <path clip-path="url(#p6f9ba69e5c)" d="M 249.040625 75.332031 
L 264.040625 75.332031 
L 264.040625 108.332031 
L 249.040625 108.332031 
z
" style="fill:none;stroke:#00ced1;stroke-linejoin:miter;stroke-width:3;"/>
   </g>
   <g id="patch_4">
    <path clip-path="url(#p6f9ba69e5c)" d="M 249.040625 88.832031 
L 265.540625 88.832031 
L 265.540625 94.832031 
L 249.040625 94.832031 
z
" style="fill:#00ced1;"/>
   </g>
   <g id="text_35">
    <!-- $\mathrm{\bf{attractor\ 39}}$ -->
    <defs>
     <path d="M 32.90625 24.609375 
Q 27.4375 24.609375 24.671875 22.75 
Q 21.921875 20.90625 21.921875 17.28125 
Q 21.921875 13.96875 24.140625 12.078125 
Q 26.375 10.203125 30.328125 10.203125 
Q 35.25 10.203125 38.625 13.734375 
Q 42 17.28125 42 22.609375 
L 42 24.609375 
z
M 59.625 31.203125 
L 59.625 0 
L 42 0 
L 42 8.109375 
Q 38.484375 3.125 34.078125 0.84375 
Q 29.6875 -1.421875 23.390625 -1.421875 
Q 14.890625 -1.421875 9.59375 3.53125 
Q 4.296875 8.5 4.296875 16.40625 
Q 4.296875 26.03125 10.90625 30.515625 
Q 17.53125 35.015625 31.6875 35.015625 
L 42 35.015625 
L 42 36.375 
Q 42 40.53125 38.71875 42.453125 
Q 35.453125 44.390625 28.515625 44.390625 
Q 22.90625 44.390625 18.0625 43.265625 
Q 13.234375 42.140625 9.078125 39.890625 
L 9.078125 53.21875 
Q 14.703125 54.59375 20.359375 55.296875 
Q 26.03125 56 31.6875 56 
Q 46.484375 56 53.046875 50.171875 
Q 59.625 44.34375 59.625 31.203125 
z
" id="DejaVuSans-Bold-61"/>
     <path d="M 27.484375 70.21875 
L 27.484375 54.6875 
L 45.515625 54.6875 
L 45.515625 42.1875 
L 27.484375 42.1875 
L 27.484375 19 
Q 27.484375 15.1875 29 13.84375 
Q 30.515625 12.5 35.015625 12.5 
L 44 12.5 
L 44 0 
L 29 0 
Q 18.65625 0 14.328125 4.3125 
Q 10.015625 8.640625 10.015625 19 
L 10.015625 42.1875 
L 1.3125 42.1875 
L 1.3125 54.6875 
L 10.015625 54.6875 
L 10.015625 70.21875 
z
" id="DejaVuSans-Bold-74"/>
     <path d="M 49.03125 39.796875 
Q 46.734375 40.875 44.453125 41.375 
Q 42.1875 41.890625 39.890625 41.890625 
Q 33.15625 41.890625 29.515625 37.5625 
Q 25.875 33.25 25.875 25.203125 
L 25.875 0 
L 8.40625 0 
L 8.40625 54.6875 
L 25.875 54.6875 
L 25.875 45.703125 
Q 29.25 51.078125 33.609375 53.53125 
Q 37.984375 56 44.09375 56 
Q 44.96875 56 45.984375 55.921875 
Q 47.015625 55.859375 48.96875 55.609375 
z
" id="DejaVuSans-Bold-72"/>
     <path d="M 52.59375 52.984375 
L 52.59375 38.71875 
Q 49.03125 41.15625 45.4375 42.328125 
Q 41.84375 43.5 37.984375 43.5 
Q 30.671875 43.5 26.59375 39.234375 
Q 22.515625 34.96875 22.515625 27.296875 
Q 22.515625 19.625 26.59375 15.34375 
Q 30.671875 11.078125 37.984375 11.078125 
Q 42.09375 11.078125 45.78125 12.296875 
Q 49.46875 13.53125 52.59375 15.921875 
L 52.59375 1.609375 
Q 48.484375 0.09375 44.265625 -0.65625 
Q 40.046875 -1.421875 35.796875 -1.421875 
Q 21 -1.421875 12.640625 6.171875 
Q 4.296875 13.765625 4.296875 27.296875 
Q 4.296875 40.828125 12.640625 48.40625 
Q 21 56 35.796875 56 
Q 40.09375 56 44.265625 55.25 
Q 48.4375 54.5 52.59375 52.984375 
z
" id="DejaVuSans-Bold-63"/>
     <path d="M 34.421875 43.5 
Q 28.609375 43.5 25.5625 39.328125 
Q 22.515625 35.15625 22.515625 27.296875 
Q 22.515625 19.4375 25.5625 15.25 
Q 28.609375 11.078125 34.421875 11.078125 
Q 40.140625 11.078125 43.15625 15.25 
Q 46.1875 19.4375 46.1875 27.296875 
Q 46.1875 35.15625 43.15625 39.328125 
Q 40.140625 43.5 34.421875 43.5 
z
M 34.421875 56 
Q 48.53125 56 56.46875 48.375 
Q 64.40625 40.765625 64.40625 27.296875 
Q 64.40625 13.8125 56.46875 6.1875 
Q 48.53125 -1.421875 34.421875 -1.421875 
Q 20.265625 -1.421875 12.28125 6.1875 
Q 4.296875 13.8125 4.296875 27.296875 
Q 4.296875 40.765625 12.28125 48.375 
Q 20.265625 56 34.421875 56 
z
" id="DejaVuSans-Bold-6f"/>
     <path d="M 46.578125 39.3125 
Q 53.953125 37.40625 57.78125 32.6875 
Q 61.625 27.984375 61.625 20.703125 
Q 61.625 9.859375 53.3125 4.21875 
Q 45.015625 -1.421875 29.109375 -1.421875 
Q 23.484375 -1.421875 17.84375 -0.515625 
Q 12.203125 0.390625 6.6875 2.203125 
L 6.6875 16.703125 
Q 11.96875 14.0625 17.15625 12.71875 
Q 22.359375 11.375 27.390625 11.375 
Q 34.859375 11.375 38.84375 13.953125 
Q 42.828125 16.546875 42.828125 21.390625 
Q 42.828125 26.375 38.75 28.9375 
Q 34.671875 31.5 26.703125 31.5 
L 19.1875 31.5 
L 19.1875 43.609375 
L 27.09375 43.609375 
Q 34.1875 43.609375 37.640625 45.828125 
Q 41.109375 48.046875 41.109375 52.59375 
Q 41.109375 56.78125 37.734375 59.078125 
Q 34.375 61.375 28.21875 61.375 
Q 23.6875 61.375 19.046875 60.34375 
Q 14.40625 59.328125 9.8125 57.328125 
L 9.8125 71.09375 
Q 15.375 72.65625 20.84375 73.4375 
Q 26.3125 74.21875 31.59375 74.21875 
Q 45.796875 74.21875 52.84375 69.546875 
Q 59.90625 64.890625 59.90625 55.515625 
Q 59.90625 49.125 56.53125 45.046875 
Q 53.171875 40.96875 46.578125 39.3125 
z
" id="DejaVuSans-Bold-33"/>
     <path d="M 10.015625 1.609375 
L 10.015625 15.09375 
Q 14.5 12.984375 18.59375 11.9375 
Q 22.703125 10.890625 26.703125 10.890625 
Q 35.109375 10.890625 39.796875 15.546875 
Q 44.484375 20.21875 45.3125 29.390625 
Q 42 26.953125 38.234375 25.734375 
Q 34.46875 24.515625 30.078125 24.515625 
Q 18.890625 24.515625 12.03125 31.03125 
Q 5.171875 37.546875 5.171875 48.1875 
Q 5.171875 59.96875 12.8125 67.046875 
Q 20.453125 74.125 33.296875 74.125 
Q 47.5625 74.125 55.375 64.5 
Q 63.1875 54.890625 63.1875 37.3125 
Q 63.1875 19.234375 54.046875 8.90625 
Q 44.921875 -1.421875 29 -1.421875 
Q 23.875 -1.421875 19.1875 -0.65625 
Q 14.5 0.09375 10.015625 1.609375 
z
M 33.203125 36.71875 
Q 38.140625 36.71875 40.625 39.90625 
Q 43.109375 43.109375 43.109375 49.515625 
Q 43.109375 55.859375 40.625 59.078125 
Q 38.140625 62.3125 33.203125 62.3125 
Q 28.265625 62.3125 25.78125 59.078125 
Q 23.296875 55.859375 23.296875 49.515625 
Q 23.296875 43.109375 25.78125 39.90625 
Q 28.265625 36.71875 33.203125 36.71875 
z
" id="DejaVuSans-Bold-39"/>
    </defs>
    <g style="fill:#262626;" transform="translate(49.540625 14.798437)scale(0.1 -0.1)">
     <use transform="translate(0 0.78125)" xlink:href="#DejaVuSans-Bold-61"/>
     <use transform="translate(67.480469 0.78125)" xlink:href="#DejaVuSans-Bold-74"/>
     <use transform="translate(115.283203 0.78125)" xlink:href="#DejaVuSans-Bold-74"/>
     <use transform="translate(163.085938 0.78125)" xlink:href="#DejaVuSans-Bold-72"/>
     <use transform="translate(212.402344 0.78125)" xlink:href="#DejaVuSans-Bold-61"/>
     <use transform="translate(279.882812 0.78125)" xlink:href="#DejaVuSans-Bold-63"/>
     <use transform="translate(339.160156 0.78125)" xlink:href="#DejaVuSans-Bold-74"/>
     <use transform="translate(386.962891 0.78125)" xlink:href="#DejaVuSans-Bold-6f"/>
     <use transform="translate(455.664062 0.78125)" xlink:href="#DejaVuSans-Bold-72"/>
     <use transform="translate(539.713194 0.78125)" xlink:href="#DejaVuSans-Bold-33"/>
     <use transform="translate(609.293272 0.78125)" xlink:href="#DejaVuSans-Bold-39"/>
    </g>
    <!-- of length $2$ -->
    <defs>
     <path d="M 37.109375 75.984375 
L 37.109375 68.5 
L 28.515625 68.5 
Q 23.6875 68.5 21.796875 66.546875 
Q 19.921875 64.59375 19.921875 59.515625 
L 19.921875 54.6875 
L 34.71875 54.6875 
L 34.71875 47.703125 
L 19.921875 47.703125 
L 19.921875 0 
L 10.890625 0 
L 10.890625 47.703125 
L 2.296875 47.703125 
L 2.296875 54.6875 
L 10.890625 54.6875 
L 10.890625 58.5 
Q 10.890625 67.625 15.140625 71.796875 
Q 19.390625 75.984375 28.609375 75.984375 
z
" id="DejaVuSans-66"/>
     <path id="DejaVuSans-20"/>
     <path d="M 9.421875 75.984375 
L 18.40625 75.984375 
L 18.40625 0 
L 9.421875 0 
z
" id="DejaVuSans-6c"/>
     <path d="M 45.40625 27.984375 
Q 45.40625 37.75 41.375 43.109375 
Q 37.359375 48.484375 30.078125 48.484375 
Q 22.859375 48.484375 18.828125 43.109375 
Q 14.796875 37.75 14.796875 27.984375 
Q 14.796875 18.265625 18.828125 12.890625 
Q 22.859375 7.515625 30.078125 7.515625 
Q 37.359375 7.515625 41.375 12.890625 
Q 45.40625 18.265625 45.40625 27.984375 
z
M 54.390625 6.78125 
Q 54.390625 -7.171875 48.1875 -13.984375 
Q 42 -20.796875 29.203125 -20.796875 
Q 24.46875 -20.796875 20.265625 -20.09375 
Q 16.0625 -19.390625 12.109375 -17.921875 
L 12.109375 -9.1875 
Q 16.0625 -11.328125 19.921875 -12.34375 
Q 23.78125 -13.375 27.78125 -13.375 
Q 36.625 -13.375 41.015625 -8.765625 
Q 45.40625 -4.15625 45.40625 5.171875 
L 45.40625 9.625 
Q 42.625 4.78125 38.28125 2.390625 
Q 33.9375 0 27.875 0 
Q 17.828125 0 11.671875 7.65625 
Q 5.515625 15.328125 5.515625 27.984375 
Q 5.515625 40.671875 11.671875 48.328125 
Q 17.828125 56 27.875 56 
Q 33.9375 56 38.28125 53.609375 
Q 42.625 51.21875 45.40625 46.390625 
L 45.40625 54.6875 
L 54.390625 54.6875 
z
" id="DejaVuSans-67"/>
     <path d="M 54.890625 33.015625 
L 54.890625 0 
L 45.90625 0 
L 45.90625 32.71875 
Q 45.90625 40.484375 42.875 44.328125 
Q 39.84375 48.1875 33.796875 48.1875 
Q 26.515625 48.1875 22.3125 43.546875 
Q 18.109375 38.921875 18.109375 30.90625 
L 18.109375 0 
L 9.078125 0 
L 9.078125 75.984375 
L 18.109375 75.984375 
L 18.109375 46.1875 
Q 21.34375 51.125 25.703125 53.5625 
Q 30.078125 56 35.796875 56 
Q 45.21875 56 50.046875 50.171875 
Q 54.890625 44.34375 54.890625 33.015625 
z
" id="DejaVuSans-68"/>
     <path d="M 19.1875 8.296875 
L 53.609375 8.296875 
L 53.609375 0 
L 7.328125 0 
L 7.328125 8.296875 
Q 12.9375 14.109375 22.625 23.890625 
Q 32.328125 33.6875 34.8125 36.53125 
Q 39.546875 41.84375 41.421875 45.53125 
Q 43.3125 49.21875 43.3125 52.78125 
Q 43.3125 58.59375 39.234375 62.25 
Q 35.15625 65.921875 28.609375 65.921875 
Q 23.96875 65.921875 18.8125 64.3125 
Q 13.671875 62.703125 7.8125 59.421875 
L 7.8125 69.390625 
Q 13.765625 71.78125 18.9375 73 
Q 24.125 74.21875 28.421875 74.21875 
Q 39.75 74.21875 46.484375 68.546875 
Q 53.21875 62.890625 53.21875 53.421875 
Q 53.21875 48.921875 51.53125 44.890625 
Q 49.859375 40.875 45.40625 35.40625 
Q 44.1875 33.984375 37.640625 27.21875 
Q 31.109375 20.453125 19.1875 8.296875 
z
" id="DejaVuSans-32"/>
    </defs>
    <g style="fill:#262626;" transform="translate(49.540625 30.178125)scale(0.1 -0.1)">
     <use transform="translate(0 0.015625)" xlink:href="#DejaVuSans-6f"/>
     <use transform="translate(61.181641 0.015625)" xlink:href="#DejaVuSans-66"/>
     <use transform="translate(96.386719 0.015625)" xlink:href="#DejaVuSans-20"/>
     <use transform="translate(128.173828 0.015625)" xlink:href="#DejaVuSans-6c"/>
     <use transform="translate(155.957031 0.015625)" xlink:href="#DejaVuSans-65"/>
     <use transform="translate(217.480469 0.015625)" xlink:href="#DejaVuSans-6e"/>
     <use transform="translate(280.859375 0.015625)" xlink:href="#DejaVuSans-67"/>
     <use transform="translate(344.335938 0.015625)" xlink:href="#DejaVuSans-74"/>
     <use transform="translate(383.544922 0.015625)" xlink:href="#DejaVuSans-68"/>
     <use transform="translate(446.923828 0.015625)" xlink:href="#DejaVuSans-20"/>
     <use transform="translate(478.710938 0.015625)" xlink:href="#DejaVuSans-32"/>
    </g>
    <!-- reached in 5.250.64 (meanSD) time steps -->
    <defs>
     <path d="M 41.109375 46.296875 
Q 39.59375 47.171875 37.8125 47.578125 
Q 36.03125 48 33.890625 48 
Q 26.265625 48 22.1875 43.046875 
Q 18.109375 38.09375 18.109375 28.8125 
L 18.109375 0 
L 9.078125 0 
L 9.078125 54.6875 
L 18.109375 54.6875 
L 18.109375 46.1875 
Q 20.953125 51.171875 25.484375 53.578125 
Q 30.03125 56 36.53125 56 
Q 37.453125 56 38.578125 55.875 
Q 39.703125 55.765625 41.0625 55.515625 
z
" id="DejaVuSans-72"/>
     <path d="M 34.28125 27.484375 
Q 23.390625 27.484375 19.1875 25 
Q 14.984375 22.515625 14.984375 16.5 
Q 14.984375 11.71875 18.140625 8.90625 
Q 21.296875 6.109375 26.703125 6.109375 
Q 34.1875 6.109375 38.703125 11.40625 
Q 43.21875 16.703125 43.21875 25.484375 
L 43.21875 27.484375 
z
M 52.203125 31.203125 
L 52.203125 0 
L 43.21875 0 
L 43.21875 8.296875 
Q 40.140625 3.328125 35.546875 0.953125 
Q 30.953125 -1.421875 24.3125 -1.421875 
Q 15.921875 -1.421875 10.953125 3.296875 
Q 6 8.015625 6 15.921875 
Q 6 25.140625 12.171875 29.828125 
Q 18.359375 34.515625 30.609375 34.515625 
L 43.21875 34.515625 
L 43.21875 35.40625 
Q 43.21875 41.609375 39.140625 45 
Q 35.0625 48.390625 27.6875 48.390625 
Q 23 48.390625 18.546875 47.265625 
Q 14.109375 46.140625 10.015625 43.890625 
L 10.015625 52.203125 
Q 14.9375 54.109375 19.578125 55.046875 
Q 24.21875 56 28.609375 56 
Q 40.484375 56 46.34375 49.84375 
Q 52.203125 43.703125 52.203125 31.203125 
z
" id="DejaVuSans-61"/>
     <path d="M 48.78125 52.59375 
L 48.78125 44.1875 
Q 44.96875 46.296875 41.140625 47.34375 
Q 37.3125 48.390625 33.40625 48.390625 
Q 24.65625 48.390625 19.8125 42.84375 
Q 14.984375 37.3125 14.984375 27.296875 
Q 14.984375 17.28125 19.8125 11.734375 
Q 24.65625 6.203125 33.40625 6.203125 
Q 37.3125 6.203125 41.140625 7.25 
Q 44.96875 8.296875 48.78125 10.40625 
L 48.78125 2.09375 
Q 45.015625 0.34375 40.984375 -0.53125 
Q 36.96875 -1.421875 32.421875 -1.421875 
Q 20.0625 -1.421875 12.78125 6.34375 
Q 5.515625 14.109375 5.515625 27.296875 
Q 5.515625 40.671875 12.859375 48.328125 
Q 20.21875 56 33.015625 56 
Q 37.15625 56 41.109375 55.140625 
Q 45.0625 54.296875 48.78125 52.59375 
z
" id="DejaVuSans-63"/>
     <path d="M 10.6875 12.40625 
L 21 12.40625 
L 21 0 
L 10.6875 0 
z
" id="DejaVuSans-2e"/>
     <path d="M 46 62.703125 
L 46 43.796875 
L 73.1875 43.796875 
L 73.1875 35.5 
L 46 35.5 
L 46 16.609375 
L 37.796875 16.609375 
L 37.796875 35.5 
L 10.59375 35.5 
L 10.59375 43.796875 
L 37.796875 43.796875 
L 37.796875 62.703125 
z
M 10.59375 8.296875 
L 73.1875 8.296875 
L 73.1875 0 
L 10.59375 0 
z
" id="DejaVuSans-b1"/>
     <path d="M 31 75.875 
Q 24.46875 64.65625 21.28125 53.65625 
Q 18.109375 42.671875 18.109375 31.390625 
Q 18.109375 20.125 21.3125 9.0625 
Q 24.515625 -2 31 -13.1875 
L 23.1875 -13.1875 
Q 15.875 -1.703125 12.234375 9.375 
Q 8.59375 20.453125 8.59375 31.390625 
Q 8.59375 42.28125 12.203125 53.3125 
Q 15.828125 64.359375 23.1875 75.875 
z
" id="DejaVuSans-28"/>
     <path d="M 8.015625 75.875 
L 15.828125 75.875 
Q 23.140625 64.359375 26.78125 53.3125 
Q 30.421875 42.28125 30.421875 31.390625 
Q 30.421875 20.453125 26.78125 9.375 
Q 23.140625 -1.703125 15.828125 -13.1875 
L 8.015625 -13.1875 
Q 14.5 -2 17.703125 9.0625 
Q 20.90625 20.125 20.90625 31.390625 
Q 20.90625 42.671875 17.703125 53.65625 
Q 14.5 64.65625 8.015625 75.875 
z
" id="DejaVuSans-29"/>
     <path d="M 44.28125 53.078125 
L 44.28125 44.578125 
Q 40.484375 46.53125 36.375 47.5 
Q 32.28125 48.484375 27.875 48.484375 
Q 21.1875 48.484375 17.84375 46.4375 
Q 14.5 44.390625 14.5 40.28125 
Q 14.5 37.15625 16.890625 35.375 
Q 19.28125 33.59375 26.515625 31.984375 
L 29.59375 31.296875 
Q 39.15625 29.25 43.1875 25.515625 
Q 47.21875 21.78125 47.21875 15.09375 
Q 47.21875 7.46875 41.1875 3.015625 
Q 35.15625 -1.421875 24.609375 -1.421875 
Q 20.21875 -1.421875 15.453125 -0.5625 
Q 10.6875 0.296875 5.421875 2 
L 5.421875 11.28125 
Q 10.40625 8.6875 15.234375 7.390625 
Q 20.0625 6.109375 24.8125 6.109375 
Q 31.15625 6.109375 34.5625 8.28125 
Q 37.984375 10.453125 37.984375 14.40625 
Q 37.984375 18.0625 35.515625 20.015625 
Q 33.0625 21.96875 24.703125 23.78125 
L 21.578125 24.515625 
Q 13.234375 26.265625 9.515625 29.90625 
Q 5.8125 33.546875 5.8125 39.890625 
Q 5.8125 47.609375 11.28125 51.796875 
Q 16.75 56 26.8125 56 
Q 31.78125 56 36.171875 55.265625 
Q 40.578125 54.546875 44.28125 53.078125 
z
" id="DejaVuSans-73"/>
     <path d="M 18.109375 8.203125 
L 18.109375 -20.796875 
L 9.078125 -20.796875 
L 9.078125 54.6875 
L 18.109375 54.6875 
L 18.109375 46.390625 
Q 20.953125 51.265625 25.265625 53.625 
Q 29.59375 56 35.59375 56 
Q 45.5625 56 51.78125 48.09375 
Q 58.015625 40.1875 58.015625 27.296875 
Q 58.015625 14.40625 51.78125 6.484375 
Q 45.5625 -1.421875 35.59375 -1.421875 
Q 29.59375 -1.421875 25.265625 0.953125 
Q 20.953125 3.328125 18.109375 8.203125 
z
M 48.6875 27.296875 
Q 48.6875 37.203125 44.609375 42.84375 
Q 40.53125 48.484375 33.40625 48.484375 
Q 26.265625 48.484375 22.1875 42.84375 
Q 18.109375 37.203125 18.109375 27.296875 
Q 18.109375 17.390625 22.1875 11.75 
Q 26.265625 6.109375 33.40625 6.109375 
Q 40.53125 6.109375 44.609375 11.75 
Q 48.6875 17.390625 48.6875 27.296875 
z
" id="DejaVuSans-70"/>
    </defs>
    <g style="fill:#262626;" transform="translate(49.540625 45.575391)scale(0.1 -0.1)">
     <use xlink:href="#DejaVuSans-72"/>
     <use x="41.082031" xlink:href="#DejaVuSans-65"/>
     <use x="102.605469" xlink:href="#DejaVuSans-61"/>
     <use x="163.884766" xlink:href="#DejaVuSans-63"/>
     <use x="218.865234" xlink:href="#DejaVuSans-68"/>
     <use x="282.244141" xlink:href="#DejaVuSans-65"/>
     <use x="343.767578" xlink:href="#DejaVuSans-64"/>
     <use x="407.244141" xlink:href="#DejaVuSans-20"/>
     <use x="439.03125" xlink:href="#DejaVuSans-69"/>
     <use x="466.814453" xlink:href="#DejaVuSans-6e"/>
     <use x="530.193359" xlink:href="#DejaVuSans-20"/>
     <use x="561.980469" xlink:href="#DejaVuSans-35"/>
     <use x="625.603516" xlink:href="#DejaVuSans-2e"/>
     <use x="657.390625" xlink:href="#DejaVuSans-32"/>
     <use x="721.013672" xlink:href="#DejaVuSans-35"/>
     <use x="784.636719" xlink:href="#DejaVuSans-b1"/>
     <use x="868.425781" xlink:href="#DejaVuSans-30"/>
     <use x="932.048828" xlink:href="#DejaVuSans-2e"/>
     <use x="963.835938" xlink:href="#DejaVuSans-36"/>
     <use x="1027.458984" xlink:href="#DejaVuSans-34"/>
     <use x="1091.082031" xlink:href="#DejaVuSans-20"/>
     <use x="1122.869141" xlink:href="#DejaVuSans-28"/>
     <use x="1161.882812" xlink:href="#DejaVuSans-6d"/>
     <use x="1259.294922" xlink:href="#DejaVuSans-65"/>
     <use x="1320.818359" xlink:href="#DejaVuSans-61"/>
     <use x="1382.097656" xlink:href="#DejaVuSans-6e"/>
     <use x="1445.476562" xlink:href="#DejaVuSans-b1"/>
     <use x="1529.265625" xlink:href="#DejaVuSans-53"/>
     <use x="1592.742188" xlink:href="#DejaVuSans-44"/>
     <use x="1669.744141" xlink:href="#DejaVuSans-29"/>
     <use x="1708.757812" xlink:href="#DejaVuSans-20"/>
     <use x="1740.544922" xlink:href="#DejaVuSans-74"/>
     <use x="1779.753906" xlink:href="#DejaVuSans-69"/>
     <use x="1807.537109" xlink:href="#DejaVuSans-6d"/>
     <use x="1904.949219" xlink:href="#DejaVuSans-65"/>
     <use x="1966.472656" xlink:href="#DejaVuSans-20"/>
     <use x="1998.259766" xlink:href="#DejaVuSans-73"/>
     <use x="2050.359375" xlink:href="#DejaVuSans-74"/>
     <use x="2089.568359" xlink:href="#DejaVuSans-65"/>
     <use x="2151.091797" xlink:href="#DejaVuSans-70"/>
     <use x="2214.568359" xlink:href="#DejaVuSans-73"/>
    </g>
    <!-- from $\bf{0.04730\%}$ initial conditions -->
    <defs>
     <path d="M 46 36.53125 
Q 46 50.203125 43.4375 55.78125 
Q 40.875 61.375 34.8125 61.375 
Q 28.765625 61.375 26.171875 55.78125 
Q 23.578125 50.203125 23.578125 36.53125 
Q 23.578125 22.703125 26.171875 17.03125 
Q 28.765625 11.375 34.8125 11.375 
Q 40.828125 11.375 43.40625 17.03125 
Q 46 22.703125 46 36.53125 
z
M 64.796875 36.375 
Q 64.796875 18.265625 56.984375 8.421875 
Q 49.171875 -1.421875 34.8125 -1.421875 
Q 20.40625 -1.421875 12.59375 8.421875 
Q 4.78125 18.265625 4.78125 36.375 
Q 4.78125 54.546875 12.59375 64.375 
Q 20.40625 74.21875 34.8125 74.21875 
Q 49.171875 74.21875 56.984375 64.375 
Q 64.796875 54.546875 64.796875 36.375 
z
" id="DejaVuSans-Bold-30"/>
     <path d="M 10.203125 18.890625 
L 27.78125 18.890625 
L 27.78125 0 
L 10.203125 0 
z
" id="DejaVuSans-Bold-2e"/>
     <path d="M 36.8125 57.421875 
L 16.21875 26.90625 
L 36.8125 26.90625 
z
M 33.6875 72.90625 
L 54.59375 72.90625 
L 54.59375 26.90625 
L 64.984375 26.90625 
L 64.984375 13.28125 
L 54.59375 13.28125 
L 54.59375 0 
L 36.8125 0 
L 36.8125 13.28125 
L 4.5 13.28125 
L 4.5 29.390625 
z
" id="DejaVuSans-Bold-34"/>
     <path d="M 6.6875 72.90625 
L 61.625 72.90625 
L 61.625 62.3125 
L 33.203125 0 
L 14.890625 0 
L 41.796875 59.078125 
L 6.6875 59.078125 
z
" id="DejaVuSans-Bold-37"/>
     <path d="M 77.484375 30.078125 
Q 74.03125 30.078125 72.125 27.078125 
Q 70.21875 24.078125 70.21875 18.5 
Q 70.21875 12.890625 72.09375 9.890625 
Q 73.96875 6.890625 77.484375 6.890625 
Q 81 6.890625 82.859375 9.890625 
Q 84.71875 12.890625 84.71875 18.5 
Q 84.71875 24.078125 82.828125 27.078125 
Q 80.953125 30.078125 77.484375 30.078125 
z
M 77.484375 38.28125 
Q 86.578125 38.28125 91.796875 33 
Q 97.015625 27.734375 97.015625 18.5 
Q 97.015625 9.28125 91.796875 3.921875 
Q 86.578125 -1.421875 77.484375 -1.421875 
Q 68.40625 -1.421875 63.15625 3.921875 
Q 57.90625 9.28125 57.90625 18.5 
Q 57.90625 27.6875 63.15625 32.984375 
Q 68.40625 38.28125 77.484375 38.28125 
z
M 32.71875 -1.421875 
L 21.921875 -1.421875 
L 67.484375 74.21875 
L 78.328125 74.21875 
z
M 22.703125 74.21875 
Q 31.78125 74.21875 36.984375 68.921875 
Q 42.1875 63.625 42.1875 54.390625 
Q 42.1875 45.171875 36.984375 39.84375 
Q 31.78125 34.515625 22.703125 34.515625 
Q 13.625 34.515625 8.421875 39.84375 
Q 3.21875 45.171875 3.21875 54.390625 
Q 3.21875 63.625 8.421875 68.921875 
Q 13.625 74.21875 22.703125 74.21875 
z
M 22.703125 66.015625 
Q 19.1875 66.015625 17.28125 62.984375 
Q 15.375 59.96875 15.375 54.390625 
Q 15.375 48.78125 17.28125 45.71875 
Q 19.1875 42.671875 22.703125 42.671875 
Q 26.21875 42.671875 28.09375 45.71875 
Q 29.984375 48.78125 29.984375 54.390625 
Q 29.984375 59.96875 28.078125 62.984375 
Q 26.171875 66.015625 22.703125 66.015625 
z
" id="DejaVuSans-Bold-25"/>
    </defs>
    <g style="fill:#262626;" transform="translate(49.540625 60.952344)scale(0.1 -0.1)">
     <use transform="translate(0 0.015625)" xlink:href="#DejaVuSans-66"/>
     <use transform="translate(35.205078 0.015625)" xlink:href="#DejaVuSans-72"/>
     <use transform="translate(76.318359 0.015625)" xlink:href="#DejaVuSans-6f"/>
     <use transform="translate(137.5 0.015625)" xlink:href="#DejaVuSans-6d"/>
     <use transform="translate(234.912109 0.015625)" xlink:href="#DejaVuSans-20"/>
     <use transform="translate(266.699219 0.015625)" xlink:href="#DejaVuSans-Bold-30"/>
     <use transform="translate(336.279297 0.015625)" xlink:href="#DejaVuSans-Bold-2e"/>
     <use transform="translate(374.267578 0.015625)" xlink:href="#DejaVuSans-Bold-30"/>
     <use transform="translate(443.847656 0.015625)" xlink:href="#DejaVuSans-Bold-34"/>
     <use transform="translate(513.427734 0.015625)" xlink:href="#DejaVuSans-Bold-37"/>
     <use transform="translate(583.007812 0.015625)" xlink:href="#DejaVuSans-Bold-33"/>
     <use transform="translate(652.587891 0.015625)" xlink:href="#DejaVuSans-Bold-30"/>
     <use transform="translate(722.167969 0.015625)" xlink:href="#DejaVuSans-Bold-25"/>
     <use transform="translate(822.363281 0.015625)" xlink:href="#DejaVuSans-20"/>
     <use transform="translate(854.150391 0.015625)" xlink:href="#DejaVuSans-69"/>
     <use transform="translate(881.933594 0.015625)" xlink:href="#DejaVuSans-6e"/>
     <use transform="translate(945.3125 0.015625)" xlink:href="#DejaVuSans-69"/>
     <use transform="translate(973.095703 0.015625)" xlink:href="#DejaVuSans-74"/>
     <use transform="translate(1012.304688 0.015625)" xlink:href="#DejaVuSans-69"/>
     <use transform="translate(1040.087891 0.015625)" xlink:href="#DejaVuSans-61"/>
     <use transform="translate(1101.367188 0.015625)" xlink:href="#DejaVuSans-6c"/>
     <use transform="translate(1129.150391 0.015625)" xlink:href="#DejaVuSans-20"/>
     <use transform="translate(1160.9375 0.015625)" xlink:href="#DejaVuSans-63"/>
     <use transform="translate(1215.917969 0.015625)" xlink:href="#DejaVuSans-6f"/>
     <use transform="translate(1277.099609 0.015625)" xlink:href="#DejaVuSans-6e"/>
     <use transform="translate(1340.478516 0.015625)" xlink:href="#DejaVuSans-64"/>
     <use transform="translate(1403.955078 0.015625)" xlink:href="#DejaVuSans-69"/>
     <use transform="translate(1431.738281 0.015625)" xlink:href="#DejaVuSans-74"/>
     <use transform="translate(1470.947266 0.015625)" xlink:href="#DejaVuSans-69"/>
     <use transform="translate(1498.730469 0.015625)" xlink:href="#DejaVuSans-6f"/>
     <use transform="translate(1559.912109 0.015625)" xlink:href="#DejaVuSans-6e"/>
     <use transform="translate(1623.291016 0.015625)" xlink:href="#DejaVuSans-73"/>
    </g>
   </g>
   <g id="legend_1">
    <g id="patch_5">
     <path d="M 387.282812 62.312031 
L 589.540625 62.312031 
L 589.540625 18.555781 
L 387.282812 18.555781 
z
" style="fill:#ffffff;stroke:#000000;stroke-linejoin:miter;stroke-width:0.5;"/>
    </g>
    <g id="line2d_33"/>
    <g id="line2d_34">
     <defs>
      <path d="M -6 6 
L 6 6 
L 6 -6 
L -6 -6 
z
" id="m5e86141b97"/>
     </defs>
     <g>
      <use style="fill:#d1d1d1;" x="403.482812" xlink:href="#m5e86141b97" y="29.854219"/>
     </g>
    </g>
    <g id="text_36">
     <!-- node state 0 -->
     <g style="fill:#262626;" transform="translate(420.482812 33.354219)scale(0.1 -0.1)">
      <use xlink:href="#DejaVuSans-6e"/>
      <use x="63.378906" xlink:href="#DejaVuSans-6f"/>
      <use x="124.560547" xlink:href="#DejaVuSans-64"/>
      <use x="188.037109" xlink:href="#DejaVuSans-65"/>
      <use x="249.560547" xlink:href="#DejaVuSans-20"/>
      <use x="281.347656" xlink:href="#DejaVuSans-73"/>
      <use x="333.447266" xlink:href="#DejaVuSans-74"/>
      <use x="372.65625" xlink:href="#DejaVuSans-61"/>
      <use x="433.935547" xlink:href="#DejaVuSans-74"/>
      <use x="473.144531" xlink:href="#DejaVuSans-65"/>
      <use x="534.667969" xlink:href="#DejaVuSans-20"/>
      <use x="566.455078" xlink:href="#DejaVuSans-30"/>
     </g>
    </g>
    <g id="line2d_35"/>
    <g id="line2d_36">
     <defs>
      <path d="M -6 6 
L 6 6 
L 6 -6 
L -6 -6 
z
" id="mb1354c8a92"/>
     </defs>
     <g>
      <use style="fill:#353531;" x="403.482812" xlink:href="#mb1354c8a92" y="49.532344"/>
     </g>
    </g>
    <g id="text_37">
     <!-- node state 1 -->
     <g style="fill:#262626;" transform="translate(420.482812 53.032344)scale(0.1 -0.1)">
      <use xlink:href="#DejaVuSans-6e"/>
      <use x="63.378906" xlink:href="#DejaVuSans-6f"/>
      <use x="124.560547" xlink:href="#DejaVuSans-64"/>
      <use x="188.037109" xlink:href="#DejaVuSans-65"/>
      <use x="249.560547" xlink:href="#DejaVuSans-20"/>
      <use x="281.347656" xlink:href="#DejaVuSans-73"/>
      <use x="333.447266" xlink:href="#DejaVuSans-74"/>
      <use x="372.65625" xlink:href="#DejaVuSans-61"/>
      <use x="433.935547" xlink:href="#DejaVuSans-74"/>
      <use x="473.144531" xlink:href="#DejaVuSans-65"/>
      <use x="534.667969" xlink:href="#DejaVuSans-20"/>
      <use x="566.455078" xlink:href="#DejaVuSans-31"/>
     </g>
    </g>
    <g id="patch_6">
     <path d="M 503.490625 33.354219 
L 521.490625 33.354219 
L 521.490625 26.354219 
L 503.490625 26.354219 
z
" style="fill:#00ced1;stroke:#00ced1;stroke-linejoin:miter;"/>
    </g>
    <g id="text_38">
     <!-- fixed node -->
     <defs>
      <path d="M 54.890625 54.6875 
L 35.109375 28.078125 
L 55.90625 0 
L 45.3125 0 
L 29.390625 21.484375 
L 13.484375 0 
L 2.875 0 
L 24.125 28.609375 
L 4.6875 54.6875 
L 15.28125 54.6875 
L 29.78125 35.203125 
L 44.28125 54.6875 
z
" id="DejaVuSans-78"/>
     </defs>
     <g style="fill:#262626;" transform="translate(529.490625 33.354219)scale(0.1 -0.1)">
      <use xlink:href="#DejaVuSans-66"/>
      <use x="35.205078" xlink:href="#DejaVuSans-69"/>
      <use x="62.988281" xlink:href="#DejaVuSans-78"/>
      <use x="122.121094" xlink:href="#DejaVuSans-65"/>
      <use x="183.644531" xlink:href="#DejaVuSans-64"/>
      <use x="247.121094" xlink:href="#DejaVuSans-20"/>
      <use x="278.908203" xlink:href="#DejaVuSans-6e"/>
      <use x="342.287109" xlink:href="#DejaVuSans-6f"/>
      <use x="403.46875" xlink:href="#DejaVuSans-64"/>
      <use x="466.945312" xlink:href="#DejaVuSans-65"/>
     </g>
    </g>
   </g>
  </g>
 </g>
 <defs>
  <clipPath id="p6f9ba69e5c">
   <rect height="36" width="540" x="49.540625" y="73.832031"/>
  </clipPath>
 </defs>
</svg>
